<svg width="194" height="50" viewBox="0 0 194 50" fill="none" xmlns="http://www.w3.org/2000/svg">
<rect x="1" y="1" width="192" height="48" rx="24" fill="#0C0C0C"/>
<rect x="1" y="1" width="192" height="48" rx="24" stroke="#EBF0F4" stroke-width="1.2"/>
<path d="M42.0293 37.2324C40.6348 37.2324 39.5638 36.6582 38.8164 35.5098C38.069 34.3613 37.6953 32.4701 37.6953 29.8359V19.7461C37.6953 18.6888 37.7682 17.7318 37.9141 16.875C38.069 16.0091 38.3288 15.2617 38.6934 14.6328C39.0579 14.0039 39.5547 13.5208 40.1836 13.1836C40.8216 12.8464 41.6237 12.6777 42.5898 12.6777C43.5924 12.6777 44.39 12.8509 44.9824 13.1973C45.584 13.5345 46.0397 14.0176 46.3496 14.6465C46.6595 15.2754 46.8646 16.0273 46.9648 16.9023C47.0651 17.7773 47.1152 18.7435 47.1152 19.8008V21.6602H44.3809V18.5293C44.3809 17.3626 44.2624 16.5013 44.0254 15.9453C43.7975 15.3802 43.319 15.0977 42.5898 15.0977C41.8151 15.0977 41.2773 15.4303 40.9766 16.0957C40.6758 16.7611 40.5254 17.9368 40.5254 19.623V29.7402C40.5254 31.5814 40.6484 32.8984 40.8945 33.6914C41.1497 34.4844 41.6875 34.8809 42.5078 34.8809C43.2917 34.8809 43.8203 34.4844 44.0938 33.6914C44.3763 32.8893 44.5176 31.554 44.5176 29.6855V26.5547H42.5625V24.3672H47.1152V37H45.625L45.2422 35.1406C44.987 35.8151 44.5814 36.3346 44.0254 36.6992C43.4785 37.0547 42.8132 37.2324 42.0293 37.2324ZM55.0586 37.2461C54.0742 37.2461 53.2812 37.0775 52.6797 36.7402C52.0872 36.3939 51.6361 35.9062 51.3262 35.2773C51.0163 34.6484 50.8066 33.8965 50.6973 33.0215C50.597 32.1374 50.5469 31.1621 50.5469 30.0957V22.8496C50.5469 21.8835 50.6152 20.9993 50.752 20.1973C50.8887 19.3861 51.1257 18.6888 51.4629 18.1055C51.8001 17.513 52.2695 17.0573 52.8711 16.7383C53.4727 16.4102 54.2383 16.2461 55.168 16.2461C56.1068 16.2461 56.8633 16.4102 57.4375 16.7383C58.0117 17.0664 58.4447 17.5312 58.7363 18.1328C59.0371 18.7253 59.2376 19.4362 59.3379 20.2656C59.4382 21.0859 59.4883 21.9883 59.4883 22.9727V26.8418H53.3633V30.9297C53.3633 32.224 53.4499 33.2129 53.623 33.8965C53.8053 34.571 54.293 34.9082 55.0859 34.9082C55.6055 34.9082 55.9746 34.7487 56.1934 34.4297C56.4212 34.1016 56.5579 33.6458 56.6035 33.0625C56.6582 32.4701 56.6855 31.7728 56.6855 30.9707V29.3164H59.4336V30.1914C59.4336 31.2578 59.388 32.224 59.2969 33.0898C59.2148 33.9557 59.0326 34.6986 58.75 35.3184C58.4674 35.9382 58.0299 36.4167 57.4375 36.7539C56.8542 37.082 56.0612 37.2461 55.0586 37.2461ZM53.3496 24.9414H56.6855V22.3301C56.6855 21.5098 56.6582 20.8216 56.6035 20.2656C56.5488 19.7005 56.4167 19.2767 56.207 18.9941C55.9974 18.7025 55.651 18.5566 55.168 18.5566C54.6302 18.5566 54.2292 18.7207 53.9648 19.0488C53.7096 19.377 53.541 19.8327 53.459 20.416C53.3861 20.9902 53.3496 21.6602 53.3496 22.4258V24.9414ZM62.8652 37V16.4922H65.668V18.666C65.8503 18.028 66.2376 17.4629 66.8301 16.9707C67.4316 16.4785 68.1471 16.2324 68.9766 16.2324C70.0065 16.2324 70.8086 16.597 71.3828 17.3262C71.957 18.0553 72.2441 19.1628 72.2441 20.6484V37H69.4414V20.6621C69.4414 19.9329 69.2773 19.4043 68.9492 19.0762C68.6211 18.748 68.2018 18.584 67.6914 18.584C67.3177 18.584 66.9759 18.666 66.666 18.8301C66.3561 18.9941 66.11 19.2493 65.9277 19.5957C65.7546 19.9421 65.668 20.3887 65.668 20.9355V37H62.8652ZM81.582 37L85.2324 12.9375H88.6367L92.6152 37H89.9492L89.2656 32.4062H84.9043L84.2754 37H81.582ZM85.2188 30.1094H88.9102L87.0098 17.3945H86.9688L85.2188 30.1094ZM95.2812 37V12.9375H98.1113V37H95.2812ZM109.828 37V15.2891H107.176V12.9375H115.119V15.2891H112.645V37H109.828ZM121.326 37.2461C120.36 37.2461 119.576 37.082 118.975 36.7539C118.373 36.4167 117.908 35.9427 117.58 35.332C117.261 34.7122 117.042 33.974 116.924 33.1172C116.805 32.2513 116.746 31.2852 116.746 30.2188V22.959C116.746 21.6738 116.869 20.5254 117.115 19.5137C117.361 18.502 117.812 17.7044 118.469 17.1211C119.134 16.5378 120.087 16.2461 121.326 16.2461C122.256 16.2461 123.017 16.4147 123.609 16.752C124.202 17.0801 124.662 17.5495 124.99 18.1602C125.318 18.7617 125.542 19.4727 125.66 20.293C125.788 21.1042 125.852 21.9928 125.852 22.959V30.2188C125.852 31.2669 125.797 32.2194 125.688 33.0762C125.578 33.9329 125.364 34.6758 125.045 35.3047C124.735 35.9245 124.279 36.403 123.678 36.7402C123.085 37.0775 122.301 37.2461 121.326 37.2461ZM121.326 34.9082C121.818 34.9082 122.183 34.7441 122.42 34.416C122.666 34.0879 122.83 33.6322 122.912 33.0488C122.994 32.4564 123.035 31.7728 123.035 30.998V22.3984C123.035 21.6328 122.994 20.9674 122.912 20.4023C122.83 19.8281 122.666 19.3815 122.42 19.0625C122.174 18.7435 121.809 18.584 121.326 18.584C120.816 18.584 120.433 18.7435 120.178 19.0625C119.923 19.3815 119.754 19.8281 119.672 20.4023C119.599 20.9674 119.562 21.6328 119.562 22.3984V30.998C119.562 31.7728 119.599 32.4564 119.672 33.0488C119.754 33.6322 119.923 34.0879 120.178 34.416C120.433 34.7441 120.816 34.9082 121.326 34.9082ZM133.822 37.2461C132.856 37.2461 132.072 37.082 131.471 36.7539C130.869 36.4167 130.404 35.9427 130.076 35.332C129.757 34.7122 129.538 33.974 129.42 33.1172C129.301 32.2513 129.242 31.2852 129.242 30.2188V22.959C129.242 21.6738 129.365 20.5254 129.611 19.5137C129.857 18.502 130.309 17.7044 130.965 17.1211C131.63 16.5378 132.583 16.2461 133.822 16.2461C134.752 16.2461 135.513 16.4147 136.105 16.752C136.698 17.0801 137.158 17.5495 137.486 18.1602C137.814 18.7617 138.038 19.4727 138.156 20.293C138.284 21.1042 138.348 21.9928 138.348 22.959V30.2188C138.348 31.2669 138.293 32.2194 138.184 33.0762C138.074 33.9329 137.86 34.6758 137.541 35.3047C137.231 35.9245 136.775 36.403 136.174 36.7402C135.581 37.0775 134.798 37.2461 133.822 37.2461ZM133.822 34.9082C134.314 34.9082 134.679 34.7441 134.916 34.416C135.162 34.0879 135.326 33.6322 135.408 33.0488C135.49 32.4564 135.531 31.7728 135.531 30.998V22.3984C135.531 21.6328 135.49 20.9674 135.408 20.4023C135.326 19.8281 135.162 19.3815 134.916 19.0625C134.67 18.7435 134.305 18.584 133.822 18.584C133.312 18.584 132.929 18.7435 132.674 19.0625C132.419 19.3815 132.25 19.8281 132.168 20.4023C132.095 20.9674 132.059 21.6328 132.059 22.3984V30.998C132.059 31.7728 132.095 32.4564 132.168 33.0488C132.25 33.6322 132.419 34.0879 132.674 34.416C132.929 34.7441 133.312 34.9082 133.822 34.9082ZM142.053 37V12.6777H144.855V37H142.053ZM152.758 37.2734C151.299 37.2734 150.192 36.8177 149.436 35.9062C148.679 34.9857 148.301 33.4635 148.301 31.3398V29.7949H151.021V31.3262C151.021 32.4746 151.145 33.3542 151.391 33.9648C151.646 34.5755 152.061 34.8809 152.635 34.8809C153.209 34.8809 153.628 34.694 153.893 34.3203C154.166 33.9466 154.303 33.2767 154.303 32.3105C154.303 31.8275 154.23 31.349 154.084 30.875C153.938 30.3919 153.715 29.918 153.414 29.4531C153.113 28.9792 152.726 28.5189 152.252 28.0723L150.803 26.6914C149.937 25.862 149.276 24.9824 148.82 24.0527C148.365 23.1139 148.137 22.1204 148.137 21.0723C148.137 19.4134 148.529 18.1966 149.312 17.4219C150.096 16.638 151.176 16.2461 152.553 16.2461C153.473 16.2461 154.248 16.4466 154.877 16.8477C155.506 17.2487 155.98 17.9141 156.299 18.8438C156.618 19.7734 156.777 21.0404 156.777 22.6445V23.6289H154.111V22.207C154.111 21.0586 153.997 20.179 153.77 19.5684C153.551 18.9577 153.154 18.6523 152.58 18.6523C152.024 18.6523 151.605 18.8164 151.322 19.1445C151.049 19.4635 150.898 20.0514 150.871 20.9082C150.862 21.3457 150.917 21.7878 151.035 22.2344C151.163 22.681 151.368 23.123 151.65 23.5605C151.933 23.998 152.298 24.4264 152.744 24.8457L154.221 26.2266C155.178 27.1107 155.898 28.0632 156.381 29.084C156.873 30.0957 157.119 31.1667 157.119 32.2969C157.119 33.8464 156.764 35.0632 156.053 35.9473C155.351 36.8314 154.253 37.2734 152.758 37.2734Z" fill="#EBF0F4"/>
</svg>
