<svg width="194" height="50" viewBox="0 0 194 50" fill="none" xmlns="http://www.w3.org/2000/svg">
<rect x="1" y="1" width="192" height="48" rx="24" fill="#0C0C0C"/>
<rect x="1" y="1" width="192" height="48" rx="24" stroke="#9C4CFD" stroke-width="1.2"/>
<path d="M40.5488 37.2871C39.3639 37.2871 38.4206 37.0547 37.7188 36.5898C37.026 36.1159 36.5293 35.4004 36.2285 34.4434C35.9277 33.4863 35.7773 32.2786 35.7773 30.8203V12.9375H38.6074V30.752C38.6074 31.6178 38.6393 32.3607 38.7031 32.9805C38.7669 33.6003 38.9355 34.0742 39.209 34.4023C39.4824 34.7305 39.929 34.8945 40.5488 34.8945C41.1777 34.8945 41.6243 34.7305 41.8887 34.4023C42.153 34.0742 42.3125 33.6048 42.3672 32.9941C42.431 32.3743 42.4629 31.6315 42.4629 30.7656V12.9375H45.2793V30.8203C45.2793 32.2786 45.1335 33.4863 44.8418 34.4434C44.5501 35.4004 44.0579 36.1159 43.3652 36.5898C42.6816 37.0547 41.7428 37.2871 40.5488 37.2871ZM47.6582 37L51.1035 24.2578L47.7676 12.9375H50.2422L52.5938 20.9492L54.6582 12.9375H57.2012L53.8652 25.2832L57.3105 37H54.8496L52.4023 28.6875L50.2422 37H47.6582ZM66.6484 37V12.9375H71.6934C72.9694 12.9375 73.9128 13.1654 74.5234 13.6211C75.1341 14.0677 75.5306 14.7467 75.7129 15.6582C75.9043 16.5605 76 17.6999 76 19.0762C76 20.5618 75.8496 21.7422 75.5488 22.6172C75.248 23.4922 74.6647 24.0573 73.7988 24.3125C74.2363 24.3854 74.5964 24.5723 74.8789 24.873C75.1706 25.1738 75.3984 25.6432 75.5625 26.2812C75.7266 26.9193 75.8405 27.776 75.9043 28.8516C75.9772 29.918 76.0137 31.2624 76.0137 32.8848C76.0137 33.0397 76.0137 33.263 76.0137 33.5547C76.0137 33.8464 76.0182 34.1654 76.0273 34.5117C76.0365 34.8581 76.0456 35.1999 76.0547 35.5371C76.0729 35.8743 76.0957 36.1751 76.123 36.4395C76.1504 36.6947 76.1868 36.8815 76.2324 37H73.416C73.3796 36.918 73.3477 36.7357 73.3203 36.4531C73.293 36.1706 73.2702 35.7969 73.252 35.332C73.2337 34.8672 73.2201 34.3158 73.2109 33.6777C73.2018 33.0306 73.1973 32.3105 73.1973 31.5176C73.1973 30.7155 73.1973 29.8405 73.1973 28.8926C73.1973 27.9811 73.1562 27.2884 73.0742 26.8145C73.0013 26.3314 72.819 25.9987 72.5273 25.8164C72.2448 25.625 71.7891 25.5111 71.1602 25.4746L69.4785 25.3789V37H66.6484ZM69.4785 23.3008H71.2832C71.8027 23.3008 72.1992 23.2005 72.4727 23C72.7552 22.7904 72.9466 22.3802 73.0469 21.7695C73.1471 21.1497 73.1973 20.2246 73.1973 18.9941V18.8301C73.1973 17.8092 73.1471 17.0391 73.0469 16.5195C72.9557 15.9909 72.7734 15.6354 72.5 15.4531C72.2266 15.2708 71.8118 15.1797 71.2559 15.1797H69.4785V23.3008ZM83.7383 37.2461C82.7539 37.2461 81.9609 37.0775 81.3594 36.7402C80.7669 36.3939 80.3158 35.9062 80.0059 35.2773C79.696 34.6484 79.4863 33.8965 79.377 33.0215C79.2767 32.1374 79.2266 31.1621 79.2266 30.0957V22.8496C79.2266 21.8835 79.2949 20.9993 79.4316 20.1973C79.5684 19.3861 79.8053 18.6888 80.1426 18.1055C80.4798 17.513 80.9492 17.0573 81.5508 16.7383C82.1523 16.4102 82.918 16.2461 83.8477 16.2461C84.7865 16.2461 85.543 16.4102 86.1172 16.7383C86.6914 17.0664 87.1243 17.5312 87.416 18.1328C87.7168 18.7253 87.9173 19.4362 88.0176 20.2656C88.1178 21.0859 88.168 21.9883 88.168 22.9727V26.8418H82.043V30.9297C82.043 32.224 82.1296 33.2129 82.3027 33.8965C82.485 34.571 82.9727 34.9082 83.7656 34.9082C84.2852 34.9082 84.6543 34.7487 84.873 34.4297C85.1009 34.1016 85.2376 33.6458 85.2832 33.0625C85.3379 32.4701 85.3652 31.7728 85.3652 30.9707V29.3164H88.1133V30.1914C88.1133 31.2578 88.0677 32.224 87.9766 33.0898C87.8945 33.9557 87.7122 34.6986 87.4297 35.3184C87.1471 35.9382 86.7096 36.4167 86.1172 36.7539C85.5339 37.082 84.7409 37.2461 83.7383 37.2461ZM82.0293 24.9414H85.3652V22.3301C85.3652 21.5098 85.3379 20.8216 85.2832 20.2656C85.2285 19.7005 85.0964 19.2767 84.8867 18.9941C84.6771 18.7025 84.3307 18.5566 83.8477 18.5566C83.3099 18.5566 82.9089 18.7207 82.6445 19.0488C82.3893 19.377 82.2207 19.8327 82.1387 20.416C82.0658 20.9902 82.0293 21.6602 82.0293 22.4258V24.9414ZM95.4141 37.2734C93.9557 37.2734 92.8483 36.8177 92.0918 35.9062C91.3353 34.9857 90.957 33.4635 90.957 31.3398V29.7949H93.6777V31.3262C93.6777 32.4746 93.8008 33.3542 94.0469 33.9648C94.3021 34.5755 94.7168 34.8809 95.291 34.8809C95.8652 34.8809 96.2845 34.694 96.5488 34.3203C96.8223 33.9466 96.959 33.2767 96.959 32.3105C96.959 31.8275 96.8861 31.349 96.7402 30.875C96.5944 30.3919 96.3711 29.918 96.0703 29.4531C95.7695 28.9792 95.3822 28.5189 94.9082 28.0723L93.459 26.6914C92.5931 25.862 91.9323 24.9824 91.4766 24.0527C91.0208 23.1139 90.793 22.1204 90.793 21.0723C90.793 19.4134 91.1849 18.1966 91.9688 17.4219C92.7526 16.638 93.8327 16.2461 95.209 16.2461C96.1296 16.2461 96.9043 16.4466 97.5332 16.8477C98.1621 17.2487 98.6361 17.9141 98.9551 18.8438C99.2741 19.7734 99.4336 21.0404 99.4336 22.6445V23.6289H96.7676V22.207C96.7676 21.0586 96.6536 20.179 96.4258 19.5684C96.207 18.9577 95.8105 18.6523 95.2363 18.6523C94.6803 18.6523 94.2611 18.8164 93.9785 19.1445C93.7051 19.4635 93.5547 20.0514 93.5273 20.9082C93.5182 21.3457 93.5729 21.7878 93.6914 22.2344C93.819 22.681 94.0241 23.123 94.3066 23.5605C94.5892 23.998 94.9538 24.4264 95.4004 24.8457L96.877 26.2266C97.834 27.1107 98.554 28.0632 99.0371 29.084C99.5293 30.0957 99.7754 31.1667 99.7754 32.2969C99.7754 33.8464 99.4199 35.0632 98.709 35.9473C98.0072 36.8314 96.9089 37.2734 95.4141 37.2734ZM106.789 37.2461C105.805 37.2461 105.012 37.0775 104.41 36.7402C103.818 36.3939 103.367 35.9062 103.057 35.2773C102.747 34.6484 102.537 33.8965 102.428 33.0215C102.327 32.1374 102.277 31.1621 102.277 30.0957V22.8496C102.277 21.8835 102.346 20.9993 102.482 20.1973C102.619 19.3861 102.856 18.6888 103.193 18.1055C103.531 17.513 104 17.0573 104.602 16.7383C105.203 16.4102 105.969 16.2461 106.898 16.2461C107.837 16.2461 108.594 16.4102 109.168 16.7383C109.742 17.0664 110.175 17.5312 110.467 18.1328C110.768 18.7253 110.968 19.4362 111.068 20.2656C111.169 21.0859 111.219 21.9883 111.219 22.9727V26.8418H105.094V30.9297C105.094 32.224 105.18 33.2129 105.354 33.8965C105.536 34.571 106.023 34.9082 106.816 34.9082C107.336 34.9082 107.705 34.7487 107.924 34.4297C108.152 34.1016 108.288 33.6458 108.334 33.0625C108.389 32.4701 108.416 31.7728 108.416 30.9707V29.3164H111.164V30.1914C111.164 31.2578 111.118 32.224 111.027 33.0898C110.945 33.9557 110.763 34.6986 110.48 35.3184C110.198 35.9382 109.76 36.4167 109.168 36.7539C108.585 37.082 107.792 37.2461 106.789 37.2461ZM105.08 24.9414H108.416V22.3301C108.416 21.5098 108.389 20.8216 108.334 20.2656C108.279 19.7005 108.147 19.2767 107.938 18.9941C107.728 18.7025 107.382 18.5566 106.898 18.5566C106.361 18.5566 105.96 18.7207 105.695 19.0488C105.44 19.377 105.271 19.8327 105.189 20.416C105.117 20.9902 105.08 21.6602 105.08 22.4258V24.9414ZM117.699 37.1777C116.46 37.1777 115.566 36.6992 115.02 35.7422C114.473 34.776 114.195 33.4408 114.186 31.7363V29.7402C114.186 28.8379 114.34 28.0905 114.65 27.498C114.96 26.8965 115.398 26.3952 115.963 25.9941C116.528 25.5931 117.193 25.2331 117.959 24.9141C118.725 24.5859 119.563 24.2396 120.475 23.875V22.2891C120.475 21.4141 120.447 20.7077 120.393 20.1699C120.338 19.623 120.197 19.222 119.969 18.9668C119.75 18.7116 119.395 18.584 118.902 18.584C118.419 18.584 118.055 18.7116 117.809 18.9668C117.572 19.222 117.417 19.623 117.344 20.1699C117.271 20.7168 117.234 21.4277 117.234 22.3027V23.0137H114.445V22.4258C114.445 21.5508 114.5 20.7396 114.609 19.9922C114.719 19.2357 114.928 18.5794 115.238 18.0234C115.548 17.4674 115.999 17.0345 116.592 16.7246C117.193 16.4056 117.982 16.2461 118.957 16.2461C119.887 16.2461 120.634 16.3965 121.199 16.6973C121.773 16.9889 122.211 17.4219 122.512 17.9961C122.822 18.5703 123.031 19.2812 123.141 20.1289C123.25 20.9674 123.305 21.9382 123.305 23.041V37H120.488V35.2227C120.406 35.4961 120.247 35.7878 120.01 36.0977C119.773 36.3984 119.463 36.6536 119.08 36.8633C118.697 37.0729 118.237 37.1777 117.699 37.1777ZM118.492 34.9082C118.984 34.9082 119.408 34.7533 119.764 34.4434C120.119 34.1243 120.356 33.8099 120.475 33.5V25.6934C119.773 26.0033 119.194 26.2858 118.738 26.541C118.292 26.7871 117.941 27.0469 117.686 27.3203C117.439 27.5938 117.266 27.9219 117.166 28.3047C117.066 28.6875 117.016 29.1706 117.016 29.7539V31.6543C117.016 32.8118 117.116 33.6458 117.316 34.1562C117.517 34.6576 117.909 34.9082 118.492 34.9082ZM126.982 37V16.4922H129.799V18.7754C130.036 17.9824 130.446 17.3626 131.029 16.916C131.622 16.4694 132.374 16.2461 133.285 16.2461C133.303 16.2461 133.312 16.3691 133.312 16.6152C133.322 16.8522 133.326 17.1257 133.326 17.4355C133.326 17.7454 133.326 18.0234 133.326 18.2695C133.326 18.5065 133.326 18.625 133.326 18.625C132.889 18.625 132.451 18.6797 132.014 18.7891C131.576 18.8893 131.166 19.0671 130.783 19.3223C130.4 19.5684 130.072 19.9056 129.799 20.334V37H126.982ZM140.025 37.2461C139.032 37.2461 138.23 37.0775 137.619 36.7402C137.018 36.403 136.557 35.9199 136.238 35.291C135.928 34.653 135.719 33.8965 135.609 33.0215C135.5 32.1374 135.445 31.1576 135.445 30.082V23.2188C135.445 21.8516 135.559 20.6439 135.787 19.5957C136.015 18.5475 136.462 17.7272 137.127 17.1348C137.792 16.5423 138.781 16.2461 140.094 16.2461C141.005 16.2461 141.739 16.3965 142.295 16.6973C142.86 16.998 143.288 17.431 143.58 17.9961C143.881 18.5612 144.081 19.2357 144.182 20.0195C144.291 20.8034 144.346 21.6738 144.346 22.6309V24.0527H141.584V22.248C141.584 21.4642 141.557 20.8079 141.502 20.2793C141.456 19.7415 141.329 19.3359 141.119 19.0625C140.91 18.7891 140.559 18.6523 140.066 18.6523C139.547 18.6523 139.16 18.8027 138.904 19.1035C138.649 19.3952 138.476 19.819 138.385 20.375C138.303 20.9219 138.262 21.5736 138.262 22.3301V31.0527C138.262 31.9004 138.298 32.6068 138.371 33.1719C138.444 33.7279 138.604 34.1471 138.85 34.4297C139.096 34.7031 139.474 34.8398 139.984 34.8398C140.477 34.8398 140.832 34.694 141.051 34.4023C141.279 34.1016 141.424 33.6732 141.488 33.1172C141.552 32.5521 141.584 31.8822 141.584 31.1074V29.125H144.346V30.4512C144.346 31.4629 144.296 32.3835 144.195 33.2129C144.095 34.0423 143.895 34.7578 143.594 35.3594C143.302 35.9609 142.869 36.4258 142.295 36.7539C141.721 37.082 140.964 37.2461 140.025 37.2461ZM147.736 37V12.6777H150.539V18.666C150.721 18.028 151.104 17.4629 151.688 16.9707C152.28 16.4785 152.986 16.2324 153.807 16.2324C154.837 16.2324 155.643 16.597 156.227 17.3262C156.81 18.0553 157.102 19.1628 157.102 20.6484V37H154.299V20.8809C154.299 20.0423 154.144 19.4635 153.834 19.1445C153.533 18.8164 153.128 18.6523 152.617 18.6523C152.243 18.6523 151.897 18.7435 151.578 18.9258C151.259 19.099 151.004 19.377 150.812 19.7598C150.63 20.1335 150.539 20.6211 150.539 21.2227V37H147.736Z" fill="#EBF0F4"/>
</svg>
