<svg width="194" height="50" viewBox="0 0 194 50" fill="none" xmlns="http://www.w3.org/2000/svg">
<rect x="1" y="1" width="192" height="48" rx="24" fill="#0C0C0C"/>
<rect x="1" y="1" width="192" height="48" rx="24" stroke="#9C4CFD" stroke-width="1.2"/>
<path d="M32.0664 37L28.0605 12.9375H30.7539L32.3535 23.123L33.7207 32.0781H33.7754L34.9648 23.123L36.3457 12.9375H39.0117L35.3613 37H32.0664ZM41.623 37V16.4922H44.4395V37H41.623ZM41.623 14.6055V12.0352H44.4395V14.6055H41.623ZM52.3008 37.2734C50.8424 37.2734 49.735 36.8177 48.9785 35.9062C48.222 34.9857 47.8438 33.4635 47.8438 31.3398V29.7949H50.5645V31.3262C50.5645 32.4746 50.6875 33.3542 50.9336 33.9648C51.1888 34.5755 51.6035 34.8809 52.1777 34.8809C52.752 34.8809 53.1712 34.694 53.4355 34.3203C53.709 33.9466 53.8457 33.2767 53.8457 32.3105C53.8457 31.8275 53.7728 31.349 53.627 30.875C53.4811 30.3919 53.2578 29.918 52.957 29.4531C52.6562 28.9792 52.2689 28.5189 51.7949 28.0723L50.3457 26.6914C49.4798 25.862 48.819 24.9824 48.3633 24.0527C47.9076 23.1139 47.6797 22.1204 47.6797 21.0723C47.6797 19.4134 48.0716 18.1966 48.8555 17.4219C49.6393 16.638 50.7194 16.2461 52.0957 16.2461C53.0163 16.2461 53.791 16.4466 54.4199 16.8477C55.0488 17.2487 55.5228 17.9141 55.8418 18.8438C56.1608 19.7734 56.3203 21.0404 56.3203 22.6445V23.6289H53.6543V22.207C53.6543 21.0586 53.5404 20.179 53.3125 19.5684C53.0938 18.9577 52.6973 18.6523 52.123 18.6523C51.5671 18.6523 51.1478 18.8164 50.8652 19.1445C50.5918 19.4635 50.4414 20.0514 50.4141 20.9082C50.4049 21.3457 50.4596 21.7878 50.5781 22.2344C50.7057 22.681 50.9108 23.123 51.1934 23.5605C51.4759 23.998 51.8405 24.4264 52.2871 24.8457L53.7637 26.2266C54.7207 27.1107 55.4408 28.0632 55.9238 29.084C56.416 30.0957 56.6621 31.1667 56.6621 32.2969C56.6621 33.8464 56.3066 35.0632 55.5957 35.9473C54.8939 36.8314 53.7956 37.2734 52.3008 37.2734ZM62.7461 37.2734C62.1354 37.2734 61.5703 37.123 61.0508 36.8223C60.5312 36.5215 60.112 36.0384 59.793 35.373C59.474 34.6986 59.3145 33.819 59.3145 32.7344V16.4922H62.1172V32.4199C62.1172 33.2129 62.2585 33.8145 62.541 34.2246C62.8236 34.6348 63.2702 34.8398 63.8809 34.8398C64.5553 34.8398 65.0521 34.6074 65.3711 34.1426C65.6992 33.6686 65.8633 33.0716 65.8633 32.3516V16.4922H68.6797V37H65.8633V34.9082C65.6628 35.5462 65.3027 36.1022 64.7832 36.5762C64.2637 37.041 63.5846 37.2734 62.7461 37.2734ZM75.6797 37.1777C74.4401 37.1777 73.5469 36.6992 73 35.7422C72.4531 34.776 72.1751 33.4408 72.166 31.7363V29.7402C72.166 28.8379 72.321 28.0905 72.6309 27.498C72.9408 26.8965 73.3783 26.3952 73.9434 25.9941C74.5085 25.5931 75.1738 25.2331 75.9395 24.9141C76.7051 24.5859 77.5436 24.2396 78.4551 23.875V22.2891C78.4551 21.4141 78.4277 20.7077 78.373 20.1699C78.3184 19.623 78.1771 19.222 77.9492 18.9668C77.7305 18.7116 77.375 18.584 76.8828 18.584C76.3997 18.584 76.0352 18.7116 75.7891 18.9668C75.5521 19.222 75.3971 19.623 75.3242 20.1699C75.2513 20.7168 75.2148 21.4277 75.2148 22.3027V23.0137H72.4258V22.4258C72.4258 21.5508 72.4805 20.7396 72.5898 19.9922C72.6992 19.2357 72.9089 18.5794 73.2188 18.0234C73.5286 17.4674 73.9798 17.0345 74.5723 16.7246C75.1738 16.4056 75.9622 16.2461 76.9375 16.2461C77.8672 16.2461 78.6146 16.3965 79.1797 16.6973C79.7539 16.9889 80.1914 17.4219 80.4922 17.9961C80.8021 18.5703 81.0117 19.2812 81.1211 20.1289C81.2305 20.9674 81.2852 21.9382 81.2852 23.041V37H78.4688V35.2227C78.3867 35.4961 78.2272 35.7878 77.9902 36.0977C77.7533 36.3984 77.4434 36.6536 77.0605 36.8633C76.6777 37.0729 76.2174 37.1777 75.6797 37.1777ZM76.4727 34.9082C76.9648 34.9082 77.3887 34.7533 77.7441 34.4434C78.0996 34.1243 78.3366 33.8099 78.4551 33.5V25.6934C77.7533 26.0033 77.1745 26.2858 76.7188 26.541C76.2721 26.7871 75.9212 27.0469 75.666 27.3203C75.4199 27.5938 75.2467 27.9219 75.1465 28.3047C75.0462 28.6875 74.9961 29.1706 74.9961 29.7539V31.6543C74.9961 32.8118 75.0964 33.6458 75.2969 34.1562C75.4974 34.6576 75.8893 34.9082 76.4727 34.9082ZM84.9629 37V12.6777H87.7656V37H84.9629ZM98.5664 37V12.9375H103.092C104.35 12.9375 105.329 13.2018 106.031 13.7305C106.733 14.25 107.225 14.9974 107.508 15.9727C107.79 16.9479 107.932 18.1146 107.932 19.4727L107.945 30.041C107.945 31.6634 107.781 32.9896 107.453 34.0195C107.134 35.0404 106.61 35.7923 105.881 36.2754C105.161 36.7585 104.199 37 102.996 37H98.5664ZM101.383 34.7168H102.832C103.342 34.7168 103.766 34.6074 104.104 34.3887C104.441 34.1608 104.691 33.7415 104.855 33.1309C105.029 32.5202 105.115 31.6361 105.115 30.4785V19.4043C105.115 17.8913 104.938 16.8112 104.582 16.1641C104.227 15.5078 103.643 15.1797 102.832 15.1797H101.383V34.7168ZM115.848 37.2461C114.863 37.2461 114.07 37.0775 113.469 36.7402C112.876 36.3939 112.425 35.9062 112.115 35.2773C111.805 34.6484 111.596 33.8965 111.486 33.0215C111.386 32.1374 111.336 31.1621 111.336 30.0957V22.8496C111.336 21.8835 111.404 20.9993 111.541 20.1973C111.678 19.3861 111.915 18.6888 112.252 18.1055C112.589 17.513 113.059 17.0573 113.66 16.7383C114.262 16.4102 115.027 16.2461 115.957 16.2461C116.896 16.2461 117.652 16.4102 118.227 16.7383C118.801 17.0664 119.234 17.5312 119.525 18.1328C119.826 18.7253 120.027 19.4362 120.127 20.2656C120.227 21.0859 120.277 21.9883 120.277 22.9727V26.8418H114.152V30.9297C114.152 32.224 114.239 33.2129 114.412 33.8965C114.594 34.571 115.082 34.9082 115.875 34.9082C116.395 34.9082 116.764 34.7487 116.982 34.4297C117.21 34.1016 117.347 33.6458 117.393 33.0625C117.447 32.4701 117.475 31.7728 117.475 30.9707V29.3164H120.223V30.1914C120.223 31.2578 120.177 32.224 120.086 33.0898C120.004 33.9557 119.822 34.6986 119.539 35.3184C119.257 35.9382 118.819 36.4167 118.227 36.7539C117.643 37.082 116.85 37.2461 115.848 37.2461ZM114.139 24.9414H117.475V22.3301C117.475 21.5098 117.447 20.8216 117.393 20.2656C117.338 19.7005 117.206 19.2767 116.996 18.9941C116.786 18.7025 116.44 18.5566 115.957 18.5566C115.419 18.5566 115.018 18.7207 114.754 19.0488C114.499 19.377 114.33 19.8327 114.248 20.416C114.175 20.9902 114.139 21.6602 114.139 22.4258V24.9414ZM127.523 37.2734C126.065 37.2734 124.958 36.8177 124.201 35.9062C123.445 34.9857 123.066 33.4635 123.066 31.3398V29.7949H125.787V31.3262C125.787 32.4746 125.91 33.3542 126.156 33.9648C126.411 34.5755 126.826 34.8809 127.4 34.8809C127.975 34.8809 128.394 34.694 128.658 34.3203C128.932 33.9466 129.068 33.2767 129.068 32.3105C129.068 31.8275 128.995 31.349 128.85 30.875C128.704 30.3919 128.48 29.918 128.18 29.4531C127.879 28.9792 127.492 28.5189 127.018 28.0723L125.568 26.6914C124.702 25.862 124.042 24.9824 123.586 24.0527C123.13 23.1139 122.902 22.1204 122.902 21.0723C122.902 19.4134 123.294 18.1966 124.078 17.4219C124.862 16.638 125.942 16.2461 127.318 16.2461C128.239 16.2461 129.014 16.4466 129.643 16.8477C130.271 17.2487 130.745 17.9141 131.064 18.8438C131.383 19.7734 131.543 21.0404 131.543 22.6445V23.6289H128.877V22.207C128.877 21.0586 128.763 20.179 128.535 19.5684C128.316 18.9577 127.92 18.6523 127.346 18.6523C126.79 18.6523 126.37 18.8164 126.088 19.1445C125.814 19.4635 125.664 20.0514 125.637 20.9082C125.628 21.3457 125.682 21.7878 125.801 22.2344C125.928 22.681 126.133 23.123 126.416 23.5605C126.699 23.998 127.063 24.4264 127.51 24.8457L128.986 26.2266C129.943 27.1107 130.663 28.0632 131.146 29.084C131.639 30.0957 131.885 31.1667 131.885 32.2969C131.885 33.8464 131.529 35.0632 130.818 35.9473C130.117 36.8314 129.018 37.2734 127.523 37.2734ZM134.729 37V16.4922H137.545V37H134.729ZM134.729 14.6055V12.0352H137.545V14.6055H134.729ZM145.68 40.1309C144.741 40.1582 143.893 40.0534 143.137 39.8164C142.389 39.5794 141.747 39.2467 141.209 38.8184L142.221 36.9043C142.622 37.1777 143.096 37.4193 143.643 37.6289C144.189 37.8385 144.823 37.9342 145.543 37.916C146.181 37.8978 146.673 37.6562 147.02 37.1914C147.375 36.7357 147.553 36.1204 147.553 35.3457V33.3906C147.288 34.0651 146.924 34.5163 146.459 34.7441C145.994 34.972 145.465 35.0859 144.873 35.0859C143.916 35.0859 143.173 34.8079 142.645 34.252C142.125 33.696 141.76 32.9349 141.551 31.9688C141.35 31.0026 141.25 29.9089 141.25 28.6875V22.8086C141.25 21.5599 141.368 20.4388 141.605 19.4453C141.852 18.4518 142.257 17.668 142.822 17.0938C143.387 16.5104 144.153 16.2279 145.119 16.2461C145.702 16.2552 146.204 16.401 146.623 16.6836C147.051 16.9661 147.361 17.4036 147.553 17.9961V16.4922H150.355V35.0859C150.355 35.6693 150.283 36.2526 150.137 36.8359C150 37.4193 149.758 37.9525 149.412 38.4355C149.075 38.9277 148.601 39.3242 147.99 39.625C147.389 39.9349 146.618 40.1035 145.68 40.1309ZM145.953 32.8574C146.318 32.8574 146.618 32.748 146.855 32.5293C147.092 32.3105 147.266 31.9049 147.375 31.3125C147.493 30.7109 147.553 29.8496 147.553 28.7285V22.3984C147.553 21.1497 147.439 20.2018 147.211 19.5547C146.992 18.9076 146.527 18.584 145.816 18.584C145.297 18.584 144.91 18.748 144.654 19.0762C144.408 19.3952 144.249 19.8372 144.176 20.4023C144.103 20.9674 144.066 21.6237 144.066 22.3711V28.7559C144.066 30.1139 144.189 31.1393 144.436 31.832C144.682 32.5156 145.188 32.8574 145.953 32.8574ZM154.252 37V16.4922H157.055V18.666C157.237 18.028 157.624 17.4629 158.217 16.9707C158.818 16.4785 159.534 16.2324 160.363 16.2324C161.393 16.2324 162.195 16.597 162.77 17.3262C163.344 18.0553 163.631 19.1628 163.631 20.6484V37H160.828V20.6621C160.828 19.9329 160.664 19.4043 160.336 19.0762C160.008 18.748 159.589 18.584 159.078 18.584C158.704 18.584 158.363 18.666 158.053 18.8301C157.743 18.9941 157.497 19.2493 157.314 19.5957C157.141 19.9421 157.055 20.3887 157.055 20.9355V37H154.252Z" fill="#EBF0F4"/>
</svg>
