<svg width="194" height="50" viewBox="0 0 194 50" fill="none" xmlns="http://www.w3.org/2000/svg">
<rect x="1" y="1" width="192" height="48" rx="24" fill="#0C0C0C"/>
<rect x="1" y="1" width="192" height="48" rx="24" stroke="#9C4CFD" stroke-width="1.2"/>
<path d="M43.3516 37.2734C42.3763 37.2734 41.5833 37.1003 40.9727 36.7539C40.362 36.3984 39.8926 35.8971 39.5645 35.25C39.2363 34.6029 39.0085 33.8418 38.8809 32.9668C38.7624 32.0827 38.7031 31.1074 38.7031 30.041V27.7031H41.4512V30.1504C41.4512 31.8366 41.5697 33.0443 41.8066 33.7734C42.0527 34.4935 42.5768 34.8535 43.3789 34.8535C43.9349 34.8535 44.3405 34.7259 44.5957 34.4707C44.86 34.2064 45.0286 33.7871 45.1016 33.2129C45.1745 32.6387 45.2109 31.8822 45.2109 30.9434C45.2109 29.8678 45.0195 28.9427 44.6367 28.168C44.263 27.3932 43.7207 26.6504 43.0098 25.9395L41.4375 24.3672C40.9818 23.9023 40.5352 23.3965 40.0977 22.8496C39.6602 22.2936 39.2956 21.6647 39.0039 20.9629C38.7214 20.2611 38.5801 19.459 38.5801 18.5566C38.5801 17.3444 38.7077 16.2962 38.9629 15.4121C39.2181 14.528 39.6829 13.8444 40.3574 13.3613C41.0319 12.8783 41.9889 12.6367 43.2285 12.6367C44.2038 12.6367 44.9831 12.8053 45.5664 13.1426C46.1589 13.4798 46.6009 13.9629 46.8926 14.5918C47.1934 15.2116 47.3893 15.9499 47.4805 16.8066C47.5807 17.6634 47.6309 18.6113 47.6309 19.6504V21.0723H44.9238V19.459C44.9238 18.4837 44.8828 17.6725 44.8008 17.0254C44.7279 16.3691 44.5729 15.877 44.3359 15.5488C44.099 15.2207 43.7298 15.0566 43.2285 15.0566C42.7728 15.0566 42.3991 15.1706 42.1074 15.3984C41.8249 15.6172 41.6198 15.959 41.4922 16.4238C41.3646 16.8887 41.3008 17.4857 41.3008 18.2148C41.3008 18.8529 41.3783 19.3815 41.5332 19.8008C41.6882 20.2109 41.9206 20.5938 42.2305 20.9492C42.5495 21.3047 42.9368 21.724 43.3926 22.207L45.0332 23.9434C45.8991 24.8457 46.6055 25.8574 47.1523 26.9785C47.7083 28.0905 47.9863 29.3848 47.9863 30.8613C47.9863 32.1921 47.8542 33.3359 47.5898 34.293C47.3346 35.25 46.8743 35.9883 46.209 36.5078C45.5436 37.0182 44.5911 37.2734 43.3516 37.2734ZM54.3984 37.123C53.5234 37.123 52.8626 37.0182 52.416 36.8086C51.9694 36.599 51.6686 36.2617 51.5137 35.7969C51.3587 35.332 51.2812 34.7168 51.2812 33.9512V18.7344H49.4082V16.6562H51.2812V12.9375H54.084V16.6562H56.2988V18.7344H54.084V33.7051C54.084 34.0514 54.1296 34.3112 54.2207 34.4844C54.3118 34.6484 54.5169 34.7578 54.8359 34.8125C55.1549 34.8672 55.6517 34.8945 56.3262 34.8945V37.123H54.3984ZM63.2441 37.2461C62.278 37.2461 61.4941 37.082 60.8926 36.7539C60.291 36.4167 59.8262 35.9427 59.498 35.332C59.179 34.7122 58.9603 33.974 58.8418 33.1172C58.7233 32.2513 58.6641 31.2852 58.6641 30.2188V22.959C58.6641 21.6738 58.7871 20.5254 59.0332 19.5137C59.2793 18.502 59.7305 17.7044 60.3867 17.1211C61.0521 16.5378 62.0046 16.2461 63.2441 16.2461C64.1738 16.2461 64.9349 16.4147 65.5273 16.752C66.1198 17.0801 66.5801 17.5495 66.9082 18.1602C67.2363 18.7617 67.4596 19.4727 67.5781 20.293C67.7057 21.1042 67.7695 21.9928 67.7695 22.959V30.2188C67.7695 31.2669 67.7148 32.2194 67.6055 33.0762C67.4961 33.9329 67.2819 34.6758 66.9629 35.3047C66.653 35.9245 66.1973 36.403 65.5957 36.7402C65.0033 37.0775 64.2194 37.2461 63.2441 37.2461ZM63.2441 34.9082C63.7363 34.9082 64.1009 34.7441 64.3379 34.416C64.584 34.0879 64.748 33.6322 64.8301 33.0488C64.9121 32.4564 64.9531 31.7728 64.9531 30.998V22.3984C64.9531 21.6328 64.9121 20.9674 64.8301 20.4023C64.748 19.8281 64.584 19.3815 64.3379 19.0625C64.0918 18.7435 63.7272 18.584 63.2441 18.584C62.7337 18.584 62.3509 18.7435 62.0957 19.0625C61.8405 19.3815 61.6719 19.8281 61.5898 20.4023C61.5169 20.9674 61.4805 21.6328 61.4805 22.3984V30.998C61.4805 31.7728 61.5169 32.4564 61.5898 33.0488C61.6719 33.6322 61.8405 34.0879 62.0957 34.416C62.3509 34.7441 62.7337 34.9082 63.2441 34.9082ZM71.4746 37V16.4922H74.291V18.7754C74.528 17.9824 74.9382 17.3626 75.5215 16.916C76.1139 16.4694 76.8659 16.2461 77.7773 16.2461C77.7956 16.2461 77.8047 16.3691 77.8047 16.6152C77.8138 16.8522 77.8184 17.1257 77.8184 17.4355C77.8184 17.7454 77.8184 18.0234 77.8184 18.2695C77.8184 18.5065 77.8184 18.625 77.8184 18.625C77.3809 18.625 76.9434 18.6797 76.5059 18.7891C76.0684 18.8893 75.6582 19.0671 75.2754 19.3223C74.8926 19.5684 74.5645 19.9056 74.291 20.334V37H71.4746ZM79.6641 40.4316V38.3125H80.6348C81.0358 38.3125 81.3822 38.2897 81.6738 38.2441C81.9746 38.2077 82.1569 38.1211 82.2207 37.9844C82.3301 37.8385 82.3711 37.6061 82.3438 37.2871C82.3255 36.9772 82.2891 36.64 82.2344 36.2754L78.8848 16.4922H81.6055L83.082 27.1562L83.6836 32.707H83.9297L84.4629 27.1562L85.8027 16.4922H88.5098L85.1055 37.3965C84.9961 38.1348 84.8594 38.7272 84.6953 39.1738C84.5312 39.6204 84.276 39.9395 83.9297 40.1309C83.5924 40.3314 83.0866 40.4316 82.4121 40.4316H79.6641ZM94.5664 37.123C93.6914 37.123 93.0306 37.0182 92.584 36.8086C92.1374 36.599 91.8366 36.2617 91.6816 35.7969C91.5267 35.332 91.4492 34.7168 91.4492 33.9512V18.7344H89.5762V16.6562H91.4492V12.9375H94.252V16.6562H96.4668V18.7344H94.252V33.7051C94.252 34.0514 94.2975 34.3112 94.3887 34.4844C94.4798 34.6484 94.6849 34.7578 95.0039 34.8125C95.3229 34.8672 95.8197 34.8945 96.4941 34.8945V37.123H94.5664ZM103.344 37.2461C102.359 37.2461 101.566 37.0775 100.965 36.7402C100.372 36.3939 99.9212 35.9062 99.6113 35.2773C99.3014 34.6484 99.0918 33.8965 98.9824 33.0215C98.8822 32.1374 98.832 31.1621 98.832 30.0957V22.8496C98.832 21.8835 98.9004 20.9993 99.0371 20.1973C99.1738 19.3861 99.4108 18.6888 99.748 18.1055C100.085 17.513 100.555 17.0573 101.156 16.7383C101.758 16.4102 102.523 16.2461 103.453 16.2461C104.392 16.2461 105.148 16.4102 105.723 16.7383C106.297 17.0664 106.73 17.5312 107.021 18.1328C107.322 18.7253 107.523 19.4362 107.623 20.2656C107.723 21.0859 107.773 21.9883 107.773 22.9727V26.8418H101.648V30.9297C101.648 32.224 101.735 33.2129 101.908 33.8965C102.09 34.571 102.578 34.9082 103.371 34.9082C103.891 34.9082 104.26 34.7487 104.479 34.4297C104.706 34.1016 104.843 33.6458 104.889 33.0625C104.943 32.4701 104.971 31.7728 104.971 30.9707V29.3164H107.719V30.1914C107.719 31.2578 107.673 32.224 107.582 33.0898C107.5 33.9557 107.318 34.6986 107.035 35.3184C106.753 35.9382 106.315 36.4167 105.723 36.7539C105.139 37.082 104.346 37.2461 103.344 37.2461ZM101.635 24.9414H104.971V22.3301C104.971 21.5098 104.943 20.8216 104.889 20.2656C104.834 19.7005 104.702 19.2767 104.492 18.9941C104.283 18.7025 103.936 18.5566 103.453 18.5566C102.915 18.5566 102.514 18.7207 102.25 19.0488C101.995 19.377 101.826 19.8327 101.744 20.416C101.671 20.9902 101.635 21.6602 101.635 22.4258V24.9414ZM111.205 37V12.6777H114.008V37H111.205ZM118.096 37V12.6777H120.898V37H118.096ZM125.014 37V16.4922H127.83V37H125.014ZM125.014 14.6055V12.0352H127.83V14.6055H125.014ZM131.822 37V16.4922H134.625V18.666C134.807 18.028 135.195 17.4629 135.787 16.9707C136.389 16.4785 137.104 16.2324 137.934 16.2324C138.964 16.2324 139.766 16.597 140.34 17.3262C140.914 18.0553 141.201 19.1628 141.201 20.6484V37H138.398V20.6621C138.398 19.9329 138.234 19.4043 137.906 19.0762C137.578 18.748 137.159 18.584 136.648 18.584C136.275 18.584 135.933 18.666 135.623 18.8301C135.313 18.9941 135.067 19.2493 134.885 19.5957C134.712 19.9421 134.625 20.3887 134.625 20.9355V37H131.822ZM149.199 40.1309C148.26 40.1582 147.413 40.0534 146.656 39.8164C145.909 39.5794 145.266 39.2467 144.729 38.8184L145.74 36.9043C146.141 37.1777 146.615 37.4193 147.162 37.6289C147.709 37.8385 148.342 37.9342 149.062 37.916C149.701 37.8978 150.193 37.6562 150.539 37.1914C150.895 36.7357 151.072 36.1204 151.072 35.3457V33.3906C150.808 34.0651 150.443 34.5163 149.979 34.7441C149.514 34.972 148.985 35.0859 148.393 35.0859C147.436 35.0859 146.693 34.8079 146.164 34.252C145.645 33.696 145.28 32.9349 145.07 31.9688C144.87 31.0026 144.77 29.9089 144.77 28.6875V22.8086C144.77 21.5599 144.888 20.4388 145.125 19.4453C145.371 18.4518 145.777 17.668 146.342 17.0938C146.907 16.5104 147.673 16.2279 148.639 16.2461C149.222 16.2552 149.723 16.401 150.143 16.6836C150.571 16.9661 150.881 17.4036 151.072 17.9961V16.4922H153.875V35.0859C153.875 35.6693 153.802 36.2526 153.656 36.8359C153.52 37.4193 153.278 37.9525 152.932 38.4355C152.594 38.9277 152.12 39.3242 151.51 39.625C150.908 39.9349 150.138 40.1035 149.199 40.1309ZM149.473 32.8574C149.837 32.8574 150.138 32.748 150.375 32.5293C150.612 32.3105 150.785 31.9049 150.895 31.3125C151.013 30.7109 151.072 29.8496 151.072 28.7285V22.3984C151.072 21.1497 150.958 20.2018 150.73 19.5547C150.512 18.9076 150.047 18.584 149.336 18.584C148.816 18.584 148.429 18.748 148.174 19.0762C147.928 19.3952 147.768 19.8372 147.695 20.4023C147.622 20.9674 147.586 21.6237 147.586 22.3711V28.7559C147.586 30.1139 147.709 31.1393 147.955 31.832C148.201 32.5156 148.707 32.8574 149.473 32.8574Z" fill="#EBF0F4"/>
</svg>
