<svg width="194" height="50" viewBox="0 0 194 50" fill="none" xmlns="http://www.w3.org/2000/svg">
<rect x="1" y="1" width="192" height="48" rx="24" fill="#0C0C0C"/>
<rect x="1" y="1" width="192" height="48" rx="24" stroke="#9C4CFD" stroke-width="1.2"/>
<path d="M44.4688 37V12.9375H47.2988V37H44.4688ZM51.2363 37V16.4922H54.0391V18.666C54.2214 18.028 54.6087 17.4629 55.2012 16.9707C55.8027 16.4785 56.5182 16.2324 57.3477 16.2324C58.3776 16.2324 59.1797 16.597 59.7539 17.3262C60.3281 18.0553 60.6152 19.1628 60.6152 20.6484V37H57.8125V20.6621C57.8125 19.9329 57.6484 19.4043 57.3203 19.0762C56.9922 18.748 56.5729 18.584 56.0625 18.584C55.6888 18.584 55.347 18.666 55.0371 18.8301C54.7272 18.9941 54.4811 19.2493 54.2988 19.5957C54.1257 19.9421 54.0391 20.3887 54.0391 20.9355V37H51.2363ZM65.2773 37V19.3496H63.5137V17.2852H65.2773V16.2871C65.2773 15.1022 65.528 14.1908 66.0293 13.5527C66.5397 12.9056 67.3464 12.582 68.4492 12.582C68.987 12.582 69.4518 12.6276 69.8438 12.7188C70.2357 12.8008 70.4499 12.8509 70.4863 12.8691V14.8242C70.1217 14.7695 69.7982 14.7422 69.5156 14.7422C68.9049 14.7422 68.513 14.8698 68.3398 15.125C68.1667 15.3802 68.0801 15.7311 68.0801 16.1777V17.2852H70.4863V19.3496H68.0801V37H65.2773ZM77.4316 37.2461C76.4655 37.2461 75.6816 37.082 75.0801 36.7539C74.4785 36.4167 74.0137 35.9427 73.6855 35.332C73.3665 34.7122 73.1478 33.974 73.0293 33.1172C72.9108 32.2513 72.8516 31.2852 72.8516 30.2188V22.959C72.8516 21.6738 72.9746 20.5254 73.2207 19.5137C73.4668 18.502 73.918 17.7044 74.5742 17.1211C75.2396 16.5378 76.1921 16.2461 77.4316 16.2461C78.3613 16.2461 79.1224 16.4147 79.7148 16.752C80.3073 17.0801 80.7676 17.5495 81.0957 18.1602C81.4238 18.7617 81.6471 19.4727 81.7656 20.293C81.8932 21.1042 81.957 21.9928 81.957 22.959V30.2188C81.957 31.2669 81.9023 32.2194 81.793 33.0762C81.6836 33.9329 81.4694 34.6758 81.1504 35.3047C80.8405 35.9245 80.3848 36.403 79.7832 36.7402C79.1908 37.0775 78.4069 37.2461 77.4316 37.2461ZM77.4316 34.9082C77.9238 34.9082 78.2884 34.7441 78.5254 34.416C78.7715 34.0879 78.9355 33.6322 79.0176 33.0488C79.0996 32.4564 79.1406 31.7728 79.1406 30.998V22.3984C79.1406 21.6328 79.0996 20.9674 79.0176 20.4023C78.9355 19.8281 78.7715 19.3815 78.5254 19.0625C78.2793 18.7435 77.9147 18.584 77.4316 18.584C76.9212 18.584 76.5384 18.7435 76.2832 19.0625C76.028 19.3815 75.8594 19.8281 75.7773 20.4023C75.7044 20.9674 75.668 21.6328 75.668 22.3984V30.998C75.668 31.7728 75.7044 32.4564 75.7773 33.0488C75.8594 33.6322 76.028 34.0879 76.2832 34.416C76.5384 34.7441 76.9212 34.9082 77.4316 34.9082ZM85.9902 37V34.293H88.3828V37H85.9902ZM98.3633 37L102.014 12.9375H105.418L109.396 37H106.73L106.047 32.4062H101.686L101.057 37H98.3633ZM102 30.1094H105.691L103.791 17.3945H103.75L102 30.1094ZM112.104 37V16.4922H114.92V18.7754C115.157 17.9824 115.567 17.3626 116.15 16.916C116.743 16.4694 117.495 16.2461 118.406 16.2461C118.424 16.2461 118.434 16.3691 118.434 16.6152C118.443 16.8522 118.447 17.1257 118.447 17.4355C118.447 17.7454 118.447 18.0234 118.447 18.2695C118.447 18.5065 118.447 18.625 118.447 18.625C118.01 18.625 117.572 18.6797 117.135 18.7891C116.697 18.8893 116.287 19.0671 115.904 19.3223C115.521 19.5684 115.193 19.9056 114.92 20.334V37H112.104ZM125.146 37.2461C124.153 37.2461 123.351 37.0775 122.74 36.7402C122.139 36.403 121.678 35.9199 121.359 35.291C121.049 34.653 120.84 33.8965 120.73 33.0215C120.621 32.1374 120.566 31.1576 120.566 30.082V23.2188C120.566 21.8516 120.68 20.6439 120.908 19.5957C121.136 18.5475 121.583 17.7272 122.248 17.1348C122.913 16.5423 123.902 16.2461 125.215 16.2461C126.126 16.2461 126.86 16.3965 127.416 16.6973C127.981 16.998 128.41 17.431 128.701 17.9961C129.002 18.5612 129.202 19.2357 129.303 20.0195C129.412 20.8034 129.467 21.6738 129.467 22.6309V24.0527H126.705V22.248C126.705 21.4642 126.678 20.8079 126.623 20.2793C126.577 19.7415 126.45 19.3359 126.24 19.0625C126.031 18.7891 125.68 18.6523 125.188 18.6523C124.668 18.6523 124.281 18.8027 124.025 19.1035C123.77 19.3952 123.597 19.819 123.506 20.375C123.424 20.9219 123.383 21.5736 123.383 22.3301V31.0527C123.383 31.9004 123.419 32.6068 123.492 33.1719C123.565 33.7279 123.725 34.1471 123.971 34.4297C124.217 34.7031 124.595 34.8398 125.105 34.8398C125.598 34.8398 125.953 34.694 126.172 34.4023C126.4 34.1016 126.546 33.6732 126.609 33.1172C126.673 32.5521 126.705 31.8822 126.705 31.1074V29.125H129.467V30.4512C129.467 31.4629 129.417 32.3835 129.316 33.2129C129.216 34.0423 129.016 34.7578 128.715 35.3594C128.423 35.9609 127.99 36.4258 127.416 36.7539C126.842 37.082 126.085 37.2461 125.146 37.2461ZM132.857 37V12.6777H135.66V18.666C135.842 18.028 136.225 17.4629 136.809 16.9707C137.401 16.4785 138.107 16.2324 138.928 16.2324C139.958 16.2324 140.764 16.597 141.348 17.3262C141.931 18.0553 142.223 19.1628 142.223 20.6484V37H139.42V20.8809C139.42 20.0423 139.265 19.4635 138.955 19.1445C138.654 18.8164 138.249 18.6523 137.738 18.6523C137.365 18.6523 137.018 18.7435 136.699 18.9258C136.38 19.099 136.125 19.377 135.934 19.7598C135.751 20.1335 135.66 20.6211 135.66 21.2227V37H132.857ZM146.475 37V34.293H148.867V37H146.475Z" fill="#EBF0F4"/>
</svg>
