<svg width="194" height="50" viewBox="0 0 194 50" fill="none" xmlns="http://www.w3.org/2000/svg">
<rect x="1" y="1" width="192" height="48" rx="24" fill="#0C0C0C"/>
<rect x="1" y="1" width="192" height="48" rx="24" stroke="#9C4CFD" stroke-width="1.2"/>
<path d="M41.4688 37V12.9375H44.2988V37H41.4688ZM48.291 37V12.6777H51.0938V37H48.291ZM55.1816 37V12.6777H57.9844V37H55.1816ZM65.3398 37.2734C64.7292 37.2734 64.1641 37.123 63.6445 36.8223C63.125 36.5215 62.7057 36.0384 62.3867 35.373C62.0677 34.6986 61.9082 33.819 61.9082 32.7344V16.4922H64.7109V32.4199C64.7109 33.2129 64.8522 33.8145 65.1348 34.2246C65.4173 34.6348 65.8639 34.8398 66.4746 34.8398C67.1491 34.8398 67.6458 34.6074 67.9648 34.1426C68.293 33.6686 68.457 33.0716 68.457 32.3516V16.4922H71.2734V37H68.457V34.9082C68.2565 35.5462 67.8965 36.1022 67.377 36.5762C66.8574 37.041 66.1784 37.2734 65.3398 37.2734ZM79.0391 37.2734C77.5807 37.2734 76.4733 36.8177 75.7168 35.9062C74.9603 34.9857 74.582 33.4635 74.582 31.3398V29.7949H77.3027V31.3262C77.3027 32.4746 77.4258 33.3542 77.6719 33.9648C77.9271 34.5755 78.3418 34.8809 78.916 34.8809C79.4902 34.8809 79.9095 34.694 80.1738 34.3203C80.4473 33.9466 80.584 33.2767 80.584 32.3105C80.584 31.8275 80.5111 31.349 80.3652 30.875C80.2194 30.3919 79.9961 29.918 79.6953 29.4531C79.3945 28.9792 79.0072 28.5189 78.5332 28.0723L77.084 26.6914C76.2181 25.862 75.5573 24.9824 75.1016 24.0527C74.6458 23.1139 74.418 22.1204 74.418 21.0723C74.418 19.4134 74.8099 18.1966 75.5938 17.4219C76.3776 16.638 77.4577 16.2461 78.834 16.2461C79.7546 16.2461 80.5293 16.4466 81.1582 16.8477C81.7871 17.2487 82.2611 17.9141 82.5801 18.8438C82.8991 19.7734 83.0586 21.0404 83.0586 22.6445V23.6289H80.3926V22.207C80.3926 21.0586 80.2786 20.179 80.0508 19.5684C79.832 18.9577 79.4355 18.6523 78.8613 18.6523C78.3053 18.6523 77.8861 18.8164 77.6035 19.1445C77.3301 19.4635 77.1797 20.0514 77.1523 20.9082C77.1432 21.3457 77.1979 21.7878 77.3164 22.2344C77.444 22.681 77.6491 23.123 77.9316 23.5605C78.2142 23.998 78.5788 24.4264 79.0254 24.8457L80.502 26.2266C81.459 27.1107 82.179 28.0632 82.6621 29.084C83.1543 30.0957 83.4004 31.1667 83.4004 32.2969C83.4004 33.8464 83.0449 35.0632 82.334 35.9473C81.6322 36.8314 80.5339 37.2734 79.0391 37.2734ZM89.7852 37.123C88.9102 37.123 88.2493 37.0182 87.8027 36.8086C87.3561 36.599 87.0553 36.2617 86.9004 35.7969C86.7454 35.332 86.668 34.7168 86.668 33.9512V18.7344H84.7949V16.6562H86.668V12.9375H89.4707V16.6562H91.6855V18.7344H89.4707V33.7051C89.4707 34.0514 89.5163 34.3112 89.6074 34.4844C89.6986 34.6484 89.9036 34.7578 90.2227 34.8125C90.5417 34.8672 91.0384 34.8945 91.7129 34.8945V37.123H89.7852ZM94.3652 37V16.4922H97.1816V18.7754C97.4186 17.9824 97.8288 17.3626 98.4121 16.916C99.0046 16.4694 99.7565 16.2461 100.668 16.2461C100.686 16.2461 100.695 16.3691 100.695 16.6152C100.704 16.8522 100.709 17.1257 100.709 17.4355C100.709 17.7454 100.709 18.0234 100.709 18.2695C100.709 18.5065 100.709 18.625 100.709 18.625C100.271 18.625 99.834 18.6797 99.3965 18.7891C98.959 18.8893 98.5488 19.0671 98.166 19.3223C97.7832 19.5684 97.4551 19.9056 97.1816 20.334V37H94.3652ZM106.191 37.1777C104.952 37.1777 104.059 36.6992 103.512 35.7422C102.965 34.776 102.687 33.4408 102.678 31.7363V29.7402C102.678 28.8379 102.833 28.0905 103.143 27.498C103.452 26.8965 103.89 26.3952 104.455 25.9941C105.02 25.5931 105.686 25.2331 106.451 24.9141C107.217 24.5859 108.055 24.2396 108.967 23.875V22.2891C108.967 21.4141 108.939 20.7077 108.885 20.1699C108.83 19.623 108.689 19.222 108.461 18.9668C108.242 18.7116 107.887 18.584 107.395 18.584C106.911 18.584 106.547 18.7116 106.301 18.9668C106.064 19.222 105.909 19.623 105.836 20.1699C105.763 20.7168 105.727 21.4277 105.727 22.3027V23.0137H102.938V22.4258C102.938 21.5508 102.992 20.7396 103.102 19.9922C103.211 19.2357 103.421 18.5794 103.73 18.0234C104.04 17.4674 104.492 17.0345 105.084 16.7246C105.686 16.4056 106.474 16.2461 107.449 16.2461C108.379 16.2461 109.126 16.3965 109.691 16.6973C110.266 16.9889 110.703 17.4219 111.004 17.9961C111.314 18.5703 111.523 19.2812 111.633 20.1289C111.742 20.9674 111.797 21.9382 111.797 23.041V37H108.98V35.2227C108.898 35.4961 108.739 35.7878 108.502 36.0977C108.265 36.3984 107.955 36.6536 107.572 36.8633C107.189 37.0729 106.729 37.1777 106.191 37.1777ZM106.984 34.9082C107.477 34.9082 107.9 34.7533 108.256 34.4434C108.611 34.1243 108.848 33.8099 108.967 33.5V25.6934C108.265 26.0033 107.686 26.2858 107.23 26.541C106.784 26.7871 106.433 27.0469 106.178 27.3203C105.932 27.5938 105.758 27.9219 105.658 28.3047C105.558 28.6875 105.508 29.1706 105.508 29.7539V31.6543C105.508 32.8118 105.608 33.6458 105.809 34.1562C106.009 34.6576 106.401 34.9082 106.984 34.9082ZM119.043 37.123C118.168 37.123 117.507 37.0182 117.061 36.8086C116.614 36.599 116.313 36.2617 116.158 35.7969C116.003 35.332 115.926 34.7168 115.926 33.9512V18.7344H114.053V16.6562H115.926V12.9375H118.729V16.6562H120.943V18.7344H118.729V33.7051C118.729 34.0514 118.774 34.3112 118.865 34.4844C118.956 34.6484 119.161 34.7578 119.48 34.8125C119.799 34.8672 120.296 34.8945 120.971 34.8945V37.123H119.043ZM123.65 37V16.4922H126.467V37H123.65ZM123.65 14.6055V12.0352H126.467V14.6055H123.65ZM134.779 37.2461C133.813 37.2461 133.029 37.082 132.428 36.7539C131.826 36.4167 131.361 35.9427 131.033 35.332C130.714 34.7122 130.495 33.974 130.377 33.1172C130.258 32.2513 130.199 31.2852 130.199 30.2188V22.959C130.199 21.6738 130.322 20.5254 130.568 19.5137C130.814 18.502 131.266 17.7044 131.922 17.1211C132.587 16.5378 133.54 16.2461 134.779 16.2461C135.709 16.2461 136.47 16.4147 137.062 16.752C137.655 17.0801 138.115 17.5495 138.443 18.1602C138.771 18.7617 138.995 19.4727 139.113 20.293C139.241 21.1042 139.305 21.9928 139.305 22.959V30.2188C139.305 31.2669 139.25 32.2194 139.141 33.0762C139.031 33.9329 138.817 34.6758 138.498 35.3047C138.188 35.9245 137.732 36.403 137.131 36.7402C136.538 37.0775 135.755 37.2461 134.779 37.2461ZM134.779 34.9082C135.271 34.9082 135.636 34.7441 135.873 34.416C136.119 34.0879 136.283 33.6322 136.365 33.0488C136.447 32.4564 136.488 31.7728 136.488 30.998V22.3984C136.488 21.6328 136.447 20.9674 136.365 20.4023C136.283 19.8281 136.119 19.3815 135.873 19.0625C135.627 18.7435 135.262 18.584 134.779 18.584C134.269 18.584 133.886 18.7435 133.631 19.0625C133.376 19.3815 133.207 19.8281 133.125 20.4023C133.052 20.9674 133.016 21.6328 133.016 22.3984V30.998C133.016 31.7728 133.052 32.4564 133.125 33.0488C133.207 33.6322 133.376 34.0879 133.631 34.416C133.886 34.7441 134.269 34.9082 134.779 34.9082ZM142.955 37V16.4922H145.758V18.666C145.94 18.028 146.327 17.4629 146.92 16.9707C147.521 16.4785 148.237 16.2324 149.066 16.2324C150.096 16.2324 150.898 16.597 151.473 17.3262C152.047 18.0553 152.334 19.1628 152.334 20.6484V37H149.531V20.6621C149.531 19.9329 149.367 19.4043 149.039 19.0762C148.711 18.748 148.292 18.584 147.781 18.584C147.408 18.584 147.066 18.666 146.756 18.8301C146.446 18.9941 146.2 19.2493 146.018 19.5957C145.844 19.9421 145.758 20.3887 145.758 20.9355V37H142.955Z" fill="#EBF0F4"/>
</svg>
