<svg width="194" height="50" viewBox="0 0 194 50" fill="none" xmlns="http://www.w3.org/2000/svg">
<rect x="1" y="1" width="192" height="48" rx="24" fill="#0C0C0C"/>
<rect x="1" y="1" width="192" height="48" rx="24" stroke="#9C4CFD" stroke-width="1.2"/>
<path d="M23.9688 37V12.9375H28.4941C29.752 12.9375 30.7318 13.2018 31.4336 13.7305C32.1354 14.25 32.6276 14.9974 32.9102 15.9727C33.1927 16.9479 33.334 18.1146 33.334 19.4727L33.3477 30.041C33.3477 31.6634 33.1836 32.9896 32.8555 34.0195C32.5365 35.0404 32.0124 35.7923 31.2832 36.2754C30.5632 36.7585 29.6016 37 28.3984 37H23.9688ZM26.7852 34.7168H28.2344C28.7448 34.7168 29.1686 34.6074 29.5059 34.3887C29.8431 34.1608 30.0938 33.7415 30.2578 33.1309C30.431 32.5202 30.5176 31.6361 30.5176 30.4785V19.4043C30.5176 17.8913 30.3398 16.8112 29.9844 16.1641C29.6289 15.5078 29.0456 15.1797 28.2344 15.1797H26.7852V34.7168ZM40.1016 37.1777C38.862 37.1777 37.9688 36.6992 37.4219 35.7422C36.875 34.776 36.597 33.4408 36.5879 31.7363V29.7402C36.5879 28.8379 36.7428 28.0905 37.0527 27.498C37.3626 26.8965 37.8001 26.3952 38.3652 25.9941C38.9303 25.5931 39.5957 25.2331 40.3613 24.9141C41.127 24.5859 41.9655 24.2396 42.877 23.875V22.2891C42.877 21.4141 42.8496 20.7077 42.7949 20.1699C42.7402 19.623 42.599 19.222 42.3711 18.9668C42.1523 18.7116 41.7969 18.584 41.3047 18.584C40.8216 18.584 40.457 18.7116 40.2109 18.9668C39.974 19.222 39.819 19.623 39.7461 20.1699C39.6732 20.7168 39.6367 21.4277 39.6367 22.3027V23.0137H36.8477V22.4258C36.8477 21.5508 36.9023 20.7396 37.0117 19.9922C37.1211 19.2357 37.3307 18.5794 37.6406 18.0234C37.9505 17.4674 38.4017 17.0345 38.9941 16.7246C39.5957 16.4056 40.3841 16.2461 41.3594 16.2461C42.2891 16.2461 43.0365 16.3965 43.6016 16.6973C44.1758 16.9889 44.6133 17.4219 44.9141 17.9961C45.224 18.5703 45.4336 19.2812 45.543 20.1289C45.6523 20.9674 45.707 21.9382 45.707 23.041V37H42.8906V35.2227C42.8086 35.4961 42.6491 35.7878 42.4121 36.0977C42.1751 36.3984 41.8652 36.6536 41.4824 36.8633C41.0996 37.0729 40.6393 37.1777 40.1016 37.1777ZM40.8945 34.9082C41.3867 34.9082 41.8105 34.7533 42.166 34.4434C42.5215 34.1243 42.7585 33.8099 42.877 33.5V25.6934C42.1751 26.0033 41.5964 26.2858 41.1406 26.541C40.694 26.7871 40.3431 27.0469 40.0879 27.3203C39.8418 27.5938 39.6686 27.9219 39.5684 28.3047C39.4681 28.6875 39.418 29.1706 39.418 29.7539V31.6543C39.418 32.8118 39.5182 33.6458 39.7188 34.1562C39.9193 34.6576 40.3112 34.9082 40.8945 34.9082ZM52.9531 37.123C52.0781 37.123 51.4173 37.0182 50.9707 36.8086C50.5241 36.599 50.2233 36.2617 50.0684 35.7969C49.9134 35.332 49.8359 34.7168 49.8359 33.9512V18.7344H47.9629V16.6562H49.8359V12.9375H52.6387V16.6562H54.8535V18.7344H52.6387V33.7051C52.6387 34.0514 52.6842 34.3112 52.7754 34.4844C52.8665 34.6484 53.0716 34.7578 53.3906 34.8125C53.7096 34.8672 54.2064 34.8945 54.8809 34.8945V37.123H52.9531ZM60.582 37.1777C59.3424 37.1777 58.4492 36.6992 57.9023 35.7422C57.3555 34.776 57.0775 33.4408 57.0684 31.7363V29.7402C57.0684 28.8379 57.2233 28.0905 57.5332 27.498C57.8431 26.8965 58.2806 26.3952 58.8457 25.9941C59.4108 25.5931 60.0762 25.2331 60.8418 24.9141C61.6074 24.5859 62.446 24.2396 63.3574 23.875V22.2891C63.3574 21.4141 63.3301 20.7077 63.2754 20.1699C63.2207 19.623 63.0794 19.222 62.8516 18.9668C62.6328 18.7116 62.2773 18.584 61.7852 18.584C61.3021 18.584 60.9375 18.7116 60.6914 18.9668C60.4544 19.222 60.2995 19.623 60.2266 20.1699C60.1536 20.7168 60.1172 21.4277 60.1172 22.3027V23.0137H57.3281V22.4258C57.3281 21.5508 57.3828 20.7396 57.4922 19.9922C57.6016 19.2357 57.8112 18.5794 58.1211 18.0234C58.431 17.4674 58.8822 17.0345 59.4746 16.7246C60.0762 16.4056 60.8646 16.2461 61.8398 16.2461C62.7695 16.2461 63.5169 16.3965 64.082 16.6973C64.6562 16.9889 65.0938 17.4219 65.3945 17.9961C65.7044 18.5703 65.9141 19.2812 66.0234 20.1289C66.1328 20.9674 66.1875 21.9382 66.1875 23.041V37H63.3711V35.2227C63.2891 35.4961 63.1296 35.7878 62.8926 36.0977C62.6556 36.3984 62.3457 36.6536 61.9629 36.8633C61.5801 37.0729 61.1198 37.1777 60.582 37.1777ZM61.375 34.9082C61.8672 34.9082 62.291 34.7533 62.6465 34.4434C63.002 34.1243 63.2389 33.8099 63.3574 33.5V25.6934C62.6556 26.0033 62.0768 26.2858 61.6211 26.541C61.1745 26.7871 60.8236 27.0469 60.5684 27.3203C60.3223 27.5938 60.1491 27.9219 60.0488 28.3047C59.9486 28.6875 59.8984 29.1706 59.8984 29.7539V31.6543C59.8984 32.8118 59.9987 33.6458 60.1992 34.1562C60.3997 34.6576 60.7917 34.9082 61.375 34.9082ZM76.5781 37V12.9375H78.7109L84.2891 29.3164L84.002 22.3574V12.9375H86.5039V37H84.4258L79.0254 20.4844L79.1895 26.5547V37H76.5781ZM93.5312 37.1777C92.2917 37.1777 91.3984 36.6992 90.8516 35.7422C90.3047 34.776 90.0267 33.4408 90.0176 31.7363V29.7402C90.0176 28.8379 90.1725 28.0905 90.4824 27.498C90.7923 26.8965 91.2298 26.3952 91.7949 25.9941C92.36 25.5931 93.0254 25.2331 93.791 24.9141C94.5566 24.5859 95.3952 24.2396 96.3066 23.875V22.2891C96.3066 21.4141 96.2793 20.7077 96.2246 20.1699C96.1699 19.623 96.0286 19.222 95.8008 18.9668C95.582 18.7116 95.2266 18.584 94.7344 18.584C94.2513 18.584 93.8867 18.7116 93.6406 18.9668C93.4036 19.222 93.2487 19.623 93.1758 20.1699C93.1029 20.7168 93.0664 21.4277 93.0664 22.3027V23.0137H90.2773V22.4258C90.2773 21.5508 90.332 20.7396 90.4414 19.9922C90.5508 19.2357 90.7604 18.5794 91.0703 18.0234C91.3802 17.4674 91.8314 17.0345 92.4238 16.7246C93.0254 16.4056 93.8138 16.2461 94.7891 16.2461C95.7188 16.2461 96.4661 16.3965 97.0312 16.6973C97.6055 16.9889 98.043 17.4219 98.3438 17.9961C98.6536 18.5703 98.8633 19.2812 98.9727 20.1289C99.082 20.9674 99.1367 21.9382 99.1367 23.041V37H96.3203V35.2227C96.2383 35.4961 96.0788 35.7878 95.8418 36.0977C95.6048 36.3984 95.2949 36.6536 94.9121 36.8633C94.5293 37.0729 94.069 37.1777 93.5312 37.1777ZM94.3242 34.9082C94.8164 34.9082 95.2402 34.7533 95.5957 34.4434C95.9512 34.1243 96.1882 33.8099 96.3066 33.5V25.6934C95.6048 26.0033 95.026 26.2858 94.5703 26.541C94.1237 26.7871 93.7728 27.0469 93.5176 27.3203C93.2715 27.5938 93.0983 27.9219 92.998 28.3047C92.8978 28.6875 92.8477 29.1706 92.8477 29.7539V31.6543C92.8477 32.8118 92.9479 33.6458 93.1484 34.1562C93.349 34.6576 93.7409 34.9082 94.3242 34.9082ZM102.814 37V16.4922H105.631V18.7754C105.868 17.9824 106.278 17.3626 106.861 16.916C107.454 16.4694 108.206 16.2461 109.117 16.2461C109.135 16.2461 109.145 16.3691 109.145 16.6152C109.154 16.8522 109.158 17.1257 109.158 17.4355C109.158 17.7454 109.158 18.0234 109.158 18.2695C109.158 18.5065 109.158 18.625 109.158 18.625C108.721 18.625 108.283 18.6797 107.846 18.7891C107.408 18.8893 106.998 19.0671 106.615 19.3223C106.232 19.5684 105.904 19.9056 105.631 20.334V37H102.814ZM111.592 37V16.4922H114.408V18.7754C114.645 17.9824 115.055 17.3626 115.639 16.916C116.231 16.4694 116.983 16.2461 117.895 16.2461C117.913 16.2461 117.922 16.3691 117.922 16.6152C117.931 16.8522 117.936 17.1257 117.936 17.4355C117.936 17.7454 117.936 18.0234 117.936 18.2695C117.936 18.5065 117.936 18.625 117.936 18.625C117.498 18.625 117.061 18.6797 116.623 18.7891C116.186 18.8893 115.775 19.0671 115.393 19.3223C115.01 19.5684 114.682 19.9056 114.408 20.334V37H111.592ZM123.418 37.1777C122.178 37.1777 121.285 36.6992 120.738 35.7422C120.191 34.776 119.913 33.4408 119.904 31.7363V29.7402C119.904 28.8379 120.059 28.0905 120.369 27.498C120.679 26.8965 121.117 26.3952 121.682 25.9941C122.247 25.5931 122.912 25.2331 123.678 24.9141C124.443 24.5859 125.282 24.2396 126.193 23.875V22.2891C126.193 21.4141 126.166 20.7077 126.111 20.1699C126.057 19.623 125.915 19.222 125.688 18.9668C125.469 18.7116 125.113 18.584 124.621 18.584C124.138 18.584 123.773 18.7116 123.527 18.9668C123.29 19.222 123.135 19.623 123.062 20.1699C122.99 20.7168 122.953 21.4277 122.953 22.3027V23.0137H120.164V22.4258C120.164 21.5508 120.219 20.7396 120.328 19.9922C120.438 19.2357 120.647 18.5794 120.957 18.0234C121.267 17.4674 121.718 17.0345 122.311 16.7246C122.912 16.4056 123.701 16.2461 124.676 16.2461C125.605 16.2461 126.353 16.3965 126.918 16.6973C127.492 16.9889 127.93 17.4219 128.23 17.9961C128.54 18.5703 128.75 19.2812 128.859 20.1289C128.969 20.9674 129.023 21.9382 129.023 23.041V37H126.207V35.2227C126.125 35.4961 125.965 35.7878 125.729 36.0977C125.492 36.3984 125.182 36.6536 124.799 36.8633C124.416 37.0729 123.956 37.1777 123.418 37.1777ZM124.211 34.9082C124.703 34.9082 125.127 34.7533 125.482 34.4434C125.838 34.1243 126.075 33.8099 126.193 33.5V25.6934C125.492 26.0033 124.913 26.2858 124.457 26.541C124.01 26.7871 123.66 27.0469 123.404 27.3203C123.158 27.5938 122.985 27.9219 122.885 28.3047C122.785 28.6875 122.734 29.1706 122.734 29.7539V31.6543C122.734 32.8118 122.835 33.6458 123.035 34.1562C123.236 34.6576 123.628 34.9082 124.211 34.9082ZM136.27 37.123C135.395 37.123 134.734 37.0182 134.287 36.8086C133.84 36.599 133.54 36.2617 133.385 35.7969C133.23 35.332 133.152 34.7168 133.152 33.9512V18.7344H131.279V16.6562H133.152V12.9375H135.955V16.6562H138.17V18.7344H135.955V33.7051C135.955 34.0514 136.001 34.3112 136.092 34.4844C136.183 34.6484 136.388 34.7578 136.707 34.8125C137.026 34.8672 137.523 34.8945 138.197 34.8945V37.123H136.27ZM140.877 37V16.4922H143.693V37H140.877ZM140.877 14.6055V12.0352H143.693V14.6055H140.877ZM152.006 37.2461C151.04 37.2461 150.256 37.082 149.654 36.7539C149.053 36.4167 148.588 35.9427 148.26 35.332C147.941 34.7122 147.722 33.974 147.604 33.1172C147.485 32.2513 147.426 31.2852 147.426 30.2188V22.959C147.426 21.6738 147.549 20.5254 147.795 19.5137C148.041 18.502 148.492 17.7044 149.148 17.1211C149.814 16.5378 150.766 16.2461 152.006 16.2461C152.936 16.2461 153.697 16.4147 154.289 16.752C154.882 17.0801 155.342 17.5495 155.67 18.1602C155.998 18.7617 156.221 19.4727 156.34 20.293C156.467 21.1042 156.531 21.9928 156.531 22.959V30.2188C156.531 31.2669 156.477 32.2194 156.367 33.0762C156.258 33.9329 156.044 34.6758 155.725 35.3047C155.415 35.9245 154.959 36.403 154.357 36.7402C153.765 37.0775 152.981 37.2461 152.006 37.2461ZM152.006 34.9082C152.498 34.9082 152.863 34.7441 153.1 34.416C153.346 34.0879 153.51 33.6322 153.592 33.0488C153.674 32.4564 153.715 31.7728 153.715 30.998V22.3984C153.715 21.6328 153.674 20.9674 153.592 20.4023C153.51 19.8281 153.346 19.3815 153.1 19.0625C152.854 18.7435 152.489 18.584 152.006 18.584C151.495 18.584 151.113 18.7435 150.857 19.0625C150.602 19.3815 150.434 19.8281 150.352 20.4023C150.279 20.9674 150.242 21.6328 150.242 22.3984V30.998C150.242 31.7728 150.279 32.4564 150.352 33.0488C150.434 33.6322 150.602 34.0879 150.857 34.416C151.113 34.7441 151.495 34.9082 152.006 34.9082ZM160.182 37V16.4922H162.984V18.666C163.167 18.028 163.554 17.4629 164.146 16.9707C164.748 16.4785 165.464 16.2324 166.293 16.2324C167.323 16.2324 168.125 16.597 168.699 17.3262C169.273 18.0553 169.561 19.1628 169.561 20.6484V37H166.758V20.6621C166.758 19.9329 166.594 19.4043 166.266 19.0762C165.938 18.748 165.518 18.584 165.008 18.584C164.634 18.584 164.292 18.666 163.982 18.8301C163.673 18.9941 163.426 19.2493 163.244 19.5957C163.071 19.9421 162.984 20.3887 162.984 20.9355V37H160.182Z" fill="#EBF0F4"/>
</svg>
