<svg width="194" height="50" viewBox="0 0 194 50" fill="none" xmlns="http://www.w3.org/2000/svg">
<rect x="1" y="1" width="192" height="48" rx="24" fill="#0C0C0C"/>
<rect x="1" y="1" width="192" height="48" rx="24" stroke="#EBF0F4" stroke-width="1.2"/>
<path d="M28.9688 37V12.9375H33.8086C34.7656 12.9375 35.5404 13.097 36.1328 13.416C36.7344 13.735 37.1947 14.1953 37.5137 14.7969C37.8327 15.3984 38.0469 16.123 38.1562 16.9707C38.2747 17.8184 38.334 18.7708 38.334 19.8281V20.1973C38.334 21.8105 38.2064 23.1641 37.9512 24.2578C37.7051 25.3516 37.2539 26.1764 36.5977 26.7324C35.9505 27.2793 35.0208 27.5527 33.8086 27.5527H31.7988V37H28.9688ZM31.7988 25.2012H33.5215C34.0775 25.2012 34.4967 25.0462 34.7793 24.7363C35.0618 24.4173 35.2533 23.8932 35.3535 23.1641C35.4629 22.4349 35.5176 21.446 35.5176 20.1973V19.7324C35.5176 18.1829 35.3991 17.0391 35.1621 16.3008C34.9251 15.5534 34.401 15.1797 33.5898 15.1797H31.7988V25.2012ZM41.2324 37V16.4922H44.0488V18.7754C44.2858 17.9824 44.696 17.3626 45.2793 16.916C45.8717 16.4694 46.6237 16.2461 47.5352 16.2461C47.5534 16.2461 47.5625 16.3691 47.5625 16.6152C47.5716 16.8522 47.5762 17.1257 47.5762 17.4355C47.5762 17.7454 47.5762 18.0234 47.5762 18.2695C47.5762 18.5065 47.5762 18.625 47.5762 18.625C47.1387 18.625 46.7012 18.6797 46.2637 18.7891C45.8262 18.8893 45.416 19.0671 45.0332 19.3223C44.6504 19.5684 44.3223 19.9056 44.0488 20.334V37H41.2324ZM54.2754 37.2461C53.3092 37.2461 52.5254 37.082 51.9238 36.7539C51.3223 36.4167 50.8574 35.9427 50.5293 35.332C50.2103 34.7122 49.9915 33.974 49.873 33.1172C49.7546 32.2513 49.6953 31.2852 49.6953 30.2188V22.959C49.6953 21.6738 49.8184 20.5254 50.0645 19.5137C50.3105 18.502 50.7617 17.7044 51.418 17.1211C52.0833 16.5378 53.0358 16.2461 54.2754 16.2461C55.2051 16.2461 55.9661 16.4147 56.5586 16.752C57.151 17.0801 57.6113 17.5495 57.9395 18.1602C58.2676 18.7617 58.4909 19.4727 58.6094 20.293C58.737 21.1042 58.8008 21.9928 58.8008 22.959V30.2188C58.8008 31.2669 58.7461 32.2194 58.6367 33.0762C58.5273 33.9329 58.3132 34.6758 57.9941 35.3047C57.6842 35.9245 57.2285 36.403 56.627 36.7402C56.0345 37.0775 55.2507 37.2461 54.2754 37.2461ZM54.2754 34.9082C54.7676 34.9082 55.1322 34.7441 55.3691 34.416C55.6152 34.0879 55.7793 33.6322 55.8613 33.0488C55.9434 32.4564 55.9844 31.7728 55.9844 30.998V22.3984C55.9844 21.6328 55.9434 20.9674 55.8613 20.4023C55.7793 19.8281 55.6152 19.3815 55.3691 19.0625C55.123 18.7435 54.7585 18.584 54.2754 18.584C53.765 18.584 53.3822 18.7435 53.127 19.0625C52.8717 19.3815 52.7031 19.8281 52.6211 20.4023C52.5482 20.9674 52.5117 21.6328 52.5117 22.3984V30.998C52.5117 31.7728 52.5482 32.4564 52.6211 33.0488C52.7031 33.6322 52.8717 34.0879 53.127 34.416C53.3822 34.7441 53.765 34.9082 54.2754 34.9082ZM66.5938 40.1309C65.6549 40.1582 64.8073 40.0534 64.0508 39.8164C63.3034 39.5794 62.6608 39.2467 62.123 38.8184L63.1348 36.9043C63.5358 37.1777 64.0098 37.4193 64.5566 37.6289C65.1035 37.8385 65.737 37.9342 66.457 37.916C67.0951 37.8978 67.5872 37.6562 67.9336 37.1914C68.2891 36.7357 68.4668 36.1204 68.4668 35.3457V33.3906C68.2025 34.0651 67.8379 34.5163 67.373 34.7441C66.9082 34.972 66.3796 35.0859 65.7871 35.0859C64.8301 35.0859 64.0872 34.8079 63.5586 34.252C63.0391 33.696 62.6745 32.9349 62.4648 31.9688C62.2643 31.0026 62.1641 29.9089 62.1641 28.6875V22.8086C62.1641 21.5599 62.2826 20.4388 62.5195 19.4453C62.7656 18.4518 63.1712 17.668 63.7363 17.0938C64.3014 16.5104 65.0671 16.2279 66.0332 16.2461C66.6165 16.2552 67.1178 16.401 67.5371 16.6836C67.9655 16.9661 68.2754 17.4036 68.4668 17.9961V16.4922H71.2695V35.0859C71.2695 35.6693 71.1966 36.2526 71.0508 36.8359C70.9141 37.4193 70.6725 37.9525 70.3262 38.4355C69.9889 38.9277 69.515 39.3242 68.9043 39.625C68.3027 39.9349 67.5326 40.1035 66.5938 40.1309ZM66.8672 32.8574C67.2318 32.8574 67.5326 32.748 67.7695 32.5293C68.0065 32.3105 68.1797 31.9049 68.2891 31.3125C68.4076 30.7109 68.4668 29.8496 68.4668 28.7285V22.3984C68.4668 21.1497 68.3529 20.2018 68.125 19.5547C67.9062 18.9076 67.4414 18.584 66.7305 18.584C66.2109 18.584 65.8236 18.748 65.5684 19.0762C65.3223 19.3952 65.1628 19.8372 65.0898 20.4023C65.0169 20.9674 64.9805 21.6237 64.9805 22.3711V28.7559C64.9805 30.1139 65.1035 31.1393 65.3496 31.832C65.5957 32.5156 66.1016 32.8574 66.8672 32.8574ZM75.2207 37V16.4922H78.0371V18.7754C78.2741 17.9824 78.6842 17.3626 79.2676 16.916C79.86 16.4694 80.612 16.2461 81.5234 16.2461C81.5417 16.2461 81.5508 16.3691 81.5508 16.6152C81.5599 16.8522 81.5645 17.1257 81.5645 17.4355C81.5645 17.7454 81.5645 18.0234 81.5645 18.2695C81.5645 18.5065 81.5645 18.625 81.5645 18.625C81.127 18.625 80.6895 18.6797 80.252 18.7891C79.8145 18.8893 79.4043 19.0671 79.0215 19.3223C78.6387 19.5684 78.3105 19.9056 78.0371 20.334V37H75.2207ZM87.0469 37.1777C85.8073 37.1777 84.9141 36.6992 84.3672 35.7422C83.8203 34.776 83.5423 33.4408 83.5332 31.7363V29.7402C83.5332 28.8379 83.6882 28.0905 83.998 27.498C84.3079 26.8965 84.7454 26.3952 85.3105 25.9941C85.8757 25.5931 86.541 25.2331 87.3066 24.9141C88.0723 24.5859 88.9108 24.2396 89.8223 23.875V22.2891C89.8223 21.4141 89.7949 20.7077 89.7402 20.1699C89.6855 19.623 89.5443 19.222 89.3164 18.9668C89.0977 18.7116 88.7422 18.584 88.25 18.584C87.7669 18.584 87.4023 18.7116 87.1562 18.9668C86.9193 19.222 86.7643 19.623 86.6914 20.1699C86.6185 20.7168 86.582 21.4277 86.582 22.3027V23.0137H83.793V22.4258C83.793 21.5508 83.8477 20.7396 83.957 19.9922C84.0664 19.2357 84.276 18.5794 84.5859 18.0234C84.8958 17.4674 85.347 17.0345 85.9395 16.7246C86.541 16.4056 87.3294 16.2461 88.3047 16.2461C89.2344 16.2461 89.9818 16.3965 90.5469 16.6973C91.1211 16.9889 91.5586 17.4219 91.8594 17.9961C92.1693 18.5703 92.3789 19.2812 92.4883 20.1289C92.5977 20.9674 92.6523 21.9382 92.6523 23.041V37H89.8359V35.2227C89.7539 35.4961 89.5944 35.7878 89.3574 36.0977C89.1204 36.3984 88.8105 36.6536 88.4277 36.8633C88.0449 37.0729 87.5846 37.1777 87.0469 37.1777ZM87.8398 34.9082C88.332 34.9082 88.7559 34.7533 89.1113 34.4434C89.4668 34.1243 89.7038 33.8099 89.8223 33.5V25.6934C89.1204 26.0033 88.5417 26.2858 88.0859 26.541C87.6393 26.7871 87.2884 27.0469 87.0332 27.3203C86.7871 27.5938 86.6139 27.9219 86.5137 28.3047C86.4134 28.6875 86.3633 29.1706 86.3633 29.7539V31.6543C86.3633 32.8118 86.4635 33.6458 86.6641 34.1562C86.8646 34.6576 87.2565 34.9082 87.8398 34.9082ZM96.2754 37V16.4922H99.0781V18.625C99.2604 17.9779 99.625 17.4173 100.172 16.9434C100.728 16.4694 101.43 16.2324 102.277 16.2324C102.952 16.2324 103.54 16.3965 104.041 16.7246C104.542 17.0527 104.921 17.5814 105.176 18.3105C105.513 17.6908 105.978 17.1895 106.57 16.8066C107.163 16.4238 107.855 16.2324 108.648 16.2324C109.733 16.2324 110.558 16.6198 111.123 17.3945C111.688 18.1602 111.971 19.2995 111.971 20.8125V37H109.168V20.7305C109.168 19.9557 109.018 19.418 108.717 19.1172C108.416 18.8073 108.02 18.6523 107.527 18.6523C106.826 18.6523 106.315 18.8118 105.996 19.1309C105.686 19.4408 105.531 20.0013 105.531 20.8125V37H102.715V20.7168C102.715 19.9876 102.574 19.4635 102.291 19.1445C102.008 18.8164 101.612 18.6523 101.102 18.6523C100.436 18.6523 99.9303 18.8665 99.584 19.2949C99.2467 19.7233 99.0781 20.3021 99.0781 21.0312V37H96.2754ZM115.826 37V16.4922H118.629V18.625C118.811 17.9779 119.176 17.4173 119.723 16.9434C120.279 16.4694 120.98 16.2324 121.828 16.2324C122.503 16.2324 123.09 16.3965 123.592 16.7246C124.093 17.0527 124.471 17.5814 124.727 18.3105C125.064 17.6908 125.529 17.1895 126.121 16.8066C126.714 16.4238 127.406 16.2324 128.199 16.2324C129.284 16.2324 130.109 16.6198 130.674 17.3945C131.239 18.1602 131.521 19.2995 131.521 20.8125V37H128.719V20.7305C128.719 19.9557 128.568 19.418 128.268 19.1172C127.967 18.8073 127.57 18.6523 127.078 18.6523C126.376 18.6523 125.866 18.8118 125.547 19.1309C125.237 19.4408 125.082 20.0013 125.082 20.8125V37H122.266V20.7168C122.266 19.9876 122.124 19.4635 121.842 19.1445C121.559 18.8164 121.163 18.6523 120.652 18.6523C119.987 18.6523 119.481 18.8665 119.135 19.2949C118.798 19.7233 118.629 20.3021 118.629 21.0312V37H115.826ZM135.459 37V16.4922H138.275V37H135.459ZM135.459 14.6055V12.0352H138.275V14.6055H135.459ZM142.268 37V16.4922H145.07V18.666C145.253 18.028 145.64 17.4629 146.232 16.9707C146.834 16.4785 147.549 16.2324 148.379 16.2324C149.409 16.2324 150.211 16.597 150.785 17.3262C151.359 18.0553 151.646 19.1628 151.646 20.6484V37H148.844V20.6621C148.844 19.9329 148.68 19.4043 148.352 19.0762C148.023 18.748 147.604 18.584 147.094 18.584C146.72 18.584 146.378 18.666 146.068 18.8301C145.758 18.9941 145.512 19.2493 145.33 19.5957C145.157 19.9421 145.07 20.3887 145.07 20.9355V37H142.268ZM159.645 40.1309C158.706 40.1582 157.858 40.0534 157.102 39.8164C156.354 39.5794 155.712 39.2467 155.174 38.8184L156.186 36.9043C156.587 37.1777 157.061 37.4193 157.607 37.6289C158.154 37.8385 158.788 37.9342 159.508 37.916C160.146 37.8978 160.638 37.6562 160.984 37.1914C161.34 36.7357 161.518 36.1204 161.518 35.3457V33.3906C161.253 34.0651 160.889 34.5163 160.424 34.7441C159.959 34.972 159.43 35.0859 158.838 35.0859C157.881 35.0859 157.138 34.8079 156.609 34.252C156.09 33.696 155.725 32.9349 155.516 31.9688C155.315 31.0026 155.215 29.9089 155.215 28.6875V22.8086C155.215 21.5599 155.333 20.4388 155.57 19.4453C155.816 18.4518 156.222 17.668 156.787 17.0938C157.352 16.5104 158.118 16.2279 159.084 16.2461C159.667 16.2552 160.169 16.401 160.588 16.6836C161.016 16.9661 161.326 17.4036 161.518 17.9961V16.4922H164.32V35.0859C164.32 35.6693 164.247 36.2526 164.102 36.8359C163.965 37.4193 163.723 37.9525 163.377 38.4355C163.04 38.9277 162.566 39.3242 161.955 39.625C161.354 39.9349 160.583 40.1035 159.645 40.1309ZM159.918 32.8574C160.283 32.8574 160.583 32.748 160.82 32.5293C161.057 32.3105 161.23 31.9049 161.34 31.3125C161.458 30.7109 161.518 29.8496 161.518 28.7285V22.3984C161.518 21.1497 161.404 20.2018 161.176 19.5547C160.957 18.9076 160.492 18.584 159.781 18.584C159.262 18.584 158.874 18.748 158.619 19.0762C158.373 19.3952 158.214 19.8372 158.141 20.4023C158.068 20.9674 158.031 21.6237 158.031 22.3711V28.7559C158.031 30.1139 158.154 31.1393 158.4 31.832C158.646 32.5156 159.152 32.8574 159.918 32.8574Z" fill="#EBF0F4"/>
</svg>
