<svg width="194" height="50" viewBox="0 0 194 50" fill="none" xmlns="http://www.w3.org/2000/svg">
<rect x="1" y="1" width="192" height="48" rx="24" fill="#0C0C0C"/>
<rect x="1" y="1" width="192" height="48" rx="24" stroke="#9C4CFD" stroke-width="1.2"/>
<path d="M53.5488 37.2871C52.3639 37.2871 51.4206 37.0547 50.7188 36.5898C50.026 36.1159 49.5293 35.4004 49.2285 34.4434C48.9277 33.4863 48.7773 32.2786 48.7773 30.8203V12.9375H51.6074V30.752C51.6074 31.6178 51.6393 32.3607 51.7031 32.9805C51.7669 33.6003 51.9355 34.0742 52.209 34.4023C52.4824 34.7305 52.929 34.8945 53.5488 34.8945C54.1777 34.8945 54.6243 34.7305 54.8887 34.4023C55.153 34.0742 55.3125 33.6048 55.3672 32.9941C55.431 32.3743 55.4629 31.6315 55.4629 30.7656V12.9375H58.2793V30.8203C58.2793 32.2786 58.1335 33.4863 57.8418 34.4434C57.5501 35.4004 57.0579 36.1159 56.3652 36.5898C55.6816 37.0547 54.7428 37.2871 53.5488 37.2871ZM60.6582 37L64.1035 24.2578L60.7676 12.9375H63.2422L65.5938 20.9492L67.6582 12.9375H70.2012L66.8652 25.2832L70.3105 37H67.8496L65.4023 28.6875L63.2422 37H60.6582ZM79.6484 37V12.9375H84.1738C85.4316 12.9375 86.4115 13.2018 87.1133 13.7305C87.8151 14.25 88.3073 14.9974 88.5898 15.9727C88.8724 16.9479 89.0137 18.1146 89.0137 19.4727L89.0273 30.041C89.0273 31.6634 88.8633 32.9896 88.5352 34.0195C88.2161 35.0404 87.6921 35.7923 86.9629 36.2754C86.2428 36.7585 85.2812 37 84.0781 37H79.6484ZM82.4648 34.7168H83.9141C84.4245 34.7168 84.8483 34.6074 85.1855 34.3887C85.5228 34.1608 85.7734 33.7415 85.9375 33.1309C86.1107 32.5202 86.1973 31.6361 86.1973 30.4785V19.4043C86.1973 17.8913 86.0195 16.8112 85.6641 16.1641C85.3086 15.5078 84.7253 15.1797 83.9141 15.1797H82.4648V34.7168ZM96.9297 37.2461C95.9453 37.2461 95.1523 37.0775 94.5508 36.7402C93.9583 36.3939 93.5072 35.9062 93.1973 35.2773C92.8874 34.6484 92.6777 33.8965 92.5684 33.0215C92.4681 32.1374 92.418 31.1621 92.418 30.0957V22.8496C92.418 21.8835 92.4863 20.9993 92.623 20.1973C92.7598 19.3861 92.9967 18.6888 93.334 18.1055C93.6712 17.513 94.1406 17.0573 94.7422 16.7383C95.3438 16.4102 96.1094 16.2461 97.0391 16.2461C97.9779 16.2461 98.7344 16.4102 99.3086 16.7383C99.8828 17.0664 100.316 17.5312 100.607 18.1328C100.908 18.7253 101.109 19.4362 101.209 20.2656C101.309 21.0859 101.359 21.9883 101.359 22.9727V26.8418H95.2344V30.9297C95.2344 32.224 95.321 33.2129 95.4941 33.8965C95.6764 34.571 96.1641 34.9082 96.957 34.9082C97.4766 34.9082 97.8457 34.7487 98.0645 34.4297C98.2923 34.1016 98.429 33.6458 98.4746 33.0625C98.5293 32.4701 98.5566 31.7728 98.5566 30.9707V29.3164H101.305V30.1914C101.305 31.2578 101.259 32.224 101.168 33.0898C101.086 33.9557 100.904 34.6986 100.621 35.3184C100.339 35.9382 99.901 36.4167 99.3086 36.7539C98.7253 37.082 97.9323 37.2461 96.9297 37.2461ZM95.2207 24.9414H98.5566V22.3301C98.5566 21.5098 98.5293 20.8216 98.4746 20.2656C98.4199 19.7005 98.2878 19.2767 98.0781 18.9941C97.8685 18.7025 97.5221 18.5566 97.0391 18.5566C96.5013 18.5566 96.1003 18.7207 95.8359 19.0488C95.5807 19.377 95.4121 19.8327 95.3301 20.416C95.2572 20.9902 95.2207 21.6602 95.2207 22.4258V24.9414ZM108.605 37.2734C107.147 37.2734 106.04 36.8177 105.283 35.9062C104.527 34.9857 104.148 33.4635 104.148 31.3398V29.7949H106.869V31.3262C106.869 32.4746 106.992 33.3542 107.238 33.9648C107.493 34.5755 107.908 34.8809 108.482 34.8809C109.057 34.8809 109.476 34.694 109.74 34.3203C110.014 33.9466 110.15 33.2767 110.15 32.3105C110.15 31.8275 110.077 31.349 109.932 30.875C109.786 30.3919 109.562 29.918 109.262 29.4531C108.961 28.9792 108.574 28.5189 108.1 28.0723L106.65 26.6914C105.785 25.862 105.124 24.9824 104.668 24.0527C104.212 23.1139 103.984 22.1204 103.984 21.0723C103.984 19.4134 104.376 18.1966 105.16 17.4219C105.944 16.638 107.024 16.2461 108.4 16.2461C109.321 16.2461 110.096 16.4466 110.725 16.8477C111.354 17.2487 111.827 17.9141 112.146 18.8438C112.465 19.7734 112.625 21.0404 112.625 22.6445V23.6289H109.959V22.207C109.959 21.0586 109.845 20.179 109.617 19.5684C109.398 18.9577 109.002 18.6523 108.428 18.6523C107.872 18.6523 107.452 18.8164 107.17 19.1445C106.896 19.4635 106.746 20.0514 106.719 20.9082C106.71 21.3457 106.764 21.7878 106.883 22.2344C107.01 22.681 107.215 23.123 107.498 23.5605C107.781 23.998 108.145 24.4264 108.592 24.8457L110.068 26.2266C111.025 27.1107 111.745 28.0632 112.229 29.084C112.721 30.0957 112.967 31.1667 112.967 32.2969C112.967 33.8464 112.611 35.0632 111.9 35.9473C111.199 36.8314 110.1 37.2734 108.605 37.2734ZM115.811 37V16.4922H118.627V37H115.811ZM115.811 14.6055V12.0352H118.627V14.6055H115.811ZM126.762 40.1309C125.823 40.1582 124.975 40.0534 124.219 39.8164C123.471 39.5794 122.829 39.2467 122.291 38.8184L123.303 36.9043C123.704 37.1777 124.178 37.4193 124.725 37.6289C125.271 37.8385 125.905 37.9342 126.625 37.916C127.263 37.8978 127.755 37.6562 128.102 37.1914C128.457 36.7357 128.635 36.1204 128.635 35.3457V33.3906C128.37 34.0651 128.006 34.5163 127.541 34.7441C127.076 34.972 126.548 35.0859 125.955 35.0859C124.998 35.0859 124.255 34.8079 123.727 34.252C123.207 33.696 122.842 32.9349 122.633 31.9688C122.432 31.0026 122.332 29.9089 122.332 28.6875V22.8086C122.332 21.5599 122.451 20.4388 122.688 19.4453C122.934 18.4518 123.339 17.668 123.904 17.0938C124.469 16.5104 125.235 16.2279 126.201 16.2461C126.785 16.2552 127.286 16.401 127.705 16.6836C128.133 16.9661 128.443 17.4036 128.635 17.9961V16.4922H131.438V35.0859C131.438 35.6693 131.365 36.2526 131.219 36.8359C131.082 37.4193 130.84 37.9525 130.494 38.4355C130.157 38.9277 129.683 39.3242 129.072 39.625C128.471 39.9349 127.701 40.1035 126.762 40.1309ZM127.035 32.8574C127.4 32.8574 127.701 32.748 127.938 32.5293C128.174 32.3105 128.348 31.9049 128.457 31.3125C128.576 30.7109 128.635 29.8496 128.635 28.7285V22.3984C128.635 21.1497 128.521 20.2018 128.293 19.5547C128.074 18.9076 127.609 18.584 126.898 18.584C126.379 18.584 125.992 18.748 125.736 19.0762C125.49 19.3952 125.331 19.8372 125.258 20.4023C125.185 20.9674 125.148 21.6237 125.148 22.3711V28.7559C125.148 30.1139 125.271 31.1393 125.518 31.832C125.764 32.5156 126.27 32.8574 127.035 32.8574ZM135.334 37V16.4922H138.137V18.666C138.319 18.028 138.706 17.4629 139.299 16.9707C139.9 16.4785 140.616 16.2324 141.445 16.2324C142.475 16.2324 143.277 16.597 143.852 17.3262C144.426 18.0553 144.713 19.1628 144.713 20.6484V37H141.91V20.6621C141.91 19.9329 141.746 19.4043 141.418 19.0762C141.09 18.748 140.671 18.584 140.16 18.584C139.786 18.584 139.445 18.666 139.135 18.8301C138.825 18.9941 138.579 19.2493 138.396 19.5957C138.223 19.9421 138.137 20.3887 138.137 20.9355V37H135.334Z" fill="#EBF0F4"/>
</svg>
