<svg width="194" height="50" viewBox="0 0 194 50" fill="none" xmlns="http://www.w3.org/2000/svg">
<rect x="1" y="1" width="192" height="48" rx="24" fill="#0C0C0C"/>
<rect x="1" y="1" width="192" height="48" rx="24" stroke="#EBF0F4" stroke-width="1.2"/>
<path d="M29.9688 37V12.9375H34.4941C35.752 12.9375 36.7318 13.2018 37.4336 13.7305C38.1354 14.25 38.6276 14.9974 38.9102 15.9727C39.1927 16.9479 39.334 18.1146 39.334 19.4727L39.3477 30.041C39.3477 31.6634 39.1836 32.9896 38.8555 34.0195C38.5365 35.0404 38.0124 35.7923 37.2832 36.2754C36.5632 36.7585 35.6016 37 34.3984 37H29.9688ZM32.7852 34.7168H34.2344C34.7448 34.7168 35.1686 34.6074 35.5059 34.3887C35.8431 34.1608 36.0938 33.7415 36.2578 33.1309C36.431 32.5202 36.5176 31.6361 36.5176 30.4785V19.4043C36.5176 17.8913 36.3398 16.8112 35.9844 16.1641C35.6289 15.5078 35.0456 15.1797 34.2344 15.1797H32.7852V34.7168ZM43.0527 37V16.4922H45.8691V18.7754C46.1061 17.9824 46.5163 17.3626 47.0996 16.916C47.6921 16.4694 48.444 16.2461 49.3555 16.2461C49.3737 16.2461 49.3828 16.3691 49.3828 16.6152C49.3919 16.8522 49.3965 17.1257 49.3965 17.4355C49.3965 17.7454 49.3965 18.0234 49.3965 18.2695C49.3965 18.5065 49.3965 18.625 49.3965 18.625C48.959 18.625 48.5215 18.6797 48.084 18.7891C47.6465 18.8893 47.2363 19.0671 46.8535 19.3223C46.4707 19.5684 46.1426 19.9056 45.8691 20.334V37H43.0527ZM56.0273 37.2461C55.043 37.2461 54.25 37.0775 53.6484 36.7402C53.056 36.3939 52.6048 35.9062 52.2949 35.2773C51.985 34.6484 51.7754 33.8965 51.666 33.0215C51.5658 32.1374 51.5156 31.1621 51.5156 30.0957V22.8496C51.5156 21.8835 51.584 20.9993 51.7207 20.1973C51.8574 19.3861 52.0944 18.6888 52.4316 18.1055C52.7689 17.513 53.2383 17.0573 53.8398 16.7383C54.4414 16.4102 55.207 16.2461 56.1367 16.2461C57.0755 16.2461 57.832 16.4102 58.4062 16.7383C58.9805 17.0664 59.4134 17.5312 59.7051 18.1328C60.0059 18.7253 60.2064 19.4362 60.3066 20.2656C60.4069 21.0859 60.457 21.9883 60.457 22.9727V26.8418H54.332V30.9297C54.332 32.224 54.4186 33.2129 54.5918 33.8965C54.7741 34.571 55.2617 34.9082 56.0547 34.9082C56.5742 34.9082 56.9434 34.7487 57.1621 34.4297C57.39 34.1016 57.5267 33.6458 57.5723 33.0625C57.627 32.4701 57.6543 31.7728 57.6543 30.9707V29.3164H60.4023V30.1914C60.4023 31.2578 60.3568 32.224 60.2656 33.0898C60.1836 33.9557 60.0013 34.6986 59.7188 35.3184C59.4362 35.9382 58.9987 36.4167 58.4062 36.7539C57.8229 37.082 57.0299 37.2461 56.0273 37.2461ZM54.3184 24.9414H57.6543V22.3301C57.6543 21.5098 57.627 20.8216 57.5723 20.2656C57.5176 19.7005 57.3854 19.2767 57.1758 18.9941C56.9661 18.7025 56.6198 18.5566 56.1367 18.5566C55.599 18.5566 55.1979 18.7207 54.9336 19.0488C54.6784 19.377 54.5098 19.8327 54.4277 20.416C54.3548 20.9902 54.3184 21.6602 54.3184 22.4258V24.9414ZM66.9375 37.1777C65.6979 37.1777 64.8047 36.6992 64.2578 35.7422C63.7109 34.776 63.4329 33.4408 63.4238 31.7363V29.7402C63.4238 28.8379 63.5788 28.0905 63.8887 27.498C64.1986 26.8965 64.6361 26.3952 65.2012 25.9941C65.7663 25.5931 66.4316 25.2331 67.1973 24.9141C67.9629 24.5859 68.8014 24.2396 69.7129 23.875V22.2891C69.7129 21.4141 69.6855 20.7077 69.6309 20.1699C69.5762 19.623 69.4349 19.222 69.207 18.9668C68.9883 18.7116 68.6328 18.584 68.1406 18.584C67.6576 18.584 67.293 18.7116 67.0469 18.9668C66.8099 19.222 66.6549 19.623 66.582 20.1699C66.5091 20.7168 66.4727 21.4277 66.4727 22.3027V23.0137H63.6836V22.4258C63.6836 21.5508 63.7383 20.7396 63.8477 19.9922C63.957 19.2357 64.1667 18.5794 64.4766 18.0234C64.7865 17.4674 65.2376 17.0345 65.8301 16.7246C66.4316 16.4056 67.2201 16.2461 68.1953 16.2461C69.125 16.2461 69.8724 16.3965 70.4375 16.6973C71.0117 16.9889 71.4492 17.4219 71.75 17.9961C72.0599 18.5703 72.2695 19.2812 72.3789 20.1289C72.4883 20.9674 72.543 21.9382 72.543 23.041V37H69.7266V35.2227C69.6445 35.4961 69.485 35.7878 69.248 36.0977C69.0111 36.3984 68.7012 36.6536 68.3184 36.8633C67.9355 37.0729 67.4753 37.1777 66.9375 37.1777ZM67.7305 34.9082C68.2227 34.9082 68.6465 34.7533 69.002 34.4434C69.3574 34.1243 69.5944 33.8099 69.7129 33.5V25.6934C69.0111 26.0033 68.4323 26.2858 67.9766 26.541C67.5299 26.7871 67.179 27.0469 66.9238 27.3203C66.6777 27.5938 66.5046 27.9219 66.4043 28.3047C66.304 28.6875 66.2539 29.1706 66.2539 29.7539V31.6543C66.2539 32.8118 66.3542 33.6458 66.5547 34.1562C66.7552 34.6576 67.1471 34.9082 67.7305 34.9082ZM76.166 37V16.4922H78.9688V18.625C79.151 17.9779 79.5156 17.4173 80.0625 16.9434C80.6185 16.4694 81.3203 16.2324 82.168 16.2324C82.8424 16.2324 83.4303 16.3965 83.9316 16.7246C84.4329 17.0527 84.8112 17.5814 85.0664 18.3105C85.4036 17.6908 85.8685 17.1895 86.4609 16.8066C87.0534 16.4238 87.7461 16.2324 88.5391 16.2324C89.6237 16.2324 90.4486 16.6198 91.0137 17.3945C91.5788 18.1602 91.8613 19.2995 91.8613 20.8125V37H89.0586V20.7305C89.0586 19.9557 88.9082 19.418 88.6074 19.1172C88.3066 18.8073 87.9102 18.6523 87.418 18.6523C86.7161 18.6523 86.2057 18.8118 85.8867 19.1309C85.5768 19.4408 85.4219 20.0013 85.4219 20.8125V37H82.6055V20.7168C82.6055 19.9876 82.4642 19.4635 82.1816 19.1445C81.8991 18.8164 81.5026 18.6523 80.9922 18.6523C80.3268 18.6523 79.821 18.8665 79.4746 19.2949C79.1374 19.7233 78.9688 20.3021 78.9688 21.0312V37H76.166ZM96.9062 37L94.5137 16.4922H96.8652L97.9453 27.9082L98.2598 31.832H98.3828L98.9023 27.8945L100.529 16.4922H101.268H102.525H102.977L104.604 27.5938L105.164 31.832H105.273L105.602 27.5801L106.668 16.4922H108.965L106.49 37H103.906L101.842 20.9492L99.3809 37H96.9062ZM115.91 37.2461C114.926 37.2461 114.133 37.0775 113.531 36.7402C112.939 36.3939 112.488 35.9062 112.178 35.2773C111.868 34.6484 111.658 33.8965 111.549 33.0215C111.449 32.1374 111.398 31.1621 111.398 30.0957V22.8496C111.398 21.8835 111.467 20.9993 111.604 20.1973C111.74 19.3861 111.977 18.6888 112.314 18.1055C112.652 17.513 113.121 17.0573 113.723 16.7383C114.324 16.4102 115.09 16.2461 116.02 16.2461C116.958 16.2461 117.715 16.4102 118.289 16.7383C118.863 17.0664 119.296 17.5312 119.588 18.1328C119.889 18.7253 120.089 19.4362 120.189 20.2656C120.29 21.0859 120.34 21.9883 120.34 22.9727V26.8418H114.215V30.9297C114.215 32.224 114.301 33.2129 114.475 33.8965C114.657 34.571 115.145 34.9082 115.938 34.9082C116.457 34.9082 116.826 34.7487 117.045 34.4297C117.273 34.1016 117.41 33.6458 117.455 33.0625C117.51 32.4701 117.537 31.7728 117.537 30.9707V29.3164H120.285V30.1914C120.285 31.2578 120.24 32.224 120.148 33.0898C120.066 33.9557 119.884 34.6986 119.602 35.3184C119.319 35.9382 118.882 36.4167 118.289 36.7539C117.706 37.082 116.913 37.2461 115.91 37.2461ZM114.201 24.9414H117.537V22.3301C117.537 21.5098 117.51 20.8216 117.455 20.2656C117.4 19.7005 117.268 19.2767 117.059 18.9941C116.849 18.7025 116.503 18.5566 116.02 18.5566C115.482 18.5566 115.081 18.7207 114.816 19.0488C114.561 19.377 114.393 19.8327 114.311 20.416C114.238 20.9902 114.201 21.6602 114.201 22.4258V24.9414ZM126.82 37.1777C125.581 37.1777 124.688 36.6992 124.141 35.7422C123.594 34.776 123.316 33.4408 123.307 31.7363V29.7402C123.307 28.8379 123.462 28.0905 123.771 27.498C124.081 26.8965 124.519 26.3952 125.084 25.9941C125.649 25.5931 126.314 25.2331 127.08 24.9141C127.846 24.5859 128.684 24.2396 129.596 23.875V22.2891C129.596 21.4141 129.568 20.7077 129.514 20.1699C129.459 19.623 129.318 19.222 129.09 18.9668C128.871 18.7116 128.516 18.584 128.023 18.584C127.54 18.584 127.176 18.7116 126.93 18.9668C126.693 19.222 126.538 19.623 126.465 20.1699C126.392 20.7168 126.355 21.4277 126.355 22.3027V23.0137H123.566V22.4258C123.566 21.5508 123.621 20.7396 123.73 19.9922C123.84 19.2357 124.049 18.5794 124.359 18.0234C124.669 17.4674 125.12 17.0345 125.713 16.7246C126.314 16.4056 127.103 16.2461 128.078 16.2461C129.008 16.2461 129.755 16.3965 130.32 16.6973C130.895 16.9889 131.332 17.4219 131.633 17.9961C131.943 18.5703 132.152 19.2812 132.262 20.1289C132.371 20.9674 132.426 21.9382 132.426 23.041V37H129.609V35.2227C129.527 35.4961 129.368 35.7878 129.131 36.0977C128.894 36.3984 128.584 36.6536 128.201 36.8633C127.818 37.0729 127.358 37.1777 126.82 37.1777ZM127.613 34.9082C128.105 34.9082 128.529 34.7533 128.885 34.4434C129.24 34.1243 129.477 33.8099 129.596 33.5V25.6934C128.894 26.0033 128.315 26.2858 127.859 26.541C127.413 26.7871 127.062 27.0469 126.807 27.3203C126.561 27.5938 126.387 27.9219 126.287 28.3047C126.187 28.6875 126.137 29.1706 126.137 29.7539V31.6543C126.137 32.8118 126.237 33.6458 126.438 34.1562C126.638 34.6576 127.03 34.9082 127.613 34.9082ZM137.73 37L134.764 16.4922H137.307L138.906 28.127L139.467 32.9805H139.562L140.041 28.1133L141.463 16.4922H144.02L141.025 37H137.73ZM150.883 37.2461C149.898 37.2461 149.105 37.0775 148.504 36.7402C147.911 36.3939 147.46 35.9062 147.15 35.2773C146.84 34.6484 146.631 33.8965 146.521 33.0215C146.421 32.1374 146.371 31.1621 146.371 30.0957V22.8496C146.371 21.8835 146.439 20.9993 146.576 20.1973C146.713 19.3861 146.95 18.6888 147.287 18.1055C147.624 17.513 148.094 17.0573 148.695 16.7383C149.297 16.4102 150.062 16.2461 150.992 16.2461C151.931 16.2461 152.688 16.4102 153.262 16.7383C153.836 17.0664 154.269 17.5312 154.561 18.1328C154.861 18.7253 155.062 19.4362 155.162 20.2656C155.262 21.0859 155.312 21.9883 155.312 22.9727V26.8418H149.188V30.9297C149.188 32.224 149.274 33.2129 149.447 33.8965C149.63 34.571 150.117 34.9082 150.91 34.9082C151.43 34.9082 151.799 34.7487 152.018 34.4297C152.245 34.1016 152.382 33.6458 152.428 33.0625C152.482 32.4701 152.51 31.7728 152.51 30.9707V29.3164H155.258V30.1914C155.258 31.2578 155.212 32.224 155.121 33.0898C155.039 33.9557 154.857 34.6986 154.574 35.3184C154.292 35.9382 153.854 36.4167 153.262 36.7539C152.678 37.082 151.885 37.2461 150.883 37.2461ZM149.174 24.9414H152.51V22.3301C152.51 21.5098 152.482 20.8216 152.428 20.2656C152.373 19.7005 152.241 19.2767 152.031 18.9941C151.822 18.7025 151.475 18.5566 150.992 18.5566C150.454 18.5566 150.053 18.7207 149.789 19.0488C149.534 19.377 149.365 19.8327 149.283 20.416C149.21 20.9902 149.174 21.6602 149.174 22.4258V24.9414ZM158.744 37V16.4922H161.561V18.7754C161.798 17.9824 162.208 17.3626 162.791 16.916C163.383 16.4694 164.135 16.2461 165.047 16.2461C165.065 16.2461 165.074 16.3691 165.074 16.6152C165.083 16.8522 165.088 17.1257 165.088 17.4355C165.088 17.7454 165.088 18.0234 165.088 18.2695C165.088 18.5065 165.088 18.625 165.088 18.625C164.65 18.625 164.213 18.6797 163.775 18.7891C163.338 18.8893 162.928 19.0671 162.545 19.3223C162.162 19.5684 161.834 19.9056 161.561 20.334V37H158.744Z" fill="#EBF0F4"/>
</svg>
