<svg width="194" height="50" viewBox="0 0 194 50" fill="none" xmlns="http://www.w3.org/2000/svg">
<rect x="1" y="1" width="192" height="48" rx="24" fill="#0C0C0C"/>
<rect x="1" y="1" width="192" height="48" rx="24" stroke="#9C4CFD" stroke-width="1.2"/>
<path d="M71.0488 37.2871C69.8639 37.2871 68.9206 37.0547 68.2188 36.5898C67.526 36.1159 67.0293 35.4004 66.7285 34.4434C66.4277 33.4863 66.2773 32.2786 66.2773 30.8203V12.9375H69.1074V30.752C69.1074 31.6178 69.1393 32.3607 69.2031 32.9805C69.2669 33.6003 69.4355 34.0742 69.709 34.4023C69.9824 34.7305 70.429 34.8945 71.0488 34.8945C71.6777 34.8945 72.1243 34.7305 72.3887 34.4023C72.653 34.0742 72.8125 33.6048 72.8672 32.9941C72.931 32.3743 72.9629 31.6315 72.9629 30.7656V12.9375H75.7793V30.8203C75.7793 32.2786 75.6335 33.4863 75.3418 34.4434C75.0501 35.4004 74.5579 36.1159 73.8652 36.5898C73.1816 37.0547 72.2428 37.2871 71.0488 37.2871ZM78.1582 37L81.6035 24.2578L78.2676 12.9375H80.7422L83.0938 20.9492L85.1582 12.9375H87.7012L84.3652 25.2832L87.8105 37H85.3496L82.9023 28.6875L80.7422 37H78.1582ZM97.5723 38.6953V11.8848H100.266V38.6953H97.5723ZM115.838 37.2871C114.653 37.2871 113.71 37.0547 113.008 36.5898C112.315 36.1159 111.818 35.4004 111.518 34.4434C111.217 33.4863 111.066 32.2786 111.066 30.8203V12.9375H113.896V30.752C113.896 31.6178 113.928 32.3607 113.992 32.9805C114.056 33.6003 114.225 34.0742 114.498 34.4023C114.771 34.7305 115.218 34.8945 115.838 34.8945C116.467 34.8945 116.913 34.7305 117.178 34.4023C117.442 34.0742 117.602 33.6048 117.656 32.9941C117.72 32.3743 117.752 31.6315 117.752 30.7656V12.9375H120.568V30.8203C120.568 32.2786 120.423 33.4863 120.131 34.4434C119.839 35.4004 119.347 36.1159 118.654 36.5898C117.971 37.0547 117.032 37.2871 115.838 37.2871ZM124.301 37V12.9375H127.131V37H124.301Z" fill="#EBF0F4"/>
</svg>
