<svg width="194" height="50" viewBox="0 0 194 50" fill="none" xmlns="http://www.w3.org/2000/svg">
<rect x="1" y="1" width="192" height="48" rx="24" fill="#0C0C0C"/>
<rect x="1" y="1" width="192" height="48" rx="24" stroke="#9C4CFD" stroke-width="1.2"/>
<path d="M58.4688 37V12.9375H62.9941C64.252 12.9375 65.2318 13.2018 65.9336 13.7305C66.6354 14.25 67.1276 14.9974 67.4102 15.9727C67.6927 16.9479 67.834 18.1146 67.834 19.4727L67.8477 30.041C67.8477 31.6634 67.6836 32.9896 67.3555 34.0195C67.0365 35.0404 66.5124 35.7923 65.7832 36.2754C65.0632 36.7585 64.1016 37 62.8984 37H58.4688ZM61.2852 34.7168H62.7344C63.2448 34.7168 63.6686 34.6074 64.0059 34.3887C64.3431 34.1608 64.5938 33.7415 64.7578 33.1309C64.931 32.5202 65.0176 31.6361 65.0176 30.4785V19.4043C65.0176 17.8913 64.8398 16.8112 64.4844 16.1641C64.1289 15.5078 63.5456 15.1797 62.7344 15.1797H61.2852V34.7168ZM74.6016 37.1777C73.362 37.1777 72.4688 36.6992 71.9219 35.7422C71.375 34.776 71.097 33.4408 71.0879 31.7363V29.7402C71.0879 28.8379 71.2428 28.0905 71.5527 27.498C71.8626 26.8965 72.3001 26.3952 72.8652 25.9941C73.4303 25.5931 74.0957 25.2331 74.8613 24.9141C75.627 24.5859 76.4655 24.2396 77.377 23.875V22.2891C77.377 21.4141 77.3496 20.7077 77.2949 20.1699C77.2402 19.623 77.099 19.222 76.8711 18.9668C76.6523 18.7116 76.2969 18.584 75.8047 18.584C75.3216 18.584 74.957 18.7116 74.7109 18.9668C74.474 19.222 74.319 19.623 74.2461 20.1699C74.1732 20.7168 74.1367 21.4277 74.1367 22.3027V23.0137H71.3477V22.4258C71.3477 21.5508 71.4023 20.7396 71.5117 19.9922C71.6211 19.2357 71.8307 18.5794 72.1406 18.0234C72.4505 17.4674 72.9017 17.0345 73.4941 16.7246C74.0957 16.4056 74.8841 16.2461 75.8594 16.2461C76.7891 16.2461 77.5365 16.3965 78.1016 16.6973C78.6758 16.9889 79.1133 17.4219 79.4141 17.9961C79.724 18.5703 79.9336 19.2812 80.043 20.1289C80.1523 20.9674 80.207 21.9382 80.207 23.041V37H77.3906V35.2227C77.3086 35.4961 77.1491 35.7878 76.9121 36.0977C76.6751 36.3984 76.3652 36.6536 75.9824 36.8633C75.5996 37.0729 75.1393 37.1777 74.6016 37.1777ZM75.3945 34.9082C75.8867 34.9082 76.3105 34.7533 76.666 34.4434C77.0215 34.1243 77.2585 33.8099 77.377 33.5V25.6934C76.6751 26.0033 76.0964 26.2858 75.6406 26.541C75.194 26.7871 74.8431 27.0469 74.5879 27.3203C74.3418 27.5938 74.1686 27.9219 74.0684 28.3047C73.9681 28.6875 73.918 29.1706 73.918 29.7539V31.6543C73.918 32.8118 74.0182 33.6458 74.2188 34.1562C74.4193 34.6576 74.8112 34.9082 75.3945 34.9082ZM87.4531 37.123C86.5781 37.123 85.9173 37.0182 85.4707 36.8086C85.0241 36.599 84.7233 36.2617 84.5684 35.7969C84.4134 35.332 84.3359 34.7168 84.3359 33.9512V18.7344H82.4629V16.6562H84.3359V12.9375H87.1387V16.6562H89.3535V18.7344H87.1387V33.7051C87.1387 34.0514 87.1842 34.3112 87.2754 34.4844C87.3665 34.6484 87.5716 34.7578 87.8906 34.8125C88.2096 34.8672 88.7064 34.8945 89.3809 34.8945V37.123H87.4531ZM95.082 37.1777C93.8424 37.1777 92.9492 36.6992 92.4023 35.7422C91.8555 34.776 91.5775 33.4408 91.5684 31.7363V29.7402C91.5684 28.8379 91.7233 28.0905 92.0332 27.498C92.3431 26.8965 92.7806 26.3952 93.3457 25.9941C93.9108 25.5931 94.5762 25.2331 95.3418 24.9141C96.1074 24.5859 96.946 24.2396 97.8574 23.875V22.2891C97.8574 21.4141 97.8301 20.7077 97.7754 20.1699C97.7207 19.623 97.5794 19.222 97.3516 18.9668C97.1328 18.7116 96.7773 18.584 96.2852 18.584C95.8021 18.584 95.4375 18.7116 95.1914 18.9668C94.9544 19.222 94.7995 19.623 94.7266 20.1699C94.6536 20.7168 94.6172 21.4277 94.6172 22.3027V23.0137H91.8281V22.4258C91.8281 21.5508 91.8828 20.7396 91.9922 19.9922C92.1016 19.2357 92.3112 18.5794 92.6211 18.0234C92.931 17.4674 93.3822 17.0345 93.9746 16.7246C94.5762 16.4056 95.3646 16.2461 96.3398 16.2461C97.2695 16.2461 98.0169 16.3965 98.582 16.6973C99.1562 16.9889 99.5938 17.4219 99.8945 17.9961C100.204 18.5703 100.414 19.2812 100.523 20.1289C100.633 20.9674 100.688 21.9382 100.688 23.041V37H97.8711V35.2227C97.7891 35.4961 97.6296 35.7878 97.3926 36.0977C97.1556 36.3984 96.8457 36.6536 96.4629 36.8633C96.0801 37.0729 95.6198 37.1777 95.082 37.1777ZM95.875 34.9082C96.3672 34.9082 96.791 34.7533 97.1465 34.4434C97.502 34.1243 97.7389 33.8099 97.8574 33.5V25.6934C97.1556 26.0033 96.5768 26.2858 96.1211 26.541C95.6745 26.7871 95.3236 27.0469 95.0684 27.3203C94.8223 27.5938 94.6491 27.9219 94.5488 28.3047C94.4486 28.6875 94.3984 29.1706 94.3984 29.7539V31.6543C94.3984 32.8118 94.4987 33.6458 94.6992 34.1562C94.8997 34.6576 95.2917 34.9082 95.875 34.9082ZM113.676 37L109.67 12.9375H112.363L113.963 23.123L115.33 32.0781H115.385L116.574 23.123L117.955 12.9375H120.621L116.971 37H113.676ZM123.232 37V16.4922H126.049V37H123.232ZM123.232 14.6055V12.0352H126.049V14.6055H123.232ZM129.07 37V34.9082L133.582 18.9121H129.412V16.4922H136.48V18.4199L131.955 34.6074H136.248V37H129.07Z" fill="#EBF0F4"/>
</svg>
