<svg width="194" height="50" viewBox="0 0 194 50" fill="none" xmlns="http://www.w3.org/2000/svg">
<rect x="1" y="1" width="192" height="48" rx="24" fill="#0C0C0C"/>
<rect x="1" y="1" width="192" height="48" rx="24" stroke="#9C4CFD" stroke-width="1.2"/>
<path d="M41.5488 37.2871C40.3639 37.2871 39.4206 37.0547 38.7188 36.5898C38.026 36.1159 37.5293 35.4004 37.2285 34.4434C36.9277 33.4863 36.7773 32.2786 36.7773 30.8203V12.9375H39.6074V30.752C39.6074 31.6178 39.6393 32.3607 39.7031 32.9805C39.7669 33.6003 39.9355 34.0742 40.209 34.4023C40.4824 34.7305 40.929 34.8945 41.5488 34.8945C42.1777 34.8945 42.6243 34.7305 42.8887 34.4023C43.153 34.0742 43.3125 33.6048 43.3672 32.9941C43.431 32.3743 43.4629 31.6315 43.4629 30.7656V12.9375H46.2793V30.8203C46.2793 32.2786 46.1335 33.4863 45.8418 34.4434C45.5501 35.4004 45.0579 36.1159 44.3652 36.5898C43.6816 37.0547 42.7428 37.2871 41.5488 37.2871ZM53.8672 37.2734C52.4089 37.2734 51.3014 36.8177 50.5449 35.9062C49.7884 34.9857 49.4102 33.4635 49.4102 31.3398V29.7949H52.1309V31.3262C52.1309 32.4746 52.2539 33.3542 52.5 33.9648C52.7552 34.5755 53.1699 34.8809 53.7441 34.8809C54.3184 34.8809 54.7376 34.694 55.002 34.3203C55.2754 33.9466 55.4121 33.2767 55.4121 32.3105C55.4121 31.8275 55.3392 31.349 55.1934 30.875C55.0475 30.3919 54.8242 29.918 54.5234 29.4531C54.2227 28.9792 53.8353 28.5189 53.3613 28.0723L51.9121 26.6914C51.0462 25.862 50.3854 24.9824 49.9297 24.0527C49.474 23.1139 49.2461 22.1204 49.2461 21.0723C49.2461 19.4134 49.638 18.1966 50.4219 17.4219C51.2057 16.638 52.2858 16.2461 53.6621 16.2461C54.5827 16.2461 55.3574 16.4466 55.9863 16.8477C56.6152 17.2487 57.0892 17.9141 57.4082 18.8438C57.7272 19.7734 57.8867 21.0404 57.8867 22.6445V23.6289H55.2207V22.207C55.2207 21.0586 55.1068 20.179 54.8789 19.5684C54.6602 18.9577 54.2637 18.6523 53.6895 18.6523C53.1335 18.6523 52.7142 18.8164 52.4316 19.1445C52.1582 19.4635 52.0078 20.0514 51.9805 20.9082C51.9714 21.3457 52.026 21.7878 52.1445 22.2344C52.2721 22.681 52.4772 23.123 52.7598 23.5605C53.0423 23.998 53.4069 24.4264 53.8535 24.8457L55.3301 26.2266C56.2871 27.1107 57.0072 28.0632 57.4902 29.084C57.9824 30.0957 58.2285 31.1667 58.2285 32.2969C58.2285 33.8464 57.873 35.0632 57.1621 35.9473C56.4603 36.8314 55.362 37.2734 53.8672 37.2734ZM65.2422 37.2461C64.2578 37.2461 63.4648 37.0775 62.8633 36.7402C62.2708 36.3939 61.8197 35.9062 61.5098 35.2773C61.1999 34.6484 60.9902 33.8965 60.8809 33.0215C60.7806 32.1374 60.7305 31.1621 60.7305 30.0957V22.8496C60.7305 21.8835 60.7988 20.9993 60.9355 20.1973C61.0723 19.3861 61.3092 18.6888 61.6465 18.1055C61.9837 17.513 62.4531 17.0573 63.0547 16.7383C63.6562 16.4102 64.4219 16.2461 65.3516 16.2461C66.2904 16.2461 67.0469 16.4102 67.6211 16.7383C68.1953 17.0664 68.6283 17.5312 68.9199 18.1328C69.2207 18.7253 69.4212 19.4362 69.5215 20.2656C69.6217 21.0859 69.6719 21.9883 69.6719 22.9727V26.8418H63.5469V30.9297C63.5469 32.224 63.6335 33.2129 63.8066 33.8965C63.9889 34.571 64.4766 34.9082 65.2695 34.9082C65.7891 34.9082 66.1582 34.7487 66.377 34.4297C66.6048 34.1016 66.7415 33.6458 66.7871 33.0625C66.8418 32.4701 66.8691 31.7728 66.8691 30.9707V29.3164H69.6172V30.1914C69.6172 31.2578 69.5716 32.224 69.4805 33.0898C69.3984 33.9557 69.2161 34.6986 68.9336 35.3184C68.651 35.9382 68.2135 36.4167 67.6211 36.7539C67.0378 37.082 66.2448 37.2461 65.2422 37.2461ZM63.5332 24.9414H66.8691V22.3301C66.8691 21.5098 66.8418 20.8216 66.7871 20.2656C66.7324 19.7005 66.6003 19.2767 66.3906 18.9941C66.181 18.7025 65.8346 18.5566 65.3516 18.5566C64.8138 18.5566 64.4128 18.7207 64.1484 19.0488C63.8932 19.377 63.7246 19.8327 63.6426 20.416C63.5697 20.9902 63.5332 21.6602 63.5332 22.4258V24.9414ZM73.1035 37V16.4922H75.9199V18.7754C76.1569 17.9824 76.5671 17.3626 77.1504 16.916C77.7428 16.4694 78.4948 16.2461 79.4062 16.2461C79.4245 16.2461 79.4336 16.3691 79.4336 16.6152C79.4427 16.8522 79.4473 17.1257 79.4473 17.4355C79.4473 17.7454 79.4473 18.0234 79.4473 18.2695C79.4473 18.5065 79.4473 18.625 79.4473 18.625C79.0098 18.625 78.5723 18.6797 78.1348 18.7891C77.6973 18.8893 77.2871 19.0671 76.9043 19.3223C76.5215 19.5684 76.1934 19.9056 75.9199 20.334V37H73.1035ZM89.6055 37V15.2891H86.9531V12.9375H94.8965V15.2891H92.4219V37H89.6055ZM101.035 37.2461C100.051 37.2461 99.2578 37.0775 98.6562 36.7402C98.0638 36.3939 97.6126 35.9062 97.3027 35.2773C96.9928 34.6484 96.7832 33.8965 96.6738 33.0215C96.5736 32.1374 96.5234 31.1621 96.5234 30.0957V22.8496C96.5234 21.8835 96.5918 20.9993 96.7285 20.1973C96.8652 19.3861 97.1022 18.6888 97.4395 18.1055C97.7767 17.513 98.2461 17.0573 98.8477 16.7383C99.4492 16.4102 100.215 16.2461 101.145 16.2461C102.083 16.2461 102.84 16.4102 103.414 16.7383C103.988 17.0664 104.421 17.5312 104.713 18.1328C105.014 18.7253 105.214 19.4362 105.314 20.2656C105.415 21.0859 105.465 21.9883 105.465 22.9727V26.8418H99.3398V30.9297C99.3398 32.224 99.4264 33.2129 99.5996 33.8965C99.7819 34.571 100.27 34.9082 101.062 34.9082C101.582 34.9082 101.951 34.7487 102.17 34.4297C102.398 34.1016 102.535 33.6458 102.58 33.0625C102.635 32.4701 102.662 31.7728 102.662 30.9707V29.3164H105.41V30.1914C105.41 31.2578 105.365 32.224 105.273 33.0898C105.191 33.9557 105.009 34.6986 104.727 35.3184C104.444 35.9382 104.007 36.4167 103.414 36.7539C102.831 37.082 102.038 37.2461 101.035 37.2461ZM99.3262 24.9414H102.662V22.3301C102.662 21.5098 102.635 20.8216 102.58 20.2656C102.525 19.7005 102.393 19.2767 102.184 18.9941C101.974 18.7025 101.628 18.5566 101.145 18.5566C100.607 18.5566 100.206 18.7207 99.9414 19.0488C99.6862 19.377 99.5176 19.8327 99.4355 20.416C99.3626 20.9902 99.3262 21.6602 99.3262 22.4258V24.9414ZM112.711 37.2734C111.253 37.2734 110.145 36.8177 109.389 35.9062C108.632 34.9857 108.254 33.4635 108.254 31.3398V29.7949H110.975V31.3262C110.975 32.4746 111.098 33.3542 111.344 33.9648C111.599 34.5755 112.014 34.8809 112.588 34.8809C113.162 34.8809 113.581 34.694 113.846 34.3203C114.119 33.9466 114.256 33.2767 114.256 32.3105C114.256 31.8275 114.183 31.349 114.037 30.875C113.891 30.3919 113.668 29.918 113.367 29.4531C113.066 28.9792 112.679 28.5189 112.205 28.0723L110.756 26.6914C109.89 25.862 109.229 24.9824 108.773 24.0527C108.318 23.1139 108.09 22.1204 108.09 21.0723C108.09 19.4134 108.482 18.1966 109.266 17.4219C110.049 16.638 111.13 16.2461 112.506 16.2461C113.426 16.2461 114.201 16.4466 114.83 16.8477C115.459 17.2487 115.933 17.9141 116.252 18.8438C116.571 19.7734 116.73 21.0404 116.73 22.6445V23.6289H114.064V22.207C114.064 21.0586 113.951 20.179 113.723 19.5684C113.504 18.9577 113.107 18.6523 112.533 18.6523C111.977 18.6523 111.558 18.8164 111.275 19.1445C111.002 19.4635 110.852 20.0514 110.824 20.9082C110.815 21.3457 110.87 21.7878 110.988 22.2344C111.116 22.681 111.321 23.123 111.604 23.5605C111.886 23.998 112.251 24.4264 112.697 24.8457L114.174 26.2266C115.131 27.1107 115.851 28.0632 116.334 29.084C116.826 30.0957 117.072 31.1667 117.072 32.2969C117.072 33.8464 116.717 35.0632 116.006 35.9473C115.304 36.8314 114.206 37.2734 112.711 37.2734ZM123.457 37.123C122.582 37.123 121.921 37.0182 121.475 36.8086C121.028 36.599 120.727 36.2617 120.572 35.7969C120.417 35.332 120.34 34.7168 120.34 33.9512V18.7344H118.467V16.6562H120.34V12.9375H123.143V16.6562H125.357V18.7344H123.143V33.7051C123.143 34.0514 123.188 34.3112 123.279 34.4844C123.37 34.6484 123.576 34.7578 123.895 34.8125C124.214 34.8672 124.71 34.8945 125.385 34.8945V37.123H123.457ZM128.064 37V16.4922H130.881V37H128.064ZM128.064 14.6055V12.0352H130.881V14.6055H128.064ZM134.873 37V16.4922H137.676V18.666C137.858 18.028 138.245 17.4629 138.838 16.9707C139.439 16.4785 140.155 16.2324 140.984 16.2324C142.014 16.2324 142.816 16.597 143.391 17.3262C143.965 18.0553 144.252 19.1628 144.252 20.6484V37H141.449V20.6621C141.449 19.9329 141.285 19.4043 140.957 19.0762C140.629 18.748 140.21 18.584 139.699 18.584C139.326 18.584 138.984 18.666 138.674 18.8301C138.364 18.9941 138.118 19.2493 137.936 19.5957C137.762 19.9421 137.676 20.3887 137.676 20.9355V37H134.873ZM152.25 40.1309C151.311 40.1582 150.464 40.0534 149.707 39.8164C148.96 39.5794 148.317 39.2467 147.779 38.8184L148.791 36.9043C149.192 37.1777 149.666 37.4193 150.213 37.6289C150.76 37.8385 151.393 37.9342 152.113 37.916C152.751 37.8978 153.243 37.6562 153.59 37.1914C153.945 36.7357 154.123 36.1204 154.123 35.3457V33.3906C153.859 34.0651 153.494 34.5163 153.029 34.7441C152.564 34.972 152.036 35.0859 151.443 35.0859C150.486 35.0859 149.743 34.8079 149.215 34.252C148.695 33.696 148.331 32.9349 148.121 31.9688C147.921 31.0026 147.82 29.9089 147.82 28.6875V22.8086C147.82 21.5599 147.939 20.4388 148.176 19.4453C148.422 18.4518 148.827 17.668 149.393 17.0938C149.958 16.5104 150.723 16.2279 151.689 16.2461C152.273 16.2552 152.774 16.401 153.193 16.6836C153.622 16.9661 153.932 17.4036 154.123 17.9961V16.4922H156.926V35.0859C156.926 35.6693 156.853 36.2526 156.707 36.8359C156.57 37.4193 156.329 37.9525 155.982 38.4355C155.645 38.9277 155.171 39.3242 154.561 39.625C153.959 39.9349 153.189 40.1035 152.25 40.1309ZM152.523 32.8574C152.888 32.8574 153.189 32.748 153.426 32.5293C153.663 32.3105 153.836 31.9049 153.945 31.3125C154.064 30.7109 154.123 29.8496 154.123 28.7285V22.3984C154.123 21.1497 154.009 20.2018 153.781 19.5547C153.562 18.9076 153.098 18.584 152.387 18.584C151.867 18.584 151.48 18.748 151.225 19.0762C150.979 19.3952 150.819 19.8372 150.746 20.4023C150.673 20.9674 150.637 21.6237 150.637 22.3711V28.7559C150.637 30.1139 150.76 31.1393 151.006 31.832C151.252 32.5156 151.758 32.8574 152.523 32.8574Z" fill="#EBF0F4"/>
</svg>
