<svg width="194" height="50" viewBox="0 0 194 50" fill="none" xmlns="http://www.w3.org/2000/svg">
<rect x="1" y="1" width="192" height="48" rx="24" fill="#0C0C0C"/>
<rect x="1" y="1" width="192" height="48" rx="24" stroke="#9C4CFD" stroke-width="1.2"/>
<path d="M27.8516 37.2734C26.8763 37.2734 26.0833 37.1003 25.4727 36.7539C24.862 36.3984 24.3926 35.8971 24.0645 35.25C23.7363 34.6029 23.5085 33.8418 23.3809 32.9668C23.2624 32.0827 23.2031 31.1074 23.2031 30.041V27.7031H25.9512V30.1504C25.9512 31.8366 26.0697 33.0443 26.3066 33.7734C26.5527 34.4935 27.0768 34.8535 27.8789 34.8535C28.4349 34.8535 28.8405 34.7259 29.0957 34.4707C29.36 34.2064 29.5286 33.7871 29.6016 33.2129C29.6745 32.6387 29.7109 31.8822 29.7109 30.9434C29.7109 29.8678 29.5195 28.9427 29.1367 28.168C28.763 27.3932 28.2207 26.6504 27.5098 25.9395L25.9375 24.3672C25.4818 23.9023 25.0352 23.3965 24.5977 22.8496C24.1602 22.2936 23.7956 21.6647 23.5039 20.9629C23.2214 20.2611 23.0801 19.459 23.0801 18.5566C23.0801 17.3444 23.2077 16.2962 23.4629 15.4121C23.7181 14.528 24.1829 13.8444 24.8574 13.3613C25.5319 12.8783 26.4889 12.6367 27.7285 12.6367C28.7038 12.6367 29.4831 12.8053 30.0664 13.1426C30.6589 13.4798 31.1009 13.9629 31.3926 14.5918C31.6934 15.2116 31.8893 15.9499 31.9805 16.8066C32.0807 17.6634 32.1309 18.6113 32.1309 19.6504V21.0723H29.4238V19.459C29.4238 18.4837 29.3828 17.6725 29.3008 17.0254C29.2279 16.3691 29.0729 15.877 28.8359 15.5488C28.599 15.2207 28.2298 15.0566 27.7285 15.0566C27.2728 15.0566 26.8991 15.1706 26.6074 15.3984C26.3249 15.6172 26.1198 15.959 25.9922 16.4238C25.8646 16.8887 25.8008 17.4857 25.8008 18.2148C25.8008 18.8529 25.8783 19.3815 26.0332 19.8008C26.1882 20.2109 26.4206 20.5938 26.7305 20.9492C27.0495 21.3047 27.4368 21.724 27.8926 22.207L29.5332 23.9434C30.3991 24.8457 31.1055 25.8574 31.6523 26.9785C32.2083 28.0905 32.4863 29.3848 32.4863 30.8613C32.4863 32.1921 32.3542 33.3359 32.0898 34.293C31.8346 35.25 31.3743 35.9883 30.709 36.5078C30.0436 37.0182 29.0911 37.2734 27.8516 37.2734ZM39.5273 37.2461C38.543 37.2461 37.75 37.0775 37.1484 36.7402C36.556 36.3939 36.1048 35.9062 35.7949 35.2773C35.485 34.6484 35.2754 33.8965 35.166 33.0215C35.0658 32.1374 35.0156 31.1621 35.0156 30.0957V22.8496C35.0156 21.8835 35.084 20.9993 35.2207 20.1973C35.3574 19.3861 35.5944 18.6888 35.9316 18.1055C36.2689 17.513 36.7383 17.0573 37.3398 16.7383C37.9414 16.4102 38.707 16.2461 39.6367 16.2461C40.5755 16.2461 41.332 16.4102 41.9062 16.7383C42.4805 17.0664 42.9134 17.5312 43.2051 18.1328C43.5059 18.7253 43.7064 19.4362 43.8066 20.2656C43.9069 21.0859 43.957 21.9883 43.957 22.9727V26.8418H37.832V30.9297C37.832 32.224 37.9186 33.2129 38.0918 33.8965C38.2741 34.571 38.7617 34.9082 39.5547 34.9082C40.0742 34.9082 40.4434 34.7487 40.6621 34.4297C40.89 34.1016 41.0267 33.6458 41.0723 33.0625C41.127 32.4701 41.1543 31.7728 41.1543 30.9707V29.3164H43.9023V30.1914C43.9023 31.2578 43.8568 32.224 43.7656 33.0898C43.6836 33.9557 43.5013 34.6986 43.2188 35.3184C42.9362 35.9382 42.4987 36.4167 41.9062 36.7539C41.3229 37.082 40.5299 37.2461 39.5273 37.2461ZM37.8184 24.9414H41.1543V22.3301C41.1543 21.5098 41.127 20.8216 41.0723 20.2656C41.0176 19.7005 40.8854 19.2767 40.6758 18.9941C40.4661 18.7025 40.1198 18.5566 39.6367 18.5566C39.099 18.5566 38.6979 18.7207 38.4336 19.0488C38.1784 19.377 38.0098 19.8327 37.9277 20.416C37.8548 20.9902 37.8184 21.6602 37.8184 22.4258V24.9414ZM47.3887 37V16.4922H50.2051V18.7754C50.4421 17.9824 50.8522 17.3626 51.4355 16.916C52.028 16.4694 52.7799 16.2461 53.6914 16.2461C53.7096 16.2461 53.7188 16.3691 53.7188 16.6152C53.7279 16.8522 53.7324 17.1257 53.7324 17.4355C53.7324 17.7454 53.7324 18.0234 53.7324 18.2695C53.7324 18.5065 53.7324 18.625 53.7324 18.625C53.2949 18.625 52.8574 18.6797 52.4199 18.7891C51.9824 18.8893 51.5723 19.0671 51.1895 19.3223C50.8066 19.5684 50.4785 19.9056 50.2051 20.334V37H47.3887ZM57.793 37L54.8262 16.4922H57.3691L58.9688 28.127L59.5293 32.9805H59.625L60.1035 28.1133L61.5254 16.4922H64.082L61.0879 37H57.793ZM66.7754 37V16.4922H69.5918V37H66.7754ZM66.7754 14.6055V12.0352H69.5918V14.6055H66.7754ZM77.9043 37.2461C76.9108 37.2461 76.1087 37.0775 75.498 36.7402C74.8965 36.403 74.4362 35.9199 74.1172 35.291C73.8073 34.653 73.5977 33.8965 73.4883 33.0215C73.3789 32.1374 73.3242 31.1576 73.3242 30.082V23.2188C73.3242 21.8516 73.4382 20.6439 73.666 19.5957C73.8939 18.5475 74.3405 17.7272 75.0059 17.1348C75.6712 16.5423 76.6602 16.2461 77.9727 16.2461C78.8841 16.2461 79.6178 16.3965 80.1738 16.6973C80.7389 16.998 81.1673 17.431 81.459 17.9961C81.7598 18.5612 81.9603 19.2357 82.0605 20.0195C82.1699 20.8034 82.2246 21.6738 82.2246 22.6309V24.0527H79.4629V22.248C79.4629 21.4642 79.4355 20.8079 79.3809 20.2793C79.3353 19.7415 79.2077 19.3359 78.998 19.0625C78.7884 18.7891 78.4375 18.6523 77.9453 18.6523C77.4258 18.6523 77.0384 18.8027 76.7832 19.1035C76.528 19.3952 76.3548 19.819 76.2637 20.375C76.1816 20.9219 76.1406 21.5736 76.1406 22.3301V31.0527C76.1406 31.9004 76.1771 32.6068 76.25 33.1719C76.3229 33.7279 76.4824 34.1471 76.7285 34.4297C76.9746 34.7031 77.3529 34.8398 77.8633 34.8398C78.3555 34.8398 78.7109 34.694 78.9297 34.4023C79.1576 34.1016 79.3034 33.6732 79.3672 33.1172C79.431 32.5521 79.4629 31.8822 79.4629 31.1074V29.125H82.2246V30.4512C82.2246 31.4629 82.1745 32.3835 82.0742 33.2129C81.974 34.0423 81.7734 34.7578 81.4727 35.3594C81.181 35.9609 80.748 36.4258 80.1738 36.7539C79.5996 37.082 78.8431 37.2461 77.9043 37.2461ZM89.8398 37.2461C88.8555 37.2461 88.0625 37.0775 87.4609 36.7402C86.8685 36.3939 86.4173 35.9062 86.1074 35.2773C85.7975 34.6484 85.5879 33.8965 85.4785 33.0215C85.3783 32.1374 85.3281 31.1621 85.3281 30.0957V22.8496C85.3281 21.8835 85.3965 20.9993 85.5332 20.1973C85.6699 19.3861 85.9069 18.6888 86.2441 18.1055C86.5814 17.513 87.0508 17.0573 87.6523 16.7383C88.2539 16.4102 89.0195 16.2461 89.9492 16.2461C90.888 16.2461 91.6445 16.4102 92.2188 16.7383C92.793 17.0664 93.2259 17.5312 93.5176 18.1328C93.8184 18.7253 94.0189 19.4362 94.1191 20.2656C94.2194 21.0859 94.2695 21.9883 94.2695 22.9727V26.8418H88.1445V30.9297C88.1445 32.224 88.2311 33.2129 88.4043 33.8965C88.5866 34.571 89.0742 34.9082 89.8672 34.9082C90.3867 34.9082 90.7559 34.7487 90.9746 34.4297C91.2025 34.1016 91.3392 33.6458 91.3848 33.0625C91.4395 32.4701 91.4668 31.7728 91.4668 30.9707V29.3164H94.2148V30.1914C94.2148 31.2578 94.1693 32.224 94.0781 33.0898C93.9961 33.9557 93.8138 34.6986 93.5312 35.3184C93.2487 35.9382 92.8112 36.4167 92.2188 36.7539C91.6354 37.082 90.8424 37.2461 89.8398 37.2461ZM88.1309 24.9414H91.4668V22.3301C91.4668 21.5098 91.4395 20.8216 91.3848 20.2656C91.3301 19.7005 91.1979 19.2767 90.9883 18.9941C90.7786 18.7025 90.4323 18.5566 89.9492 18.5566C89.4115 18.5566 89.0104 18.7207 88.7461 19.0488C88.4909 19.377 88.3223 19.8327 88.2402 20.416C88.1673 20.9902 88.1309 21.6602 88.1309 22.4258V24.9414ZM104.414 37V12.9375H108.939C110.197 12.9375 111.177 13.2018 111.879 13.7305C112.581 14.25 113.073 14.9974 113.355 15.9727C113.638 16.9479 113.779 18.1146 113.779 19.4727L113.793 30.041C113.793 31.6634 113.629 32.9896 113.301 34.0195C112.982 35.0404 112.458 35.7923 111.729 36.2754C111.008 36.7585 110.047 37 108.844 37H104.414ZM107.23 34.7168H108.68C109.19 34.7168 109.614 34.6074 109.951 34.3887C110.288 34.1608 110.539 33.7415 110.703 33.1309C110.876 32.5202 110.963 31.6361 110.963 30.4785V19.4043C110.963 17.8913 110.785 16.8112 110.43 16.1641C110.074 15.5078 109.491 15.1797 108.68 15.1797H107.23V34.7168ZM121.695 37.2461C120.711 37.2461 119.918 37.0775 119.316 36.7402C118.724 36.3939 118.273 35.9062 117.963 35.2773C117.653 34.6484 117.443 33.8965 117.334 33.0215C117.234 32.1374 117.184 31.1621 117.184 30.0957V22.8496C117.184 21.8835 117.252 20.9993 117.389 20.1973C117.525 19.3861 117.762 18.6888 118.1 18.1055C118.437 17.513 118.906 17.0573 119.508 16.7383C120.109 16.4102 120.875 16.2461 121.805 16.2461C122.743 16.2461 123.5 16.4102 124.074 16.7383C124.648 17.0664 125.081 17.5312 125.373 18.1328C125.674 18.7253 125.874 19.4362 125.975 20.2656C126.075 21.0859 126.125 21.9883 126.125 22.9727V26.8418H120V30.9297C120 32.224 120.087 33.2129 120.26 33.8965C120.442 34.571 120.93 34.9082 121.723 34.9082C122.242 34.9082 122.611 34.7487 122.83 34.4297C123.058 34.1016 123.195 33.6458 123.24 33.0625C123.295 32.4701 123.322 31.7728 123.322 30.9707V29.3164H126.07V30.1914C126.07 31.2578 126.025 32.224 125.934 33.0898C125.852 33.9557 125.669 34.6986 125.387 35.3184C125.104 35.9382 124.667 36.4167 124.074 36.7539C123.491 37.082 122.698 37.2461 121.695 37.2461ZM119.986 24.9414H123.322V22.3301C123.322 21.5098 123.295 20.8216 123.24 20.2656C123.186 19.7005 123.053 19.2767 122.844 18.9941C122.634 18.7025 122.288 18.5566 121.805 18.5566C121.267 18.5566 120.866 18.7207 120.602 19.0488C120.346 19.377 120.178 19.8327 120.096 20.416C120.023 20.9902 119.986 21.6602 119.986 22.4258V24.9414ZM133.371 37.2734C131.913 37.2734 130.805 36.8177 130.049 35.9062C129.292 34.9857 128.914 33.4635 128.914 31.3398V29.7949H131.635V31.3262C131.635 32.4746 131.758 33.3542 132.004 33.9648C132.259 34.5755 132.674 34.8809 133.248 34.8809C133.822 34.8809 134.242 34.694 134.506 34.3203C134.779 33.9466 134.916 33.2767 134.916 32.3105C134.916 31.8275 134.843 31.349 134.697 30.875C134.551 30.3919 134.328 29.918 134.027 29.4531C133.727 28.9792 133.339 28.5189 132.865 28.0723L131.416 26.6914C130.55 25.862 129.889 24.9824 129.434 24.0527C128.978 23.1139 128.75 22.1204 128.75 21.0723C128.75 19.4134 129.142 18.1966 129.926 17.4219C130.71 16.638 131.79 16.2461 133.166 16.2461C134.087 16.2461 134.861 16.4466 135.49 16.8477C136.119 17.2487 136.593 17.9141 136.912 18.8438C137.231 19.7734 137.391 21.0404 137.391 22.6445V23.6289H134.725V22.207C134.725 21.0586 134.611 20.179 134.383 19.5684C134.164 18.9577 133.768 18.6523 133.193 18.6523C132.637 18.6523 132.218 18.8164 131.936 19.1445C131.662 19.4635 131.512 20.0514 131.484 20.9082C131.475 21.3457 131.53 21.7878 131.648 22.2344C131.776 22.681 131.981 23.123 132.264 23.5605C132.546 23.998 132.911 24.4264 133.357 24.8457L134.834 26.2266C135.791 27.1107 136.511 28.0632 136.994 29.084C137.486 30.0957 137.732 31.1667 137.732 32.2969C137.732 33.8464 137.377 35.0632 136.666 35.9473C135.964 36.8314 134.866 37.2734 133.371 37.2734ZM140.576 37V16.4922H143.393V37H140.576ZM140.576 14.6055V12.0352H143.393V14.6055H140.576ZM151.527 40.1309C150.589 40.1582 149.741 40.0534 148.984 39.8164C148.237 39.5794 147.594 39.2467 147.057 38.8184L148.068 36.9043C148.469 37.1777 148.943 37.4193 149.49 37.6289C150.037 37.8385 150.671 37.9342 151.391 37.916C152.029 37.8978 152.521 37.6562 152.867 37.1914C153.223 36.7357 153.4 36.1204 153.4 35.3457V33.3906C153.136 34.0651 152.771 34.5163 152.307 34.7441C151.842 34.972 151.313 35.0859 150.721 35.0859C149.764 35.0859 149.021 34.8079 148.492 34.252C147.973 33.696 147.608 32.9349 147.398 31.9688C147.198 31.0026 147.098 29.9089 147.098 28.6875V22.8086C147.098 21.5599 147.216 20.4388 147.453 19.4453C147.699 18.4518 148.105 17.668 148.67 17.0938C149.235 16.5104 150.001 16.2279 150.967 16.2461C151.55 16.2552 152.051 16.401 152.471 16.6836C152.899 16.9661 153.209 17.4036 153.4 17.9961V16.4922H156.203V35.0859C156.203 35.6693 156.13 36.2526 155.984 36.8359C155.848 37.4193 155.606 37.9525 155.26 38.4355C154.923 38.9277 154.449 39.3242 153.838 39.625C153.236 39.9349 152.466 40.1035 151.527 40.1309ZM151.801 32.8574C152.165 32.8574 152.466 32.748 152.703 32.5293C152.94 32.3105 153.113 31.9049 153.223 31.3125C153.341 30.7109 153.4 29.8496 153.4 28.7285V22.3984C153.4 21.1497 153.286 20.2018 153.059 19.5547C152.84 18.9076 152.375 18.584 151.664 18.584C151.145 18.584 150.757 18.748 150.502 19.0762C150.256 19.3952 150.096 19.8372 150.023 20.4023C149.951 20.9674 149.914 21.6237 149.914 22.3711V28.7559C149.914 30.1139 150.037 31.1393 150.283 31.832C150.529 32.5156 151.035 32.8574 151.801 32.8574ZM160.1 37V16.4922H162.902V18.666C163.085 18.028 163.472 17.4629 164.064 16.9707C164.666 16.4785 165.382 16.2324 166.211 16.2324C167.241 16.2324 168.043 16.597 168.617 17.3262C169.191 18.0553 169.479 19.1628 169.479 20.6484V37H166.676V20.6621C166.676 19.9329 166.512 19.4043 166.184 19.0762C165.855 18.748 165.436 18.584 164.926 18.584C164.552 18.584 164.21 18.666 163.9 18.8301C163.59 18.9941 163.344 19.2493 163.162 19.5957C162.989 19.9421 162.902 20.3887 162.902 20.9355V37H160.1Z" fill="#EBF0F4"/>
</svg>
