<svg width="194" height="50" viewBox="0 0 194 50" fill="none" xmlns="http://www.w3.org/2000/svg">
<rect x="1" y="1" width="192" height="48" rx="24" fill="#0C0C0C"/>
<rect x="1" y="1" width="192" height="48" rx="24" stroke="#EBF0F4" stroke-width="1.2"/>
<path d="M54.9688 37V12.9375H58.2227L61.9414 32.1738L65.4824 12.9375H68.75V37H66.3301V27.8945L66.5625 18.8984L62.9395 37H60.916L57.1426 18.8984L57.375 27.8945V37H54.9688ZM76.5703 37.2734C75.5951 37.2734 74.8021 37.1003 74.1914 36.7539C73.5807 36.3984 73.1113 35.8971 72.7832 35.25C72.4551 34.6029 72.2272 33.8418 72.0996 32.9668C71.9811 32.0827 71.9219 31.1074 71.9219 30.041V27.7031H74.6699V30.1504C74.6699 31.8366 74.7884 33.0443 75.0254 33.7734C75.2715 34.4935 75.7956 34.8535 76.5977 34.8535C77.1536 34.8535 77.5592 34.7259 77.8145 34.4707C78.0788 34.2064 78.2474 33.7871 78.3203 33.2129C78.3932 32.6387 78.4297 31.8822 78.4297 30.9434C78.4297 29.8678 78.2383 28.9427 77.8555 28.168C77.4818 27.3932 76.9395 26.6504 76.2285 25.9395L74.6562 24.3672C74.2005 23.9023 73.7539 23.3965 73.3164 22.8496C72.8789 22.2936 72.5143 21.6647 72.2227 20.9629C71.9401 20.2611 71.7988 19.459 71.7988 18.5566C71.7988 17.3444 71.9264 16.2962 72.1816 15.4121C72.4368 14.528 72.9017 13.8444 73.5762 13.3613C74.2507 12.8783 75.2077 12.6367 76.4473 12.6367C77.4225 12.6367 78.2018 12.8053 78.7852 13.1426C79.3776 13.4798 79.8197 13.9629 80.1113 14.5918C80.4121 15.2116 80.6081 15.9499 80.6992 16.8066C80.7995 17.6634 80.8496 18.6113 80.8496 19.6504V21.0723H78.1426V19.459C78.1426 18.4837 78.1016 17.6725 78.0195 17.0254C77.9466 16.3691 77.7917 15.877 77.5547 15.5488C77.3177 15.2207 76.9486 15.0566 76.4473 15.0566C75.9915 15.0566 75.6178 15.1706 75.3262 15.3984C75.0436 15.6172 74.8385 15.959 74.7109 16.4238C74.5833 16.8887 74.5195 17.4857 74.5195 18.2148C74.5195 18.8529 74.597 19.3815 74.752 19.8008C74.9069 20.2109 75.1393 20.5938 75.4492 20.9492C75.7682 21.3047 76.1556 21.724 76.6113 22.207L78.252 23.9434C79.1178 24.8457 79.8242 25.8574 80.3711 26.9785C80.9271 28.0905 81.2051 29.3848 81.2051 30.8613C81.2051 32.1921 81.0729 33.3359 80.8086 34.293C80.5534 35.25 80.0931 35.9883 79.4277 36.5078C78.7624 37.0182 77.8099 37.2734 76.5703 37.2734ZM90.7617 37V12.9375H97.9531V15.2891H93.5918V23.5195H97.7207V25.8711H93.5918V34.6484H98.0078V37H90.7617ZM99.5391 37L102.984 26.4316L99.7715 16.4922H102.246L104.406 23.041L106.32 16.4922H108.863L105.555 26.5273L109 37H106.389L104.146 30.0273L102.082 37H99.5391ZM115.686 37.2461C114.692 37.2461 113.89 37.0775 113.279 36.7402C112.678 36.403 112.217 35.9199 111.898 35.291C111.589 34.653 111.379 33.8965 111.27 33.0215C111.16 32.1374 111.105 31.1576 111.105 30.082V23.2188C111.105 21.8516 111.219 20.6439 111.447 19.5957C111.675 18.5475 112.122 17.7272 112.787 17.1348C113.452 16.5423 114.441 16.2461 115.754 16.2461C116.665 16.2461 117.399 16.3965 117.955 16.6973C118.52 16.998 118.949 17.431 119.24 17.9961C119.541 18.5612 119.742 19.2357 119.842 20.0195C119.951 20.8034 120.006 21.6738 120.006 22.6309V24.0527H117.244V22.248C117.244 21.4642 117.217 20.8079 117.162 20.2793C117.117 19.7415 116.989 19.3359 116.779 19.0625C116.57 18.7891 116.219 18.6523 115.727 18.6523C115.207 18.6523 114.82 18.8027 114.564 19.1035C114.309 19.3952 114.136 19.819 114.045 20.375C113.963 20.9219 113.922 21.5736 113.922 22.3301V31.0527C113.922 31.9004 113.958 32.6068 114.031 33.1719C114.104 33.7279 114.264 34.1471 114.51 34.4297C114.756 34.7031 115.134 34.8398 115.645 34.8398C116.137 34.8398 116.492 34.694 116.711 34.4023C116.939 34.1016 117.085 33.6732 117.148 33.1172C117.212 32.5521 117.244 31.8822 117.244 31.1074V29.125H120.006V30.4512C120.006 31.4629 119.956 32.3835 119.855 33.2129C119.755 34.0423 119.555 34.7578 119.254 35.3594C118.962 35.9609 118.529 36.4258 117.955 36.7539C117.381 37.082 116.624 37.2461 115.686 37.2461ZM127.621 37.2461C126.637 37.2461 125.844 37.0775 125.242 36.7402C124.65 36.3939 124.199 35.9062 123.889 35.2773C123.579 34.6484 123.369 33.8965 123.26 33.0215C123.16 32.1374 123.109 31.1621 123.109 30.0957V22.8496C123.109 21.8835 123.178 20.9993 123.314 20.1973C123.451 19.3861 123.688 18.6888 124.025 18.1055C124.363 17.513 124.832 17.0573 125.434 16.7383C126.035 16.4102 126.801 16.2461 127.73 16.2461C128.669 16.2461 129.426 16.4102 130 16.7383C130.574 17.0664 131.007 17.5312 131.299 18.1328C131.6 18.7253 131.8 19.4362 131.9 20.2656C132.001 21.0859 132.051 21.9883 132.051 22.9727V26.8418H125.926V30.9297C125.926 32.224 126.012 33.2129 126.186 33.8965C126.368 34.571 126.855 34.9082 127.648 34.9082C128.168 34.9082 128.537 34.7487 128.756 34.4297C128.984 34.1016 129.12 33.6458 129.166 33.0625C129.221 32.4701 129.248 31.7728 129.248 30.9707V29.3164H131.996V30.1914C131.996 31.2578 131.951 32.224 131.859 33.0898C131.777 33.9557 131.595 34.6986 131.312 35.3184C131.03 35.9382 130.592 36.4167 130 36.7539C129.417 37.082 128.624 37.2461 127.621 37.2461ZM125.912 24.9414H129.248V22.3301C129.248 21.5098 129.221 20.8216 129.166 20.2656C129.111 19.7005 128.979 19.2767 128.77 18.9941C128.56 18.7025 128.214 18.5566 127.73 18.5566C127.193 18.5566 126.792 18.7207 126.527 19.0488C126.272 19.377 126.104 19.8327 126.021 20.416C125.949 20.9902 125.912 21.6602 125.912 22.4258V24.9414ZM135.482 37V12.6777H138.285V37H135.482Z" fill="#EBF0F4"/>
</svg>
