<svg width="194" height="50" viewBox="0 0 194 50" fill="none" xmlns="http://www.w3.org/2000/svg">
<rect x="1" y="1" width="192" height="48" rx="24" fill="#0C0C0C"/>
<rect x="1" y="1" width="192" height="48" rx="24" stroke="#9C4CFD" stroke-width="1.2"/>
<path d="M39.4688 37V12.9375H44.3086C45.2656 12.9375 46.0404 13.097 46.6328 13.416C47.2344 13.735 47.6947 14.1953 48.0137 14.7969C48.3327 15.3984 48.5469 16.123 48.6562 16.9707C48.7747 17.8184 48.834 18.7708 48.834 19.8281V20.1973C48.834 21.8105 48.7064 23.1641 48.4512 24.2578C48.2051 25.3516 47.7539 26.1764 47.0977 26.7324C46.4505 27.2793 45.5208 27.5527 44.3086 27.5527H42.2988V37H39.4688ZM42.2988 25.2012H44.0215C44.5775 25.2012 44.9967 25.0462 45.2793 24.7363C45.5618 24.4173 45.7533 23.8932 45.8535 23.1641C45.9629 22.4349 46.0176 21.446 46.0176 20.1973V19.7324C46.0176 18.1829 45.8991 17.0391 45.6621 16.3008C45.4251 15.5534 44.901 15.1797 44.0898 15.1797H42.2988V25.2012ZM51.7324 37V16.4922H54.5488V18.7754C54.7858 17.9824 55.196 17.3626 55.7793 16.916C56.3717 16.4694 57.1237 16.2461 58.0352 16.2461C58.0534 16.2461 58.0625 16.3691 58.0625 16.6152C58.0716 16.8522 58.0762 17.1257 58.0762 17.4355C58.0762 17.7454 58.0762 18.0234 58.0762 18.2695C58.0762 18.5065 58.0762 18.625 58.0762 18.625C57.6387 18.625 57.2012 18.6797 56.7637 18.7891C56.3262 18.8893 55.916 19.0671 55.5332 19.3223C55.1504 19.5684 54.8223 19.9056 54.5488 20.334V37H51.7324ZM64.7754 37.2461C63.8092 37.2461 63.0254 37.082 62.4238 36.7539C61.8223 36.4167 61.3574 35.9427 61.0293 35.332C60.7103 34.7122 60.4915 33.974 60.373 33.1172C60.2546 32.2513 60.1953 31.2852 60.1953 30.2188V22.959C60.1953 21.6738 60.3184 20.5254 60.5645 19.5137C60.8105 18.502 61.2617 17.7044 61.918 17.1211C62.5833 16.5378 63.5358 16.2461 64.7754 16.2461C65.7051 16.2461 66.4661 16.4147 67.0586 16.752C67.651 17.0801 68.1113 17.5495 68.4395 18.1602C68.7676 18.7617 68.9909 19.4727 69.1094 20.293C69.237 21.1042 69.3008 21.9928 69.3008 22.959V30.2188C69.3008 31.2669 69.2461 32.2194 69.1367 33.0762C69.0273 33.9329 68.8132 34.6758 68.4941 35.3047C68.1842 35.9245 67.7285 36.403 67.127 36.7402C66.5345 37.0775 65.7507 37.2461 64.7754 37.2461ZM64.7754 34.9082C65.2676 34.9082 65.6322 34.7441 65.8691 34.416C66.1152 34.0879 66.2793 33.6322 66.3613 33.0488C66.4434 32.4564 66.4844 31.7728 66.4844 30.998V22.3984C66.4844 21.6328 66.4434 20.9674 66.3613 20.4023C66.2793 19.8281 66.1152 19.3815 65.8691 19.0625C65.623 18.7435 65.2585 18.584 64.7754 18.584C64.265 18.584 63.8822 18.7435 63.627 19.0625C63.3717 19.3815 63.2031 19.8281 63.1211 20.4023C63.0482 20.9674 63.0117 21.6328 63.0117 22.3984V30.998C63.0117 31.7728 63.0482 32.4564 63.1211 33.0488C63.2031 33.6322 63.3717 34.0879 63.627 34.416C63.8822 34.7441 64.265 34.9082 64.7754 34.9082ZM76.5742 37.123C75.6992 37.123 75.0384 37.0182 74.5918 36.8086C74.1452 36.599 73.8444 36.2617 73.6895 35.7969C73.5345 35.332 73.457 34.7168 73.457 33.9512V18.7344H71.584V16.6562H73.457V12.9375H76.2598V16.6562H78.4746V18.7344H76.2598V33.7051C76.2598 34.0514 76.3053 34.3112 76.3965 34.4844C76.4876 34.6484 76.6927 34.7578 77.0117 34.8125C77.3307 34.8672 77.8275 34.8945 78.502 34.8945V37.123H76.5742ZM85.4199 37.2461C84.4538 37.2461 83.6699 37.082 83.0684 36.7539C82.4668 36.4167 82.002 35.9427 81.6738 35.332C81.3548 34.7122 81.1361 33.974 81.0176 33.1172C80.8991 32.2513 80.8398 31.2852 80.8398 30.2188V22.959C80.8398 21.6738 80.9629 20.5254 81.209 19.5137C81.4551 18.502 81.9062 17.7044 82.5625 17.1211C83.2279 16.5378 84.1803 16.2461 85.4199 16.2461C86.3496 16.2461 87.1107 16.4147 87.7031 16.752C88.2956 17.0801 88.7559 17.5495 89.084 18.1602C89.4121 18.7617 89.6354 19.4727 89.7539 20.293C89.8815 21.1042 89.9453 21.9928 89.9453 22.959V30.2188C89.9453 31.2669 89.8906 32.2194 89.7812 33.0762C89.6719 33.9329 89.4577 34.6758 89.1387 35.3047C88.8288 35.9245 88.373 36.403 87.7715 36.7402C87.179 37.0775 86.3952 37.2461 85.4199 37.2461ZM85.4199 34.9082C85.9121 34.9082 86.2767 34.7441 86.5137 34.416C86.7598 34.0879 86.9238 33.6322 87.0059 33.0488C87.0879 32.4564 87.1289 31.7728 87.1289 30.998V22.3984C87.1289 21.6328 87.0879 20.9674 87.0059 20.4023C86.9238 19.8281 86.7598 19.3815 86.5137 19.0625C86.2676 18.7435 85.903 18.584 85.4199 18.584C84.9095 18.584 84.5267 18.7435 84.2715 19.0625C84.0163 19.3815 83.8477 19.8281 83.7656 20.4023C83.6927 20.9674 83.6562 21.6328 83.6562 22.3984V30.998C83.6562 31.7728 83.6927 32.4564 83.7656 33.0488C83.8477 33.6322 84.0163 34.0879 84.2715 34.416C84.5267 34.7441 84.9095 34.9082 85.4199 34.9082ZM97.2188 37.123C96.3438 37.123 95.6829 37.0182 95.2363 36.8086C94.7897 36.599 94.4889 36.2617 94.334 35.7969C94.179 35.332 94.1016 34.7168 94.1016 33.9512V18.7344H92.2285V16.6562H94.1016V12.9375H96.9043V16.6562H99.1191V18.7344H96.9043V33.7051C96.9043 34.0514 96.9499 34.3112 97.041 34.4844C97.1322 34.6484 97.3372 34.7578 97.6562 34.8125C97.9753 34.8672 98.472 34.8945 99.1465 34.8945V37.123H97.2188ZM101.211 40.4316V38.3125H102.182C102.583 38.3125 102.929 38.2897 103.221 38.2441C103.521 38.2077 103.704 38.1211 103.768 37.9844C103.877 37.8385 103.918 37.6061 103.891 37.2871C103.872 36.9772 103.836 36.64 103.781 36.2754L100.432 16.4922H103.152L104.629 27.1562L105.23 32.707H105.477L106.01 27.1562L107.35 16.4922H110.057L106.652 37.3965C106.543 38.1348 106.406 38.7272 106.242 39.1738C106.078 39.6204 105.823 39.9395 105.477 40.1309C105.139 40.3314 104.633 40.4316 103.959 40.4316H101.211ZM112.545 40.7461V16.4922H115.348V18.2012C115.621 17.5267 116.022 17.0436 116.551 16.752C117.089 16.4603 117.635 16.3145 118.191 16.3145C119.176 16.3145 119.919 16.6061 120.42 17.1895C120.921 17.7637 121.254 18.5475 121.418 19.541C121.591 20.5345 121.678 21.6602 121.678 22.918V30.3418C121.678 31.6361 121.577 32.8073 121.377 33.8555C121.186 34.8945 120.807 35.7194 120.242 36.3301C119.686 36.9408 118.852 37.2461 117.74 37.2461C117.212 37.2461 116.733 37.0866 116.305 36.7676C115.885 36.4395 115.566 36.0612 115.348 35.6328V40.7461H112.545ZM117.193 34.8945C117.868 34.8854 118.314 34.5482 118.533 33.8828C118.752 33.2083 118.861 32.1556 118.861 30.7246V22.4258C118.861 21.6693 118.829 21.0039 118.766 20.4297C118.702 19.8555 118.556 19.4089 118.328 19.0898C118.1 18.7617 117.74 18.5977 117.248 18.5977C116.856 18.5977 116.519 18.6888 116.236 18.8711C115.954 19.0534 115.735 19.418 115.58 19.9648C115.425 20.5117 115.348 21.332 115.348 22.4258V30.834C115.348 32.1921 115.462 33.2083 115.689 33.8828C115.926 34.5573 116.428 34.8945 117.193 34.8945ZM125.424 37V16.4922H128.24V37H125.424ZM125.424 14.6055V12.0352H128.24V14.6055H125.424ZM132.232 37V16.4922H135.035V18.666C135.217 18.028 135.605 17.4629 136.197 16.9707C136.799 16.4785 137.514 16.2324 138.344 16.2324C139.374 16.2324 140.176 16.597 140.75 17.3262C141.324 18.0553 141.611 19.1628 141.611 20.6484V37H138.809V20.6621C138.809 19.9329 138.645 19.4043 138.316 19.0762C137.988 18.748 137.569 18.584 137.059 18.584C136.685 18.584 136.343 18.666 136.033 18.8301C135.723 18.9941 135.477 19.2493 135.295 19.5957C135.122 19.9421 135.035 20.3887 135.035 20.9355V37H132.232ZM149.609 40.1309C148.671 40.1582 147.823 40.0534 147.066 39.8164C146.319 39.5794 145.676 39.2467 145.139 38.8184L146.15 36.9043C146.551 37.1777 147.025 37.4193 147.572 37.6289C148.119 37.8385 148.753 37.9342 149.473 37.916C150.111 37.8978 150.603 37.6562 150.949 37.1914C151.305 36.7357 151.482 36.1204 151.482 35.3457V33.3906C151.218 34.0651 150.854 34.5163 150.389 34.7441C149.924 34.972 149.395 35.0859 148.803 35.0859C147.846 35.0859 147.103 34.8079 146.574 34.252C146.055 33.696 145.69 32.9349 145.48 31.9688C145.28 31.0026 145.18 29.9089 145.18 28.6875V22.8086C145.18 21.5599 145.298 20.4388 145.535 19.4453C145.781 18.4518 146.187 17.668 146.752 17.0938C147.317 16.5104 148.083 16.2279 149.049 16.2461C149.632 16.2552 150.133 16.401 150.553 16.6836C150.981 16.9661 151.291 17.4036 151.482 17.9961V16.4922H154.285V35.0859C154.285 35.6693 154.212 36.2526 154.066 36.8359C153.93 37.4193 153.688 37.9525 153.342 38.4355C153.005 38.9277 152.531 39.3242 151.92 39.625C151.318 39.9349 150.548 40.1035 149.609 40.1309ZM149.883 32.8574C150.247 32.8574 150.548 32.748 150.785 32.5293C151.022 32.3105 151.195 31.9049 151.305 31.3125C151.423 30.7109 151.482 29.8496 151.482 28.7285V22.3984C151.482 21.1497 151.368 20.2018 151.141 19.5547C150.922 18.9076 150.457 18.584 149.746 18.584C149.227 18.584 148.839 18.748 148.584 19.0762C148.338 19.3952 148.178 19.8372 148.105 20.4023C148.033 20.9674 147.996 21.6237 147.996 22.3711V28.7559C147.996 30.1139 148.119 31.1393 148.365 31.832C148.611 32.5156 149.117 32.8574 149.883 32.8574Z" fill="#EBF0F4"/>
</svg>
