<svg width="194" height="50" viewBox="0 0 194 50" fill="none" xmlns="http://www.w3.org/2000/svg">
<rect x="1" y="1" width="192" height="48" rx="24" fill="#0C0C0C"/>
<rect x="1" y="1" width="192" height="48" rx="24" stroke="#9C4CFD" stroke-width="1.2"/>
<path d="M67.9688 37V12.9375H75.2148V15.3027H70.7852V22.9043H74.9414V25.2969H70.7852V37H67.9688ZM78.2637 37V16.4922H81.0801V37H78.2637ZM78.2637 14.6055V12.0352H81.0801V14.6055H78.2637ZM89.2148 40.1309C88.276 40.1582 87.4284 40.0534 86.6719 39.8164C85.9245 39.5794 85.2819 39.2467 84.7441 38.8184L85.7559 36.9043C86.1569 37.1777 86.6309 37.4193 87.1777 37.6289C87.7246 37.8385 88.3581 37.9342 89.0781 37.916C89.7161 37.8978 90.2083 37.6562 90.5547 37.1914C90.9102 36.7357 91.0879 36.1204 91.0879 35.3457V33.3906C90.8236 34.0651 90.459 34.5163 89.9941 34.7441C89.5293 34.972 89.0007 35.0859 88.4082 35.0859C87.4512 35.0859 86.7083 34.8079 86.1797 34.252C85.6602 33.696 85.2956 32.9349 85.0859 31.9688C84.8854 31.0026 84.7852 29.9089 84.7852 28.6875V22.8086C84.7852 21.5599 84.9036 20.4388 85.1406 19.4453C85.3867 18.4518 85.7923 17.668 86.3574 17.0938C86.9225 16.5104 87.6882 16.2279 88.6543 16.2461C89.2376 16.2552 89.7389 16.401 90.1582 16.6836C90.5866 16.9661 90.8965 17.4036 91.0879 17.9961V16.4922H93.8906V35.0859C93.8906 35.6693 93.8177 36.2526 93.6719 36.8359C93.5352 37.4193 93.2936 37.9525 92.9473 38.4355C92.61 38.9277 92.1361 39.3242 91.5254 39.625C90.9238 39.9349 90.1536 40.1035 89.2148 40.1309ZM89.4883 32.8574C89.8529 32.8574 90.1536 32.748 90.3906 32.5293C90.6276 32.3105 90.8008 31.9049 90.9102 31.3125C91.0286 30.7109 91.0879 29.8496 91.0879 28.7285V22.3984C91.0879 21.1497 90.974 20.2018 90.7461 19.5547C90.5273 18.9076 90.0625 18.584 89.3516 18.584C88.832 18.584 88.4447 18.748 88.1895 19.0762C87.9434 19.3952 87.7839 19.8372 87.7109 20.4023C87.638 20.9674 87.6016 21.6237 87.6016 22.3711V28.7559C87.6016 30.1139 87.7246 31.1393 87.9707 31.832C88.2168 32.5156 88.7227 32.8574 89.4883 32.8574ZM97.7871 37V16.4922H100.59V18.625C100.772 17.9779 101.137 17.4173 101.684 16.9434C102.24 16.4694 102.941 16.2324 103.789 16.2324C104.464 16.2324 105.051 16.3965 105.553 16.7246C106.054 17.0527 106.432 17.5814 106.688 18.3105C107.025 17.6908 107.49 17.1895 108.082 16.8066C108.674 16.4238 109.367 16.2324 110.16 16.2324C111.245 16.2324 112.07 16.6198 112.635 17.3945C113.2 18.1602 113.482 19.2995 113.482 20.8125V37H110.68V20.7305C110.68 19.9557 110.529 19.418 110.229 19.1172C109.928 18.8073 109.531 18.6523 109.039 18.6523C108.337 18.6523 107.827 18.8118 107.508 19.1309C107.198 19.4408 107.043 20.0013 107.043 20.8125V37H104.227V20.7168C104.227 19.9876 104.085 19.4635 103.803 19.1445C103.52 18.8164 103.124 18.6523 102.613 18.6523C101.948 18.6523 101.442 18.8665 101.096 19.2949C100.758 19.7233 100.59 20.3021 100.59 21.0312V37H97.7871ZM120.441 37.1777C119.202 37.1777 118.309 36.6992 117.762 35.7422C117.215 34.776 116.937 33.4408 116.928 31.7363V29.7402C116.928 28.8379 117.083 28.0905 117.393 27.498C117.702 26.8965 118.14 26.3952 118.705 25.9941C119.27 25.5931 119.936 25.2331 120.701 24.9141C121.467 24.5859 122.305 24.2396 123.217 23.875V22.2891C123.217 21.4141 123.189 20.7077 123.135 20.1699C123.08 19.623 122.939 19.222 122.711 18.9668C122.492 18.7116 122.137 18.584 121.645 18.584C121.161 18.584 120.797 18.7116 120.551 18.9668C120.314 19.222 120.159 19.623 120.086 20.1699C120.013 20.7168 119.977 21.4277 119.977 22.3027V23.0137H117.188V22.4258C117.188 21.5508 117.242 20.7396 117.352 19.9922C117.461 19.2357 117.671 18.5794 117.98 18.0234C118.29 17.4674 118.742 17.0345 119.334 16.7246C119.936 16.4056 120.724 16.2461 121.699 16.2461C122.629 16.2461 123.376 16.3965 123.941 16.6973C124.516 16.9889 124.953 17.4219 125.254 17.9961C125.564 18.5703 125.773 19.2812 125.883 20.1289C125.992 20.9674 126.047 21.9382 126.047 23.041V37H123.23V35.2227C123.148 35.4961 122.989 35.7878 122.752 36.0977C122.515 36.3984 122.205 36.6536 121.822 36.8633C121.439 37.0729 120.979 37.1777 120.441 37.1777ZM121.234 34.9082C121.727 34.9082 122.15 34.7533 122.506 34.4434C122.861 34.1243 123.098 33.8099 123.217 33.5V25.6934C122.515 26.0033 121.936 26.2858 121.48 26.541C121.034 26.7871 120.683 27.0469 120.428 27.3203C120.182 27.5938 120.008 27.9219 119.908 28.3047C119.808 28.6875 119.758 29.1706 119.758 29.7539V31.6543C119.758 32.8118 119.858 33.6458 120.059 34.1562C120.259 34.6576 120.651 34.9082 121.234 34.9082Z" fill="#EBF0F4"/>
</svg>
