<svg width="194" height="50" viewBox="0 0 194 50" fill="none" xmlns="http://www.w3.org/2000/svg">
<rect x="1" y="1" width="192" height="48" rx="24" fill="#0C0C0C"/>
<rect x="1" y="1" width="192" height="48" rx="24" stroke="#9C4CFD" stroke-width="1.2"/>
<path d="M55.5488 37.2871C54.3639 37.2871 53.4206 37.0547 52.7188 36.5898C52.026 36.1159 51.5293 35.4004 51.2285 34.4434C50.9277 33.4863 50.7773 32.2786 50.7773 30.8203V12.9375H53.6074V30.752C53.6074 31.6178 53.6393 32.3607 53.7031 32.9805C53.7669 33.6003 53.9355 34.0742 54.209 34.4023C54.4824 34.7305 54.929 34.8945 55.5488 34.8945C56.1777 34.8945 56.6243 34.7305 56.8887 34.4023C57.153 34.0742 57.3125 33.6048 57.3672 32.9941C57.431 32.3743 57.4629 31.6315 57.4629 30.7656V12.9375H60.2793V30.8203C60.2793 32.2786 60.1335 33.4863 59.8418 34.4434C59.5501 35.4004 59.0579 36.1159 58.3652 36.5898C57.6816 37.0547 56.7428 37.2871 55.5488 37.2871ZM64.0117 37V12.9375H66.8418V37H64.0117ZM77.5469 37V12.9375H82.0723C83.3301 12.9375 84.3099 13.2018 85.0117 13.7305C85.7135 14.25 86.2057 14.9974 86.4883 15.9727C86.7708 16.9479 86.9121 18.1146 86.9121 19.4727L86.9258 30.041C86.9258 31.6634 86.7617 32.9896 86.4336 34.0195C86.1146 35.0404 85.5905 35.7923 84.8613 36.2754C84.1413 36.7585 83.1797 37 81.9766 37H77.5469ZM80.3633 34.7168H81.8125C82.3229 34.7168 82.7467 34.6074 83.084 34.3887C83.4212 34.1608 83.6719 33.7415 83.8359 33.1309C84.0091 32.5202 84.0957 31.6361 84.0957 30.4785V19.4043C84.0957 17.8913 83.918 16.8112 83.5625 16.1641C83.207 15.5078 82.6237 15.1797 81.8125 15.1797H80.3633V34.7168ZM94.8281 37.2461C93.8438 37.2461 93.0508 37.0775 92.4492 36.7402C91.8568 36.3939 91.4056 35.9062 91.0957 35.2773C90.7858 34.6484 90.5762 33.8965 90.4668 33.0215C90.3665 32.1374 90.3164 31.1621 90.3164 30.0957V22.8496C90.3164 21.8835 90.3848 20.9993 90.5215 20.1973C90.6582 19.3861 90.8952 18.6888 91.2324 18.1055C91.5697 17.513 92.0391 17.0573 92.6406 16.7383C93.2422 16.4102 94.0078 16.2461 94.9375 16.2461C95.8763 16.2461 96.6328 16.4102 97.207 16.7383C97.7812 17.0664 98.2142 17.5312 98.5059 18.1328C98.8066 18.7253 99.0072 19.4362 99.1074 20.2656C99.2077 21.0859 99.2578 21.9883 99.2578 22.9727V26.8418H93.1328V30.9297C93.1328 32.224 93.2194 33.2129 93.3926 33.8965C93.5749 34.571 94.0625 34.9082 94.8555 34.9082C95.375 34.9082 95.7441 34.7487 95.9629 34.4297C96.1908 34.1016 96.3275 33.6458 96.373 33.0625C96.4277 32.4701 96.4551 31.7728 96.4551 30.9707V29.3164H99.2031V30.1914C99.2031 31.2578 99.1576 32.224 99.0664 33.0898C98.9844 33.9557 98.8021 34.6986 98.5195 35.3184C98.237 35.9382 97.7995 36.4167 97.207 36.7539C96.6237 37.082 95.8307 37.2461 94.8281 37.2461ZM93.1191 24.9414H96.4551V22.3301C96.4551 21.5098 96.4277 20.8216 96.373 20.2656C96.3184 19.7005 96.1862 19.2767 95.9766 18.9941C95.7669 18.7025 95.4206 18.5566 94.9375 18.5566C94.3997 18.5566 93.9987 18.7207 93.7344 19.0488C93.4792 19.377 93.3105 19.8327 93.2285 20.416C93.1556 20.9902 93.1191 21.6602 93.1191 22.4258V24.9414ZM106.504 37.2734C105.046 37.2734 103.938 36.8177 103.182 35.9062C102.425 34.9857 102.047 33.4635 102.047 31.3398V29.7949H104.768V31.3262C104.768 32.4746 104.891 33.3542 105.137 33.9648C105.392 34.5755 105.807 34.8809 106.381 34.8809C106.955 34.8809 107.374 34.694 107.639 34.3203C107.912 33.9466 108.049 33.2767 108.049 32.3105C108.049 31.8275 107.976 31.349 107.83 30.875C107.684 30.3919 107.461 29.918 107.16 29.4531C106.859 28.9792 106.472 28.5189 105.998 28.0723L104.549 26.6914C103.683 25.862 103.022 24.9824 102.566 24.0527C102.111 23.1139 101.883 22.1204 101.883 21.0723C101.883 19.4134 102.275 18.1966 103.059 17.4219C103.842 16.638 104.923 16.2461 106.299 16.2461C107.219 16.2461 107.994 16.4466 108.623 16.8477C109.252 17.2487 109.726 17.9141 110.045 18.8438C110.364 19.7734 110.523 21.0404 110.523 22.6445V23.6289H107.857V22.207C107.857 21.0586 107.743 20.179 107.516 19.5684C107.297 18.9577 106.9 18.6523 106.326 18.6523C105.77 18.6523 105.351 18.8164 105.068 19.1445C104.795 19.4635 104.645 20.0514 104.617 20.9082C104.608 21.3457 104.663 21.7878 104.781 22.2344C104.909 22.681 105.114 23.123 105.396 23.5605C105.679 23.998 106.044 24.4264 106.49 24.8457L107.967 26.2266C108.924 27.1107 109.644 28.0632 110.127 29.084C110.619 30.0957 110.865 31.1667 110.865 32.2969C110.865 33.8464 110.51 35.0632 109.799 35.9473C109.097 36.8314 107.999 37.2734 106.504 37.2734ZM113.709 37V16.4922H116.525V37H113.709ZM113.709 14.6055V12.0352H116.525V14.6055H113.709ZM124.66 40.1309C123.721 40.1582 122.874 40.0534 122.117 39.8164C121.37 39.5794 120.727 39.2467 120.189 38.8184L121.201 36.9043C121.602 37.1777 122.076 37.4193 122.623 37.6289C123.17 37.8385 123.803 37.9342 124.523 37.916C125.161 37.8978 125.654 37.6562 126 37.1914C126.355 36.7357 126.533 36.1204 126.533 35.3457V33.3906C126.269 34.0651 125.904 34.5163 125.439 34.7441C124.975 34.972 124.446 35.0859 123.854 35.0859C122.896 35.0859 122.154 34.8079 121.625 34.252C121.105 33.696 120.741 32.9349 120.531 31.9688C120.331 31.0026 120.23 29.9089 120.23 28.6875V22.8086C120.23 21.5599 120.349 20.4388 120.586 19.4453C120.832 18.4518 121.238 17.668 121.803 17.0938C122.368 16.5104 123.133 16.2279 124.1 16.2461C124.683 16.2552 125.184 16.401 125.604 16.6836C126.032 16.9661 126.342 17.4036 126.533 17.9961V16.4922H129.336V35.0859C129.336 35.6693 129.263 36.2526 129.117 36.8359C128.98 37.4193 128.739 37.9525 128.393 38.4355C128.055 38.9277 127.581 39.3242 126.971 39.625C126.369 39.9349 125.599 40.1035 124.66 40.1309ZM124.934 32.8574C125.298 32.8574 125.599 32.748 125.836 32.5293C126.073 32.3105 126.246 31.9049 126.355 31.3125C126.474 30.7109 126.533 29.8496 126.533 28.7285V22.3984C126.533 21.1497 126.419 20.2018 126.191 19.5547C125.973 18.9076 125.508 18.584 124.797 18.584C124.277 18.584 123.89 18.748 123.635 19.0762C123.389 19.3952 123.229 19.8372 123.156 20.4023C123.083 20.9674 123.047 21.6237 123.047 22.3711V28.7559C123.047 30.1139 123.17 31.1393 123.416 31.832C123.662 32.5156 124.168 32.8574 124.934 32.8574ZM133.232 37V16.4922H136.035V18.666C136.217 18.028 136.605 17.4629 137.197 16.9707C137.799 16.4785 138.514 16.2324 139.344 16.2324C140.374 16.2324 141.176 16.597 141.75 17.3262C142.324 18.0553 142.611 19.1628 142.611 20.6484V37H139.809V20.6621C139.809 19.9329 139.645 19.4043 139.316 19.0762C138.988 18.748 138.569 18.584 138.059 18.584C137.685 18.584 137.343 18.666 137.033 18.8301C136.723 18.9941 136.477 19.2493 136.295 19.5957C136.122 19.9421 136.035 20.3887 136.035 20.9355V37H133.232Z" fill="#EBF0F4"/>
</svg>
