<svg width="194" height="50" viewBox="0 0 194 50" fill="none" xmlns="http://www.w3.org/2000/svg">
<rect x="1" y="1" width="192" height="48" rx="24" fill="#0C0C0C"/>
<rect x="1" y="1" width="192" height="48" rx="24" stroke="#EBF0F4" stroke-width="1.2"/>
<path d="M44.4688 37V12.9375H49.3086C50.2656 12.9375 51.0404 13.097 51.6328 13.416C52.2344 13.735 52.6947 14.1953 53.0137 14.7969C53.3327 15.3984 53.5469 16.123 53.6562 16.9707C53.7747 17.8184 53.834 18.7708 53.834 19.8281V20.1973C53.834 21.8105 53.7064 23.1641 53.4512 24.2578C53.2051 25.3516 52.7539 26.1764 52.0977 26.7324C51.4505 27.2793 50.5208 27.5527 49.3086 27.5527H47.2988V37H44.4688ZM47.2988 25.2012H49.0215C49.5775 25.2012 49.9967 25.0462 50.2793 24.7363C50.5618 24.4173 50.7533 23.8932 50.8535 23.1641C50.9629 22.4349 51.0176 21.446 51.0176 20.1973V19.7324C51.0176 18.1829 50.8991 17.0391 50.6621 16.3008C50.4251 15.5534 49.901 15.1797 49.0898 15.1797H47.2988V25.2012ZM56.7051 37V12.6777H59.5078V18.666C59.6901 18.028 60.0729 17.4629 60.6562 16.9707C61.2487 16.4785 61.9551 16.2324 62.7754 16.2324C63.8053 16.2324 64.612 16.597 65.1953 17.3262C65.7786 18.0553 66.0703 19.1628 66.0703 20.6484V37H63.2676V20.8809C63.2676 20.0423 63.1126 19.4635 62.8027 19.1445C62.502 18.8164 62.0964 18.6523 61.5859 18.6523C61.2122 18.6523 60.8659 18.7435 60.5469 18.9258C60.2279 19.099 59.9727 19.377 59.7812 19.7598C59.599 20.1335 59.5078 20.6211 59.5078 21.2227V37H56.7051ZM74.2598 37.2461C73.2936 37.2461 72.5098 37.082 71.9082 36.7539C71.3066 36.4167 70.8418 35.9427 70.5137 35.332C70.1947 34.7122 69.9759 33.974 69.8574 33.1172C69.7389 32.2513 69.6797 31.2852 69.6797 30.2188V22.959C69.6797 21.6738 69.8027 20.5254 70.0488 19.5137C70.2949 18.502 70.7461 17.7044 71.4023 17.1211C72.0677 16.5378 73.0202 16.2461 74.2598 16.2461C75.1895 16.2461 75.9505 16.4147 76.543 16.752C77.1354 17.0801 77.5957 17.5495 77.9238 18.1602C78.252 18.7617 78.4753 19.4727 78.5938 20.293C78.7214 21.1042 78.7852 21.9928 78.7852 22.959V30.2188C78.7852 31.2669 78.7305 32.2194 78.6211 33.0762C78.5117 33.9329 78.2975 34.6758 77.9785 35.3047C77.6686 35.9245 77.2129 36.403 76.6113 36.7402C76.0189 37.0775 75.235 37.2461 74.2598 37.2461ZM74.2598 34.9082C74.752 34.9082 75.1165 34.7441 75.3535 34.416C75.5996 34.0879 75.7637 33.6322 75.8457 33.0488C75.9277 32.4564 75.9688 31.7728 75.9688 30.998V22.3984C75.9688 21.6328 75.9277 20.9674 75.8457 20.4023C75.7637 19.8281 75.5996 19.3815 75.3535 19.0625C75.1074 18.7435 74.7428 18.584 74.2598 18.584C73.7493 18.584 73.3665 18.7435 73.1113 19.0625C72.8561 19.3815 72.6875 19.8281 72.6055 20.4023C72.5326 20.9674 72.4961 21.6328 72.4961 22.3984V30.998C72.4961 31.7728 72.5326 32.4564 72.6055 33.0488C72.6875 33.6322 72.8561 34.0879 73.1113 34.416C73.3665 34.7441 73.7493 34.9082 74.2598 34.9082ZM86.0586 37.123C85.1836 37.123 84.5228 37.0182 84.0762 36.8086C83.6296 36.599 83.3288 36.2617 83.1738 35.7969C83.0189 35.332 82.9414 34.7168 82.9414 33.9512V18.7344H81.0684V16.6562H82.9414V12.9375H85.7441V16.6562H87.959V18.7344H85.7441V33.7051C85.7441 34.0514 85.7897 34.3112 85.8809 34.4844C85.972 34.6484 86.1771 34.7578 86.4961 34.8125C86.8151 34.8672 87.3118 34.8945 87.9863 34.8945V37.123H86.0586ZM94.9043 37.2461C93.9382 37.2461 93.1543 37.082 92.5527 36.7539C91.9512 36.4167 91.4863 35.9427 91.1582 35.332C90.8392 34.7122 90.6204 33.974 90.502 33.1172C90.3835 32.2513 90.3242 31.2852 90.3242 30.2188V22.959C90.3242 21.6738 90.4473 20.5254 90.6934 19.5137C90.9395 18.502 91.3906 17.7044 92.0469 17.1211C92.7122 16.5378 93.6647 16.2461 94.9043 16.2461C95.834 16.2461 96.5951 16.4147 97.1875 16.752C97.7799 17.0801 98.2402 17.5495 98.5684 18.1602C98.8965 18.7617 99.1198 19.4727 99.2383 20.293C99.3659 21.1042 99.4297 21.9928 99.4297 22.959V30.2188C99.4297 31.2669 99.375 32.2194 99.2656 33.0762C99.1562 33.9329 98.9421 34.6758 98.623 35.3047C98.3132 35.9245 97.8574 36.403 97.2559 36.7402C96.6634 37.0775 95.8796 37.2461 94.9043 37.2461ZM94.9043 34.9082C95.3965 34.9082 95.7611 34.7441 95.998 34.416C96.2441 34.0879 96.4082 33.6322 96.4902 33.0488C96.5723 32.4564 96.6133 31.7728 96.6133 30.998V22.3984C96.6133 21.6328 96.5723 20.9674 96.4902 20.4023C96.4082 19.8281 96.2441 19.3815 95.998 19.0625C95.752 18.7435 95.3874 18.584 94.9043 18.584C94.3939 18.584 94.0111 18.7435 93.7559 19.0625C93.5007 19.3815 93.332 19.8281 93.25 20.4023C93.1771 20.9674 93.1406 21.6328 93.1406 22.3984V30.998C93.1406 31.7728 93.1771 32.4564 93.25 33.0488C93.332 33.6322 93.5007 34.0879 93.7559 34.416C94.0111 34.7441 94.3939 34.9082 94.9043 34.9082ZM106.949 37.2734C105.491 37.2734 104.383 36.8177 103.627 35.9062C102.87 34.9857 102.492 33.4635 102.492 31.3398V29.7949H105.213V31.3262C105.213 32.4746 105.336 33.3542 105.582 33.9648C105.837 34.5755 106.252 34.8809 106.826 34.8809C107.4 34.8809 107.82 34.694 108.084 34.3203C108.357 33.9466 108.494 33.2767 108.494 32.3105C108.494 31.8275 108.421 31.349 108.275 30.875C108.13 30.3919 107.906 29.918 107.605 29.4531C107.305 28.9792 106.917 28.5189 106.443 28.0723L104.994 26.6914C104.128 25.862 103.467 24.9824 103.012 24.0527C102.556 23.1139 102.328 22.1204 102.328 21.0723C102.328 19.4134 102.72 18.1966 103.504 17.4219C104.288 16.638 105.368 16.2461 106.744 16.2461C107.665 16.2461 108.439 16.4466 109.068 16.8477C109.697 17.2487 110.171 17.9141 110.49 18.8438C110.809 19.7734 110.969 21.0404 110.969 22.6445V23.6289H108.303V22.207C108.303 21.0586 108.189 20.179 107.961 19.5684C107.742 18.9577 107.346 18.6523 106.771 18.6523C106.215 18.6523 105.796 18.8164 105.514 19.1445C105.24 19.4635 105.09 20.0514 105.062 20.9082C105.053 21.3457 105.108 21.7878 105.227 22.2344C105.354 22.681 105.559 23.123 105.842 23.5605C106.124 23.998 106.489 24.4264 106.936 24.8457L108.412 26.2266C109.369 27.1107 110.089 28.0632 110.572 29.084C111.064 30.0957 111.311 31.1667 111.311 32.2969C111.311 33.8464 110.955 35.0632 110.244 35.9473C109.542 36.8314 108.444 37.2734 106.949 37.2734ZM114.1 37V12.6777H116.902V18.666C117.085 18.028 117.467 17.4629 118.051 16.9707C118.643 16.4785 119.35 16.2324 120.17 16.2324C121.2 16.2324 122.007 16.597 122.59 17.3262C123.173 18.0553 123.465 19.1628 123.465 20.6484V37H120.662V20.8809C120.662 20.0423 120.507 19.4635 120.197 19.1445C119.896 18.8164 119.491 18.6523 118.98 18.6523C118.607 18.6523 118.26 18.7435 117.941 18.9258C117.622 19.099 117.367 19.377 117.176 19.7598C116.993 20.1335 116.902 20.6211 116.902 21.2227V37H114.1ZM131.654 37.2461C130.688 37.2461 129.904 37.082 129.303 36.7539C128.701 36.4167 128.236 35.9427 127.908 35.332C127.589 34.7122 127.37 33.974 127.252 33.1172C127.133 32.2513 127.074 31.2852 127.074 30.2188V22.959C127.074 21.6738 127.197 20.5254 127.443 19.5137C127.689 18.502 128.141 17.7044 128.797 17.1211C129.462 16.5378 130.415 16.2461 131.654 16.2461C132.584 16.2461 133.345 16.4147 133.938 16.752C134.53 17.0801 134.99 17.5495 135.318 18.1602C135.646 18.7617 135.87 19.4727 135.988 20.293C136.116 21.1042 136.18 21.9928 136.18 22.959V30.2188C136.18 31.2669 136.125 32.2194 136.016 33.0762C135.906 33.9329 135.692 34.6758 135.373 35.3047C135.063 35.9245 134.607 36.403 134.006 36.7402C133.413 37.0775 132.63 37.2461 131.654 37.2461ZM131.654 34.9082C132.146 34.9082 132.511 34.7441 132.748 34.416C132.994 34.0879 133.158 33.6322 133.24 33.0488C133.322 32.4564 133.363 31.7728 133.363 30.998V22.3984C133.363 21.6328 133.322 20.9674 133.24 20.4023C133.158 19.8281 132.994 19.3815 132.748 19.0625C132.502 18.7435 132.137 18.584 131.654 18.584C131.144 18.584 130.761 18.7435 130.506 19.0625C130.251 19.3815 130.082 19.8281 130 20.4023C129.927 20.9674 129.891 21.6328 129.891 22.3984V30.998C129.891 31.7728 129.927 32.4564 130 33.0488C130.082 33.6322 130.251 34.0879 130.506 34.416C130.761 34.7441 131.144 34.9082 131.654 34.9082ZM139.885 40.7461V16.4922H142.688V18.2012C142.961 17.5267 143.362 17.0436 143.891 16.752C144.428 16.4603 144.975 16.3145 145.531 16.3145C146.516 16.3145 147.258 16.6061 147.76 17.1895C148.261 17.7637 148.594 18.5475 148.758 19.541C148.931 20.5345 149.018 21.6602 149.018 22.918V30.3418C149.018 31.6361 148.917 32.8073 148.717 33.8555C148.525 34.8945 148.147 35.7194 147.582 36.3301C147.026 36.9408 146.192 37.2461 145.08 37.2461C144.551 37.2461 144.073 37.0866 143.645 36.7676C143.225 36.4395 142.906 36.0612 142.688 35.6328V40.7461H139.885ZM144.533 34.8945C145.208 34.8854 145.654 34.5482 145.873 33.8828C146.092 33.2083 146.201 32.1556 146.201 30.7246V22.4258C146.201 21.6693 146.169 21.0039 146.105 20.4297C146.042 19.8555 145.896 19.4089 145.668 19.0898C145.44 18.7617 145.08 18.5977 144.588 18.5977C144.196 18.5977 143.859 18.6888 143.576 18.8711C143.294 19.0534 143.075 19.418 142.92 19.9648C142.765 20.5117 142.688 21.332 142.688 22.4258V30.834C142.688 32.1921 142.801 33.2083 143.029 33.8828C143.266 34.5573 143.768 34.8945 144.533 34.8945Z" fill="#EBF0F4"/>
</svg>
